<?xml version="1.0" encoding="utf-8" standalone="no"?>
<!DOCTYPE svg PUBLIC "-//W3C//DTD SVG 1.1//EN"
  "http://www.w3.org/Graphics/SVG/1.1/DTD/svg11.dtd">
<svg xmlns:xlink="http://www.w3.org/1999/xlink" width="720pt" height="360pt" viewBox="0 0 720 360" xmlns="http://www.w3.org/2000/svg" version="1.1">
 <metadata>
  <rdf:RDF xmlns:dc="http://purl.org/dc/elements/1.1/" xmlns:cc="http://creativecommons.org/ns#" xmlns:rdf="http://www.w3.org/1999/02/22-rdf-syntax-ns#">
   <cc:Work>
    <dc:type rdf:resource="http://purl.org/dc/dcmitype/StillImage"/>
    <dc:date>2023-10-11T11:04:07.533021</dc:date>
    <dc:format>image/svg+xml</dc:format>
    <dc:creator>
     <cc:Agent>
      <dc:title>Matplotlib v3.7.2, https://matplotlib.org/</dc:title>
     </cc:Agent>
    </dc:creator>
   </cc:Work>
  </rdf:RDF>
 </metadata>
 <defs>
  <style type="text/css">*{stroke-linejoin: round; stroke-linecap: butt}</style>
 </defs>
 <g id="figure_1">
  <g id="patch_1">
   <path d="M 0 360 
L 720 360 
L 720 0 
L 0 0 
z
" style="fill: #ffffff"/>
  </g>
  <g id="axes_1">
   <g id="patch_2">
    <path d="M 38.57 306.74 
L 345.275 306.74 
L 345.275 16.56 
L 38.57 16.56 
z
" style="fill: #ffffff"/>
   </g>
   <g id="matplotlib.axis_1">
    <g id="xtick_1">
     <g id="line2d_1">
      <defs>
       <path id="ma416f9872d" d="M 0 0 
L 0 2 
" style="stroke: #000000; stroke-width: 0.5"/>
      </defs>
      <g>
       <use xlink:href="#ma416f9872d" x="52.511136" y="306.74" style="stroke: #000000; stroke-width: 0.5"/>
      </g>
     </g>
     <g id="text_1">
      <!-- 0.0 -->
      <g transform="translate(48.761136 316.40625) scale(0.06 -0.06)">
       <defs>
        <path id="TimesNewRomanPSMT-30" d="M 231 2094 
Q 231 2819 450 3342 
Q 669 3866 1031 4122 
Q 1313 4325 1613 4325 
Q 2100 4325 2488 3828 
Q 2972 3213 2972 2159 
Q 2972 1422 2759 906 
Q 2547 391 2217 158 
Q 1888 -75 1581 -75 
Q 975 -75 572 641 
Q 231 1244 231 2094 
z
M 844 2016 
Q 844 1141 1059 588 
Q 1238 122 1591 122 
Q 1759 122 1940 273 
Q 2122 425 2216 781 
Q 2359 1319 2359 2297 
Q 2359 3022 2209 3506 
Q 2097 3866 1919 4016 
Q 1791 4119 1609 4119 
Q 1397 4119 1231 3928 
Q 1006 3669 925 3112 
Q 844 2556 844 2016 
z
" transform="scale(0.015625)"/>
        <path id="TimesNewRomanPSMT-2e" d="M 800 606 
Q 947 606 1047 504 
Q 1147 403 1147 259 
Q 1147 116 1045 14 
Q 944 -88 800 -88 
Q 656 -88 554 14 
Q 453 116 453 259 
Q 453 406 554 506 
Q 656 606 800 606 
z
" transform="scale(0.015625)"/>
       </defs>
       <use xlink:href="#TimesNewRomanPSMT-30"/>
       <use xlink:href="#TimesNewRomanPSMT-2e" x="50"/>
       <use xlink:href="#TimesNewRomanPSMT-30" x="75"/>
      </g>
     </g>
    </g>
    <g id="xtick_2">
     <g id="line2d_2">
      <g>
       <use xlink:href="#ma416f9872d" x="66.452273" y="306.74" style="stroke: #000000; stroke-width: 0.5"/>
      </g>
     </g>
     <g id="text_2">
      <!-- 0.5 -->
      <g transform="translate(62.702273 316.40625) scale(0.06 -0.06)">
       <defs>
        <path id="TimesNewRomanPSMT-35" d="M 2778 4238 
L 2534 3706 
L 1259 3706 
L 981 3138 
Q 1809 3016 2294 2522 
Q 2709 2097 2709 1522 
Q 2709 1188 2573 903 
Q 2438 619 2231 419 
Q 2025 219 1772 97 
Q 1413 -75 1034 -75 
Q 653 -75 479 54 
Q 306 184 306 341 
Q 306 428 378 495 
Q 450 563 559 563 
Q 641 563 702 538 
Q 763 513 909 409 
Q 1144 247 1384 247 
Q 1750 247 2026 523 
Q 2303 800 2303 1197 
Q 2303 1581 2056 1914 
Q 1809 2247 1375 2428 
Q 1034 2569 447 2591 
L 1259 4238 
L 2778 4238 
z
" transform="scale(0.015625)"/>
       </defs>
       <use xlink:href="#TimesNewRomanPSMT-30"/>
       <use xlink:href="#TimesNewRomanPSMT-2e" x="50"/>
       <use xlink:href="#TimesNewRomanPSMT-35" x="75"/>
      </g>
     </g>
    </g>
    <g id="xtick_3">
     <g id="line2d_3">
      <g>
       <use xlink:href="#ma416f9872d" x="80.393409" y="306.74" style="stroke: #000000; stroke-width: 0.5"/>
      </g>
     </g>
     <g id="text_3">
      <!-- 1.0 -->
      <g transform="translate(76.643409 316.40625) scale(0.06 -0.06)">
       <defs>
        <path id="TimesNewRomanPSMT-31" d="M 750 3822 
L 1781 4325 
L 1884 4325 
L 1884 747 
Q 1884 391 1914 303 
Q 1944 216 2037 169 
Q 2131 122 2419 116 
L 2419 0 
L 825 0 
L 825 116 
Q 1125 122 1212 167 
Q 1300 213 1334 289 
Q 1369 366 1369 747 
L 1369 3034 
Q 1369 3497 1338 3628 
Q 1316 3728 1258 3775 
Q 1200 3822 1119 3822 
Q 1003 3822 797 3725 
L 750 3822 
z
" transform="scale(0.015625)"/>
       </defs>
       <use xlink:href="#TimesNewRomanPSMT-31"/>
       <use xlink:href="#TimesNewRomanPSMT-2e" x="50"/>
       <use xlink:href="#TimesNewRomanPSMT-30" x="75"/>
      </g>
     </g>
    </g>
    <g id="xtick_4">
     <g id="line2d_4">
      <g>
       <use xlink:href="#ma416f9872d" x="94.334545" y="306.74" style="stroke: #000000; stroke-width: 0.5"/>
      </g>
     </g>
     <g id="text_4">
      <!-- 1.5 -->
      <g transform="translate(90.584545 316.40625) scale(0.06 -0.06)">
       <use xlink:href="#TimesNewRomanPSMT-31"/>
       <use xlink:href="#TimesNewRomanPSMT-2e" x="50"/>
       <use xlink:href="#TimesNewRomanPSMT-35" x="75"/>
      </g>
     </g>
    </g>
    <g id="xtick_5">
     <g id="line2d_5">
      <g>
       <use xlink:href="#ma416f9872d" x="108.275682" y="306.74" style="stroke: #000000; stroke-width: 0.5"/>
      </g>
     </g>
     <g id="text_5">
      <!-- 2.0 -->
      <g transform="translate(104.525682 316.40625) scale(0.06 -0.06)">
       <defs>
        <path id="TimesNewRomanPSMT-32" d="M 2934 816 
L 2638 0 
L 138 0 
L 138 116 
Q 1241 1122 1691 1759 
Q 2141 2397 2141 2925 
Q 2141 3328 1894 3587 
Q 1647 3847 1303 3847 
Q 991 3847 742 3664 
Q 494 3481 375 3128 
L 259 3128 
Q 338 3706 661 4015 
Q 984 4325 1469 4325 
Q 1984 4325 2329 3994 
Q 2675 3663 2675 3213 
Q 2675 2891 2525 2569 
Q 2294 2063 1775 1497 
Q 997 647 803 472 
L 1909 472 
Q 2247 472 2383 497 
Q 2519 522 2628 598 
Q 2738 675 2819 816 
L 2934 816 
z
" transform="scale(0.015625)"/>
       </defs>
       <use xlink:href="#TimesNewRomanPSMT-32"/>
       <use xlink:href="#TimesNewRomanPSMT-2e" x="50"/>
       <use xlink:href="#TimesNewRomanPSMT-30" x="75"/>
      </g>
     </g>
    </g>
    <g id="xtick_6">
     <g id="line2d_6">
      <g>
       <use xlink:href="#ma416f9872d" x="122.216818" y="306.74" style="stroke: #000000; stroke-width: 0.5"/>
      </g>
     </g>
     <g id="text_6">
      <!-- 2.5 -->
      <g transform="translate(118.466818 316.40625) scale(0.06 -0.06)">
       <use xlink:href="#TimesNewRomanPSMT-32"/>
       <use xlink:href="#TimesNewRomanPSMT-2e" x="50"/>
       <use xlink:href="#TimesNewRomanPSMT-35" x="75"/>
      </g>
     </g>
    </g>
    <g id="xtick_7">
     <g id="line2d_7">
      <g>
       <use xlink:href="#ma416f9872d" x="136.157955" y="306.74" style="stroke: #000000; stroke-width: 0.5"/>
      </g>
     </g>
     <g id="text_7">
      <!-- 3.0 -->
      <g transform="translate(132.407955 316.40625) scale(0.06 -0.06)">
       <defs>
        <path id="TimesNewRomanPSMT-33" d="M 325 3431 
Q 506 3859 782 4092 
Q 1059 4325 1472 4325 
Q 1981 4325 2253 3994 
Q 2459 3747 2459 3466 
Q 2459 3003 1878 2509 
Q 2269 2356 2469 2072 
Q 2669 1788 2669 1403 
Q 2669 853 2319 450 
Q 1863 -75 997 -75 
Q 569 -75 414 31 
Q 259 138 259 259 
Q 259 350 332 419 
Q 406 488 509 488 
Q 588 488 669 463 
Q 722 447 909 348 
Q 1097 250 1169 231 
Q 1284 197 1416 197 
Q 1734 197 1970 444 
Q 2206 691 2206 1028 
Q 2206 1275 2097 1509 
Q 2016 1684 1919 1775 
Q 1784 1900 1550 2001 
Q 1316 2103 1072 2103 
L 972 2103 
L 972 2197 
Q 1219 2228 1467 2375 
Q 1716 2522 1828 2728 
Q 1941 2934 1941 3181 
Q 1941 3503 1739 3701 
Q 1538 3900 1238 3900 
Q 753 3900 428 3381 
L 325 3431 
z
" transform="scale(0.015625)"/>
       </defs>
       <use xlink:href="#TimesNewRomanPSMT-33"/>
       <use xlink:href="#TimesNewRomanPSMT-2e" x="50"/>
       <use xlink:href="#TimesNewRomanPSMT-30" x="75"/>
      </g>
     </g>
    </g>
    <g id="xtick_8">
     <g id="line2d_8">
      <g>
       <use xlink:href="#ma416f9872d" x="150.099091" y="306.74" style="stroke: #000000; stroke-width: 0.5"/>
      </g>
     </g>
     <g id="text_8">
      <!-- 3.5 -->
      <g transform="translate(146.349091 316.40625) scale(0.06 -0.06)">
       <use xlink:href="#TimesNewRomanPSMT-33"/>
       <use xlink:href="#TimesNewRomanPSMT-2e" x="50"/>
       <use xlink:href="#TimesNewRomanPSMT-35" x="75"/>
      </g>
     </g>
    </g>
    <g id="xtick_9">
     <g id="line2d_9">
      <g>
       <use xlink:href="#ma416f9872d" x="164.040227" y="306.74" style="stroke: #000000; stroke-width: 0.5"/>
      </g>
     </g>
     <g id="text_9">
      <!-- 4.0 -->
      <g transform="translate(160.290227 316.40625) scale(0.06 -0.06)">
       <defs>
        <path id="TimesNewRomanPSMT-34" d="M 2978 1563 
L 2978 1119 
L 2409 1119 
L 2409 0 
L 1894 0 
L 1894 1119 
L 100 1119 
L 100 1519 
L 2066 4325 
L 2409 4325 
L 2409 1563 
L 2978 1563 
z
M 1894 1563 
L 1894 3666 
L 406 1563 
L 1894 1563 
z
" transform="scale(0.015625)"/>
       </defs>
       <use xlink:href="#TimesNewRomanPSMT-34"/>
       <use xlink:href="#TimesNewRomanPSMT-2e" x="50"/>
       <use xlink:href="#TimesNewRomanPSMT-30" x="75"/>
      </g>
     </g>
    </g>
    <g id="xtick_10">
     <g id="line2d_10">
      <g>
       <use xlink:href="#ma416f9872d" x="177.981364" y="306.74" style="stroke: #000000; stroke-width: 0.5"/>
      </g>
     </g>
     <g id="text_10">
      <!-- 4.5 -->
      <g transform="translate(174.231364 316.40625) scale(0.06 -0.06)">
       <use xlink:href="#TimesNewRomanPSMT-34"/>
       <use xlink:href="#TimesNewRomanPSMT-2e" x="50"/>
       <use xlink:href="#TimesNewRomanPSMT-35" x="75"/>
      </g>
     </g>
    </g>
    <g id="xtick_11">
     <g id="line2d_11">
      <g>
       <use xlink:href="#ma416f9872d" x="191.9225" y="306.74" style="stroke: #000000; stroke-width: 0.5"/>
      </g>
     </g>
     <g id="text_11">
      <!-- 5.0 -->
      <g transform="translate(188.1725 316.40625) scale(0.06 -0.06)">
       <use xlink:href="#TimesNewRomanPSMT-35"/>
       <use xlink:href="#TimesNewRomanPSMT-2e" x="50"/>
       <use xlink:href="#TimesNewRomanPSMT-30" x="75"/>
      </g>
     </g>
    </g>
    <g id="xtick_12">
     <g id="line2d_12">
      <g>
       <use xlink:href="#ma416f9872d" x="205.863636" y="306.74" style="stroke: #000000; stroke-width: 0.5"/>
      </g>
     </g>
     <g id="text_12">
      <!-- 5.5 -->
      <g transform="translate(202.113636 316.40625) scale(0.06 -0.06)">
       <use xlink:href="#TimesNewRomanPSMT-35"/>
       <use xlink:href="#TimesNewRomanPSMT-2e" x="50"/>
       <use xlink:href="#TimesNewRomanPSMT-35" x="75"/>
      </g>
     </g>
    </g>
    <g id="xtick_13">
     <g id="line2d_13">
      <g>
       <use xlink:href="#ma416f9872d" x="219.804773" y="306.74" style="stroke: #000000; stroke-width: 0.5"/>
      </g>
     </g>
     <g id="text_13">
      <!-- 6.0 -->
      <g transform="translate(216.054773 316.40625) scale(0.06 -0.06)">
       <defs>
        <path id="TimesNewRomanPSMT-36" d="M 2869 4325 
L 2869 4209 
Q 2456 4169 2195 4045 
Q 1934 3922 1679 3669 
Q 1425 3416 1258 3105 
Q 1091 2794 978 2366 
Q 1428 2675 1881 2675 
Q 2316 2675 2634 2325 
Q 2953 1975 2953 1425 
Q 2953 894 2631 456 
Q 2244 -75 1606 -75 
Q 1172 -75 869 213 
Q 275 772 275 1663 
Q 275 2231 503 2743 
Q 731 3256 1154 3653 
Q 1578 4050 1965 4187 
Q 2353 4325 2688 4325 
L 2869 4325 
z
M 925 2138 
Q 869 1716 869 1456 
Q 869 1156 980 804 
Q 1091 453 1309 247 
Q 1469 100 1697 100 
Q 1969 100 2183 356 
Q 2397 613 2397 1088 
Q 2397 1622 2184 2012 
Q 1972 2403 1581 2403 
Q 1463 2403 1327 2353 
Q 1191 2303 925 2138 
z
" transform="scale(0.015625)"/>
       </defs>
       <use xlink:href="#TimesNewRomanPSMT-36"/>
       <use xlink:href="#TimesNewRomanPSMT-2e" x="50"/>
       <use xlink:href="#TimesNewRomanPSMT-30" x="75"/>
      </g>
     </g>
    </g>
    <g id="xtick_14">
     <g id="line2d_14">
      <g>
       <use xlink:href="#ma416f9872d" x="233.745909" y="306.74" style="stroke: #000000; stroke-width: 0.5"/>
      </g>
     </g>
     <g id="text_14">
      <!-- 6.5 -->
      <g transform="translate(229.995909 316.40625) scale(0.06 -0.06)">
       <use xlink:href="#TimesNewRomanPSMT-36"/>
       <use xlink:href="#TimesNewRomanPSMT-2e" x="50"/>
       <use xlink:href="#TimesNewRomanPSMT-35" x="75"/>
      </g>
     </g>
    </g>
    <g id="xtick_15">
     <g id="line2d_15">
      <g>
       <use xlink:href="#ma416f9872d" x="247.687045" y="306.74" style="stroke: #000000; stroke-width: 0.5"/>
      </g>
     </g>
     <g id="text_15">
      <!-- 7.0 -->
      <g transform="translate(243.937045 316.40625) scale(0.06 -0.06)">
       <defs>
        <path id="TimesNewRomanPSMT-37" d="M 644 4238 
L 2916 4238 
L 2916 4119 
L 1503 -88 
L 1153 -88 
L 2419 3728 
L 1253 3728 
Q 900 3728 750 3644 
Q 488 3500 328 3200 
L 238 3234 
L 644 4238 
z
" transform="scale(0.015625)"/>
       </defs>
       <use xlink:href="#TimesNewRomanPSMT-37"/>
       <use xlink:href="#TimesNewRomanPSMT-2e" x="50"/>
       <use xlink:href="#TimesNewRomanPSMT-30" x="75"/>
      </g>
     </g>
    </g>
    <g id="xtick_16">
     <g id="line2d_16">
      <g>
       <use xlink:href="#ma416f9872d" x="261.628182" y="306.74" style="stroke: #000000; stroke-width: 0.5"/>
      </g>
     </g>
     <g id="text_16">
      <!-- 7.5 -->
      <g transform="translate(257.878182 316.40625) scale(0.06 -0.06)">
       <use xlink:href="#TimesNewRomanPSMT-37"/>
       <use xlink:href="#TimesNewRomanPSMT-2e" x="50"/>
       <use xlink:href="#TimesNewRomanPSMT-35" x="75"/>
      </g>
     </g>
    </g>
    <g id="xtick_17">
     <g id="line2d_17">
      <g>
       <use xlink:href="#ma416f9872d" x="275.569318" y="306.74" style="stroke: #000000; stroke-width: 0.5"/>
      </g>
     </g>
     <g id="text_17">
      <!-- 8.0 -->
      <g transform="translate(271.819318 316.40625) scale(0.06 -0.06)">
       <defs>
        <path id="TimesNewRomanPSMT-38" d="M 1228 2134 
Q 725 2547 579 2797 
Q 434 3047 434 3316 
Q 434 3728 753 4026 
Q 1072 4325 1600 4325 
Q 2113 4325 2425 4047 
Q 2738 3769 2738 3413 
Q 2738 3175 2569 2928 
Q 2400 2681 1866 2347 
Q 2416 1922 2594 1678 
Q 2831 1359 2831 1006 
Q 2831 559 2490 242 
Q 2150 -75 1597 -75 
Q 994 -75 656 303 
Q 388 606 388 966 
Q 388 1247 577 1523 
Q 766 1800 1228 2134 
z
M 1719 2469 
Q 2094 2806 2194 3001 
Q 2294 3197 2294 3444 
Q 2294 3772 2109 3958 
Q 1925 4144 1606 4144 
Q 1288 4144 1088 3959 
Q 888 3775 888 3528 
Q 888 3366 970 3203 
Q 1053 3041 1206 2894 
L 1719 2469 
z
M 1375 2016 
Q 1116 1797 991 1539 
Q 866 1281 866 981 
Q 866 578 1086 336 
Q 1306 94 1647 94 
Q 1984 94 2187 284 
Q 2391 475 2391 747 
Q 2391 972 2272 1150 
Q 2050 1481 1375 2016 
z
" transform="scale(0.015625)"/>
       </defs>
       <use xlink:href="#TimesNewRomanPSMT-38"/>
       <use xlink:href="#TimesNewRomanPSMT-2e" x="50"/>
       <use xlink:href="#TimesNewRomanPSMT-30" x="75"/>
      </g>
     </g>
    </g>
    <g id="xtick_18">
     <g id="line2d_18">
      <g>
       <use xlink:href="#ma416f9872d" x="289.510455" y="306.74" style="stroke: #000000; stroke-width: 0.5"/>
      </g>
     </g>
     <g id="text_18">
      <!-- 8.5 -->
      <g transform="translate(285.760455 316.40625) scale(0.06 -0.06)">
       <use xlink:href="#TimesNewRomanPSMT-38"/>
       <use xlink:href="#TimesNewRomanPSMT-2e" x="50"/>
       <use xlink:href="#TimesNewRomanPSMT-35" x="75"/>
      </g>
     </g>
    </g>
    <g id="xtick_19">
     <g id="line2d_19">
      <g>
       <use xlink:href="#ma416f9872d" x="303.451591" y="306.74" style="stroke: #000000; stroke-width: 0.5"/>
      </g>
     </g>
     <g id="text_19">
      <!-- 9.0 -->
      <g transform="translate(299.701591 316.40625) scale(0.06 -0.06)">
       <defs>
        <path id="TimesNewRomanPSMT-39" d="M 338 -88 
L 338 28 
Q 744 34 1094 217 
Q 1444 400 1770 856 
Q 2097 1313 2225 1859 
Q 1734 1544 1338 1544 
Q 891 1544 572 1889 
Q 253 2234 253 2806 
Q 253 3363 572 3797 
Q 956 4325 1575 4325 
Q 2097 4325 2469 3894 
Q 2925 3359 2925 2575 
Q 2925 1869 2578 1258 
Q 2231 647 1613 244 
Q 1109 -88 516 -88 
L 338 -88 
z
M 2275 2091 
Q 2331 2497 2331 2741 
Q 2331 3044 2228 3395 
Q 2125 3747 1936 3934 
Q 1747 4122 1506 4122 
Q 1228 4122 1018 3872 
Q 809 3622 809 3128 
Q 809 2469 1088 2097 
Q 1291 1828 1588 1828 
Q 1731 1828 1928 1897 
Q 2125 1966 2275 2091 
z
" transform="scale(0.015625)"/>
       </defs>
       <use xlink:href="#TimesNewRomanPSMT-39"/>
       <use xlink:href="#TimesNewRomanPSMT-2e" x="50"/>
       <use xlink:href="#TimesNewRomanPSMT-30" x="75"/>
      </g>
     </g>
    </g>
    <g id="xtick_20">
     <g id="line2d_20">
      <g>
       <use xlink:href="#ma416f9872d" x="317.392727" y="306.74" style="stroke: #000000; stroke-width: 0.5"/>
      </g>
     </g>
     <g id="text_20">
      <!-- 9.5 -->
      <g transform="translate(313.642727 316.40625) scale(0.06 -0.06)">
       <use xlink:href="#TimesNewRomanPSMT-39"/>
       <use xlink:href="#TimesNewRomanPSMT-2e" x="50"/>
       <use xlink:href="#TimesNewRomanPSMT-35" x="75"/>
      </g>
     </g>
    </g>
    <g id="xtick_21">
     <g id="line2d_21">
      <g>
       <use xlink:href="#ma416f9872d" x="331.333864" y="306.74" style="stroke: #000000; stroke-width: 0.5"/>
      </g>
     </g>
     <g id="text_21">
      <!-- 10.0 -->
      <g transform="translate(326.083864 316.40625) scale(0.06 -0.06)">
       <use xlink:href="#TimesNewRomanPSMT-31"/>
       <use xlink:href="#TimesNewRomanPSMT-30" x="50"/>
       <use xlink:href="#TimesNewRomanPSMT-2e" x="100"/>
       <use xlink:href="#TimesNewRomanPSMT-30" x="125"/>
      </g>
     </g>
    </g>
    <g id="text_22">
     <!-- x-axis label, x -->
     <g transform="translate(169.373125 327.244687) scale(0.08 -0.08)">
      <defs>
       <path id="TimesNewRomanPSMT-78" d="M 84 2863 
L 1431 2863 
L 1431 2747 
Q 1303 2747 1251 2703 
Q 1200 2659 1200 2588 
Q 1200 2513 1309 2356 
Q 1344 2306 1413 2200 
L 1616 1875 
L 1850 2200 
Q 2075 2509 2075 2591 
Q 2075 2656 2022 2701 
Q 1969 2747 1850 2747 
L 1850 2863 
L 2819 2863 
L 2819 2747 
Q 2666 2738 2553 2663 
Q 2400 2556 2134 2200 
L 1744 1678 
L 2456 653 
Q 2719 275 2831 198 
Q 2944 122 3122 113 
L 3122 0 
L 1772 0 
L 1772 113 
Q 1913 113 1991 175 
Q 2050 219 2050 291 
Q 2050 363 1850 653 
L 1431 1266 
L 972 653 
Q 759 369 759 316 
Q 759 241 829 180 
Q 900 119 1041 113 
L 1041 0 
L 106 0 
L 106 113 
Q 219 128 303 191 
Q 422 281 703 653 
L 1303 1450 
L 759 2238 
Q 528 2575 401 2661 
Q 275 2747 84 2747 
L 84 2863 
z
" transform="scale(0.015625)"/>
       <path id="TimesNewRomanPSMT-2d" d="M 259 1672 
L 1875 1672 
L 1875 1200 
L 259 1200 
L 259 1672 
z
" transform="scale(0.015625)"/>
       <path id="TimesNewRomanPSMT-61" d="M 1822 413 
Q 1381 72 1269 19 
Q 1100 -59 909 -59 
Q 613 -59 420 144 
Q 228 347 228 678 
Q 228 888 322 1041 
Q 450 1253 767 1440 
Q 1084 1628 1822 1897 
L 1822 2009 
Q 1822 2438 1686 2597 
Q 1550 2756 1291 2756 
Q 1094 2756 978 2650 
Q 859 2544 859 2406 
L 866 2225 
Q 866 2081 792 2003 
Q 719 1925 600 1925 
Q 484 1925 411 2006 
Q 338 2088 338 2228 
Q 338 2497 613 2722 
Q 888 2947 1384 2947 
Q 1766 2947 2009 2819 
Q 2194 2722 2281 2516 
Q 2338 2381 2338 1966 
L 2338 994 
Q 2338 584 2353 492 
Q 2369 400 2405 369 
Q 2441 338 2488 338 
Q 2538 338 2575 359 
Q 2641 400 2828 588 
L 2828 413 
Q 2478 -56 2159 -56 
Q 2006 -56 1915 50 
Q 1825 156 1822 413 
z
M 1822 616 
L 1822 1706 
Q 1350 1519 1213 1441 
Q 966 1303 859 1153 
Q 753 1003 753 825 
Q 753 600 887 451 
Q 1022 303 1197 303 
Q 1434 303 1822 616 
z
" transform="scale(0.015625)"/>
       <path id="TimesNewRomanPSMT-69" d="M 928 4444 
Q 1059 4444 1151 4351 
Q 1244 4259 1244 4128 
Q 1244 3997 1151 3903 
Q 1059 3809 928 3809 
Q 797 3809 703 3903 
Q 609 3997 609 4128 
Q 609 4259 701 4351 
Q 794 4444 928 4444 
z
M 1188 2947 
L 1188 647 
Q 1188 378 1227 289 
Q 1266 200 1342 156 
Q 1419 113 1622 113 
L 1622 0 
L 231 0 
L 231 113 
Q 441 113 512 153 
Q 584 194 626 287 
Q 669 381 669 647 
L 669 1750 
Q 669 2216 641 2353 
Q 619 2453 572 2492 
Q 525 2531 444 2531 
Q 356 2531 231 2484 
L 188 2597 
L 1050 2947 
L 1188 2947 
z
" transform="scale(0.015625)"/>
       <path id="TimesNewRomanPSMT-73" d="M 2050 2947 
L 2050 1972 
L 1947 1972 
Q 1828 2431 1642 2597 
Q 1456 2763 1169 2763 
Q 950 2763 815 2647 
Q 681 2531 681 2391 
Q 681 2216 781 2091 
Q 878 1963 1175 1819 
L 1631 1597 
Q 2266 1288 2266 781 
Q 2266 391 1970 151 
Q 1675 -88 1309 -88 
Q 1047 -88 709 6 
Q 606 38 541 38 
Q 469 38 428 -44 
L 325 -44 
L 325 978 
L 428 978 
Q 516 541 762 319 
Q 1009 97 1316 97 
Q 1531 97 1667 223 
Q 1803 350 1803 528 
Q 1803 744 1651 891 
Q 1500 1038 1047 1263 
Q 594 1488 453 1669 
Q 313 1847 313 2119 
Q 313 2472 555 2709 
Q 797 2947 1181 2947 
Q 1350 2947 1591 2875 
Q 1750 2828 1803 2828 
Q 1853 2828 1881 2850 
Q 1909 2872 1947 2947 
L 2050 2947 
z
" transform="scale(0.015625)"/>
       <path id="TimesNewRomanPSMT-20" transform="scale(0.015625)"/>
       <path id="TimesNewRomanPSMT-6c" d="M 1184 4444 
L 1184 647 
Q 1184 378 1223 290 
Q 1263 203 1344 158 
Q 1425 113 1647 113 
L 1647 0 
L 244 0 
L 244 113 
Q 441 113 512 153 
Q 584 194 625 287 
Q 666 381 666 647 
L 666 3247 
Q 666 3731 644 3842 
Q 622 3953 573 3993 
Q 525 4034 450 4034 
Q 369 4034 244 3984 
L 191 4094 
L 1044 4444 
L 1184 4444 
z
" transform="scale(0.015625)"/>
       <path id="TimesNewRomanPSMT-62" d="M 984 2369 
Q 1400 2947 1881 2947 
Q 2322 2947 2650 2570 
Q 2978 2194 2978 1541 
Q 2978 778 2472 313 
Q 2038 -88 1503 -88 
Q 1253 -88 995 3 
Q 738 94 469 275 
L 469 3241 
Q 469 3728 445 3840 
Q 422 3953 372 3993 
Q 322 4034 247 4034 
Q 159 4034 28 3984 
L -16 4094 
L 844 4444 
L 984 4444 
L 984 2369 
z
M 984 2169 
L 984 456 
Q 1144 300 1314 220 
Q 1484 141 1663 141 
Q 1947 141 2192 453 
Q 2438 766 2438 1363 
Q 2438 1913 2192 2208 
Q 1947 2503 1634 2503 
Q 1469 2503 1303 2419 
Q 1178 2356 984 2169 
z
" transform="scale(0.015625)"/>
       <path id="TimesNewRomanPSMT-65" d="M 681 1784 
Q 678 1147 991 784 
Q 1303 422 1725 422 
Q 2006 422 2214 576 
Q 2422 731 2563 1106 
L 2659 1044 
Q 2594 616 2278 264 
Q 1963 -88 1488 -88 
Q 972 -88 605 314 
Q 238 716 238 1394 
Q 238 2128 614 2539 
Q 991 2950 1559 2950 
Q 2041 2950 2350 2633 
Q 2659 2316 2659 1784 
L 681 1784 
z
M 681 1966 
L 2006 1966 
Q 1991 2241 1941 2353 
Q 1863 2528 1708 2628 
Q 1553 2728 1384 2728 
Q 1125 2728 920 2526 
Q 716 2325 681 1966 
z
" transform="scale(0.015625)"/>
       <path id="TimesNewRomanPSMT-2c" d="M 344 -1066 
L 344 -928 
Q 666 -822 842 -598 
Q 1019 -375 1019 -125 
Q 1019 -66 991 -25 
Q 969 3 947 3 
Q 913 3 797 -59 
Q 741 -88 678 -88 
Q 525 -88 434 3 
Q 344 94 344 253 
Q 344 406 461 515 
Q 578 625 747 625 
Q 953 625 1114 445 
Q 1275 266 1275 -31 
Q 1275 -353 1051 -629 
Q 828 -906 344 -1066 
z
" transform="scale(0.015625)"/>
      </defs>
      <use xlink:href="#TimesNewRomanPSMT-78"/>
      <use xlink:href="#TimesNewRomanPSMT-2d" x="50"/>
      <use xlink:href="#TimesNewRomanPSMT-61" x="83.300781"/>
      <use xlink:href="#TimesNewRomanPSMT-78" x="127.685547"/>
      <use xlink:href="#TimesNewRomanPSMT-69" x="177.685547"/>
      <use xlink:href="#TimesNewRomanPSMT-73" x="205.46875"/>
      <use xlink:href="#TimesNewRomanPSMT-20" x="244.384766"/>
      <use xlink:href="#TimesNewRomanPSMT-6c" x="269.384766"/>
      <use xlink:href="#TimesNewRomanPSMT-61" x="297.167969"/>
      <use xlink:href="#TimesNewRomanPSMT-62" x="341.552734"/>
      <use xlink:href="#TimesNewRomanPSMT-65" x="391.552734"/>
      <use xlink:href="#TimesNewRomanPSMT-6c" x="435.9375"/>
      <use xlink:href="#TimesNewRomanPSMT-2c" x="463.720703"/>
      <use xlink:href="#TimesNewRomanPSMT-20" x="488.720703"/>
      <use xlink:href="#TimesNewRomanPSMT-78" x="513.720703"/>
     </g>
    </g>
   </g>
   <g id="matplotlib.axis_2">
    <g id="ytick_1">
     <g id="line2d_22">
      <defs>
       <path id="m59fbe80cba" d="M 0 0 
L -2 0 
" style="stroke: #000000; stroke-width: 0.5"/>
      </defs>
      <g>
       <use xlink:href="#m59fbe80cba" x="38.57" y="306.74" style="stroke: #000000; stroke-width: 0.5"/>
      </g>
     </g>
     <g id="text_23">
      <!-- −3.0 -->
      <g transform="translate(22.186563 308.823125) scale(0.06 -0.06)">
       <defs>
        <path id="TimesNewRomanPSMT-2212" d="M 3484 2000 
L 116 2000 
L 116 2256 
L 3484 2256 
L 3484 2000 
z
" transform="scale(0.015625)"/>
       </defs>
       <use xlink:href="#TimesNewRomanPSMT-2212"/>
       <use xlink:href="#TimesNewRomanPSMT-33" x="56.396484"/>
       <use xlink:href="#TimesNewRomanPSMT-2e" x="106.396484"/>
       <use xlink:href="#TimesNewRomanPSMT-30" x="131.396484"/>
      </g>
     </g>
    </g>
    <g id="ytick_2">
     <g id="line2d_23">
      <g>
       <use xlink:href="#m59fbe80cba" x="38.57" y="297.067333" style="stroke: #000000; stroke-width: 0.5"/>
      </g>
     </g>
     <g id="text_24">
      <!-- −2.8 -->
      <g transform="translate(22.186563 299.150458) scale(0.06 -0.06)">
       <use xlink:href="#TimesNewRomanPSMT-2212"/>
       <use xlink:href="#TimesNewRomanPSMT-32" x="56.396484"/>
       <use xlink:href="#TimesNewRomanPSMT-2e" x="106.396484"/>
       <use xlink:href="#TimesNewRomanPSMT-38" x="131.396484"/>
      </g>
     </g>
    </g>
    <g id="ytick_3">
     <g id="line2d_24">
      <g>
       <use xlink:href="#m59fbe80cba" x="38.57" y="287.394667" style="stroke: #000000; stroke-width: 0.5"/>
      </g>
     </g>
     <g id="text_25">
      <!-- −2.6 -->
      <g transform="translate(22.186563 289.477792) scale(0.06 -0.06)">
       <use xlink:href="#TimesNewRomanPSMT-2212"/>
       <use xlink:href="#TimesNewRomanPSMT-32" x="56.396484"/>
       <use xlink:href="#TimesNewRomanPSMT-2e" x="106.396484"/>
       <use xlink:href="#TimesNewRomanPSMT-36" x="131.396484"/>
      </g>
     </g>
    </g>
    <g id="ytick_4">
     <g id="line2d_25">
      <g>
       <use xlink:href="#m59fbe80cba" x="38.57" y="277.722" style="stroke: #000000; stroke-width: 0.5"/>
      </g>
     </g>
     <g id="text_26">
      <!-- −2.4 -->
      <g transform="translate(22.186563 279.805125) scale(0.06 -0.06)">
       <use xlink:href="#TimesNewRomanPSMT-2212"/>
       <use xlink:href="#TimesNewRomanPSMT-32" x="56.396484"/>
       <use xlink:href="#TimesNewRomanPSMT-2e" x="106.396484"/>
       <use xlink:href="#TimesNewRomanPSMT-34" x="131.396484"/>
      </g>
     </g>
    </g>
    <g id="ytick_5">
     <g id="line2d_26">
      <g>
       <use xlink:href="#m59fbe80cba" x="38.57" y="268.049333" style="stroke: #000000; stroke-width: 0.5"/>
      </g>
     </g>
     <g id="text_27">
      <!-- −2.2 -->
      <g transform="translate(22.186563 270.132458) scale(0.06 -0.06)">
       <use xlink:href="#TimesNewRomanPSMT-2212"/>
       <use xlink:href="#TimesNewRomanPSMT-32" x="56.396484"/>
       <use xlink:href="#TimesNewRomanPSMT-2e" x="106.396484"/>
       <use xlink:href="#TimesNewRomanPSMT-32" x="131.396484"/>
      </g>
     </g>
    </g>
    <g id="ytick_6">
     <g id="line2d_27">
      <g>
       <use xlink:href="#m59fbe80cba" x="38.57" y="258.376667" style="stroke: #000000; stroke-width: 0.5"/>
      </g>
     </g>
     <g id="text_28">
      <!-- −2.0 -->
      <g transform="translate(22.186563 260.459792) scale(0.06 -0.06)">
       <use xlink:href="#TimesNewRomanPSMT-2212"/>
       <use xlink:href="#TimesNewRomanPSMT-32" x="56.396484"/>
       <use xlink:href="#TimesNewRomanPSMT-2e" x="106.396484"/>
       <use xlink:href="#TimesNewRomanPSMT-30" x="131.396484"/>
      </g>
     </g>
    </g>
    <g id="ytick_7">
     <g id="line2d_28">
      <g>
       <use xlink:href="#m59fbe80cba" x="38.57" y="248.704" style="stroke: #000000; stroke-width: 0.5"/>
      </g>
     </g>
     <g id="text_29">
      <!-- −1.8 -->
      <g transform="translate(22.186563 250.787125) scale(0.06 -0.06)">
       <use xlink:href="#TimesNewRomanPSMT-2212"/>
       <use xlink:href="#TimesNewRomanPSMT-31" x="56.396484"/>
       <use xlink:href="#TimesNewRomanPSMT-2e" x="106.396484"/>
       <use xlink:href="#TimesNewRomanPSMT-38" x="131.396484"/>
      </g>
     </g>
    </g>
    <g id="ytick_8">
     <g id="line2d_29">
      <g>
       <use xlink:href="#m59fbe80cba" x="38.57" y="239.031333" style="stroke: #000000; stroke-width: 0.5"/>
      </g>
     </g>
     <g id="text_30">
      <!-- −1.6 -->
      <g transform="translate(22.186563 241.114458) scale(0.06 -0.06)">
       <use xlink:href="#TimesNewRomanPSMT-2212"/>
       <use xlink:href="#TimesNewRomanPSMT-31" x="56.396484"/>
       <use xlink:href="#TimesNewRomanPSMT-2e" x="106.396484"/>
       <use xlink:href="#TimesNewRomanPSMT-36" x="131.396484"/>
      </g>
     </g>
    </g>
    <g id="ytick_9">
     <g id="line2d_30">
      <g>
       <use xlink:href="#m59fbe80cba" x="38.57" y="229.358667" style="stroke: #000000; stroke-width: 0.5"/>
      </g>
     </g>
     <g id="text_31">
      <!-- −1.4 -->
      <g transform="translate(22.186563 231.441792) scale(0.06 -0.06)">
       <use xlink:href="#TimesNewRomanPSMT-2212"/>
       <use xlink:href="#TimesNewRomanPSMT-31" x="56.396484"/>
       <use xlink:href="#TimesNewRomanPSMT-2e" x="106.396484"/>
       <use xlink:href="#TimesNewRomanPSMT-34" x="131.396484"/>
      </g>
     </g>
    </g>
    <g id="ytick_10">
     <g id="line2d_31">
      <g>
       <use xlink:href="#m59fbe80cba" x="38.57" y="219.686" style="stroke: #000000; stroke-width: 0.5"/>
      </g>
     </g>
     <g id="text_32">
      <!-- −1.2 -->
      <g transform="translate(22.186563 221.769125) scale(0.06 -0.06)">
       <use xlink:href="#TimesNewRomanPSMT-2212"/>
       <use xlink:href="#TimesNewRomanPSMT-31" x="56.396484"/>
       <use xlink:href="#TimesNewRomanPSMT-2e" x="106.396484"/>
       <use xlink:href="#TimesNewRomanPSMT-32" x="131.396484"/>
      </g>
     </g>
    </g>
    <g id="ytick_11">
     <g id="line2d_32">
      <g>
       <use xlink:href="#m59fbe80cba" x="38.57" y="210.013333" style="stroke: #000000; stroke-width: 0.5"/>
      </g>
     </g>
     <g id="text_33">
      <!-- −1.0 -->
      <g transform="translate(22.186563 212.096458) scale(0.06 -0.06)">
       <use xlink:href="#TimesNewRomanPSMT-2212"/>
       <use xlink:href="#TimesNewRomanPSMT-31" x="56.396484"/>
       <use xlink:href="#TimesNewRomanPSMT-2e" x="106.396484"/>
       <use xlink:href="#TimesNewRomanPSMT-30" x="131.396484"/>
      </g>
     </g>
    </g>
    <g id="ytick_12">
     <g id="line2d_33">
      <g>
       <use xlink:href="#m59fbe80cba" x="38.57" y="200.340667" style="stroke: #000000; stroke-width: 0.5"/>
      </g>
     </g>
     <g id="text_34">
      <!-- −0.8 -->
      <g transform="translate(22.186563 202.423792) scale(0.06 -0.06)">
       <use xlink:href="#TimesNewRomanPSMT-2212"/>
       <use xlink:href="#TimesNewRomanPSMT-30" x="56.396484"/>
       <use xlink:href="#TimesNewRomanPSMT-2e" x="106.396484"/>
       <use xlink:href="#TimesNewRomanPSMT-38" x="131.396484"/>
      </g>
     </g>
    </g>
    <g id="ytick_13">
     <g id="line2d_34">
      <g>
       <use xlink:href="#m59fbe80cba" x="38.57" y="190.668" style="stroke: #000000; stroke-width: 0.5"/>
      </g>
     </g>
     <g id="text_35">
      <!-- −0.6 -->
      <g transform="translate(22.186563 192.751125) scale(0.06 -0.06)">
       <use xlink:href="#TimesNewRomanPSMT-2212"/>
       <use xlink:href="#TimesNewRomanPSMT-30" x="56.396484"/>
       <use xlink:href="#TimesNewRomanPSMT-2e" x="106.396484"/>
       <use xlink:href="#TimesNewRomanPSMT-36" x="131.396484"/>
      </g>
     </g>
    </g>
    <g id="ytick_14">
     <g id="line2d_35">
      <g>
       <use xlink:href="#m59fbe80cba" x="38.57" y="180.995333" style="stroke: #000000; stroke-width: 0.5"/>
      </g>
     </g>
     <g id="text_36">
      <!-- −0.4 -->
      <g transform="translate(22.186563 183.078458) scale(0.06 -0.06)">
       <use xlink:href="#TimesNewRomanPSMT-2212"/>
       <use xlink:href="#TimesNewRomanPSMT-30" x="56.396484"/>
       <use xlink:href="#TimesNewRomanPSMT-2e" x="106.396484"/>
       <use xlink:href="#TimesNewRomanPSMT-34" x="131.396484"/>
      </g>
     </g>
    </g>
    <g id="ytick_15">
     <g id="line2d_36">
      <g>
       <use xlink:href="#m59fbe80cba" x="38.57" y="171.322667" style="stroke: #000000; stroke-width: 0.5"/>
      </g>
     </g>
     <g id="text_37">
      <!-- −0.2 -->
      <g transform="translate(22.186563 173.405792) scale(0.06 -0.06)">
       <use xlink:href="#TimesNewRomanPSMT-2212"/>
       <use xlink:href="#TimesNewRomanPSMT-30" x="56.396484"/>
       <use xlink:href="#TimesNewRomanPSMT-2e" x="106.396484"/>
       <use xlink:href="#TimesNewRomanPSMT-32" x="131.396484"/>
      </g>
     </g>
    </g>
    <g id="ytick_16">
     <g id="line2d_37">
      <g>
       <use xlink:href="#m59fbe80cba" x="38.57" y="161.65" style="stroke: #000000; stroke-width: 0.5"/>
      </g>
     </g>
     <g id="text_38">
      <!-- 0.0 -->
      <g transform="translate(25.57 163.733125) scale(0.06 -0.06)">
       <use xlink:href="#TimesNewRomanPSMT-30"/>
       <use xlink:href="#TimesNewRomanPSMT-2e" x="50"/>
       <use xlink:href="#TimesNewRomanPSMT-30" x="75"/>
      </g>
     </g>
    </g>
    <g id="ytick_17">
     <g id="line2d_38">
      <g>
       <use xlink:href="#m59fbe80cba" x="38.57" y="151.977333" style="stroke: #000000; stroke-width: 0.5"/>
      </g>
     </g>
     <g id="text_39">
      <!-- 0.2 -->
      <g transform="translate(25.57 154.060458) scale(0.06 -0.06)">
       <use xlink:href="#TimesNewRomanPSMT-30"/>
       <use xlink:href="#TimesNewRomanPSMT-2e" x="50"/>
       <use xlink:href="#TimesNewRomanPSMT-32" x="75"/>
      </g>
     </g>
    </g>
    <g id="ytick_18">
     <g id="line2d_39">
      <g>
       <use xlink:href="#m59fbe80cba" x="38.57" y="142.304667" style="stroke: #000000; stroke-width: 0.5"/>
      </g>
     </g>
     <g id="text_40">
      <!-- 0.4 -->
      <g transform="translate(25.57 144.387792) scale(0.06 -0.06)">
       <use xlink:href="#TimesNewRomanPSMT-30"/>
       <use xlink:href="#TimesNewRomanPSMT-2e" x="50"/>
       <use xlink:href="#TimesNewRomanPSMT-34" x="75"/>
      </g>
     </g>
    </g>
    <g id="ytick_19">
     <g id="line2d_40">
      <g>
       <use xlink:href="#m59fbe80cba" x="38.57" y="132.632" style="stroke: #000000; stroke-width: 0.5"/>
      </g>
     </g>
     <g id="text_41">
      <!-- 0.6 -->
      <g transform="translate(25.57 134.715125) scale(0.06 -0.06)">
       <use xlink:href="#TimesNewRomanPSMT-30"/>
       <use xlink:href="#TimesNewRomanPSMT-2e" x="50"/>
       <use xlink:href="#TimesNewRomanPSMT-36" x="75"/>
      </g>
     </g>
    </g>
    <g id="ytick_20">
     <g id="line2d_41">
      <g>
       <use xlink:href="#m59fbe80cba" x="38.57" y="122.959333" style="stroke: #000000; stroke-width: 0.5"/>
      </g>
     </g>
     <g id="text_42">
      <!-- 0.8 -->
      <g transform="translate(25.57 125.042458) scale(0.06 -0.06)">
       <use xlink:href="#TimesNewRomanPSMT-30"/>
       <use xlink:href="#TimesNewRomanPSMT-2e" x="50"/>
       <use xlink:href="#TimesNewRomanPSMT-38" x="75"/>
      </g>
     </g>
    </g>
    <g id="ytick_21">
     <g id="line2d_42">
      <g>
       <use xlink:href="#m59fbe80cba" x="38.57" y="113.286667" style="stroke: #000000; stroke-width: 0.5"/>
      </g>
     </g>
     <g id="text_43">
      <!-- 1.0 -->
      <g transform="translate(25.57 115.369792) scale(0.06 -0.06)">
       <use xlink:href="#TimesNewRomanPSMT-31"/>
       <use xlink:href="#TimesNewRomanPSMT-2e" x="50"/>
       <use xlink:href="#TimesNewRomanPSMT-30" x="75"/>
      </g>
     </g>
    </g>
    <g id="ytick_22">
     <g id="line2d_43">
      <g>
       <use xlink:href="#m59fbe80cba" x="38.57" y="103.614" style="stroke: #000000; stroke-width: 0.5"/>
      </g>
     </g>
     <g id="text_44">
      <!-- 1.2 -->
      <g transform="translate(25.57 105.697125) scale(0.06 -0.06)">
       <use xlink:href="#TimesNewRomanPSMT-31"/>
       <use xlink:href="#TimesNewRomanPSMT-2e" x="50"/>
       <use xlink:href="#TimesNewRomanPSMT-32" x="75"/>
      </g>
     </g>
    </g>
    <g id="ytick_23">
     <g id="line2d_44">
      <g>
       <use xlink:href="#m59fbe80cba" x="38.57" y="93.941333" style="stroke: #000000; stroke-width: 0.5"/>
      </g>
     </g>
     <g id="text_45">
      <!-- 1.4 -->
      <g transform="translate(25.57 96.024458) scale(0.06 -0.06)">
       <use xlink:href="#TimesNewRomanPSMT-31"/>
       <use xlink:href="#TimesNewRomanPSMT-2e" x="50"/>
       <use xlink:href="#TimesNewRomanPSMT-34" x="75"/>
      </g>
     </g>
    </g>
    <g id="ytick_24">
     <g id="line2d_45">
      <g>
       <use xlink:href="#m59fbe80cba" x="38.57" y="84.268667" style="stroke: #000000; stroke-width: 0.5"/>
      </g>
     </g>
     <g id="text_46">
      <!-- 1.6 -->
      <g transform="translate(25.57 86.351792) scale(0.06 -0.06)">
       <use xlink:href="#TimesNewRomanPSMT-31"/>
       <use xlink:href="#TimesNewRomanPSMT-2e" x="50"/>
       <use xlink:href="#TimesNewRomanPSMT-36" x="75"/>
      </g>
     </g>
    </g>
    <g id="ytick_25">
     <g id="line2d_46">
      <g>
       <use xlink:href="#m59fbe80cba" x="38.57" y="74.596" style="stroke: #000000; stroke-width: 0.5"/>
      </g>
     </g>
     <g id="text_47">
      <!-- 1.8 -->
      <g transform="translate(25.57 76.679125) scale(0.06 -0.06)">
       <use xlink:href="#TimesNewRomanPSMT-31"/>
       <use xlink:href="#TimesNewRomanPSMT-2e" x="50"/>
       <use xlink:href="#TimesNewRomanPSMT-38" x="75"/>
      </g>
     </g>
    </g>
    <g id="ytick_26">
     <g id="line2d_47">
      <g>
       <use xlink:href="#m59fbe80cba" x="38.57" y="64.923333" style="stroke: #000000; stroke-width: 0.5"/>
      </g>
     </g>
     <g id="text_48">
      <!-- 2.0 -->
      <g transform="translate(25.57 67.006458) scale(0.06 -0.06)">
       <use xlink:href="#TimesNewRomanPSMT-32"/>
       <use xlink:href="#TimesNewRomanPSMT-2e" x="50"/>
       <use xlink:href="#TimesNewRomanPSMT-30" x="75"/>
      </g>
     </g>
    </g>
    <g id="ytick_27">
     <g id="line2d_48">
      <g>
       <use xlink:href="#m59fbe80cba" x="38.57" y="55.250667" style="stroke: #000000; stroke-width: 0.5"/>
      </g>
     </g>
     <g id="text_49">
      <!-- 2.2 -->
      <g transform="translate(25.57 57.333792) scale(0.06 -0.06)">
       <use xlink:href="#TimesNewRomanPSMT-32"/>
       <use xlink:href="#TimesNewRomanPSMT-2e" x="50"/>
       <use xlink:href="#TimesNewRomanPSMT-32" x="75"/>
      </g>
     </g>
    </g>
    <g id="ytick_28">
     <g id="line2d_49">
      <g>
       <use xlink:href="#m59fbe80cba" x="38.57" y="45.578" style="stroke: #000000; stroke-width: 0.5"/>
      </g>
     </g>
     <g id="text_50">
      <!-- 2.4 -->
      <g transform="translate(25.57 47.661125) scale(0.06 -0.06)">
       <use xlink:href="#TimesNewRomanPSMT-32"/>
       <use xlink:href="#TimesNewRomanPSMT-2e" x="50"/>
       <use xlink:href="#TimesNewRomanPSMT-34" x="75"/>
      </g>
     </g>
    </g>
    <g id="ytick_29">
     <g id="line2d_50">
      <g>
       <use xlink:href="#m59fbe80cba" x="38.57" y="35.905333" style="stroke: #000000; stroke-width: 0.5"/>
      </g>
     </g>
     <g id="text_51">
      <!-- 2.6 -->
      <g transform="translate(25.57 37.988458) scale(0.06 -0.06)">
       <use xlink:href="#TimesNewRomanPSMT-32"/>
       <use xlink:href="#TimesNewRomanPSMT-2e" x="50"/>
       <use xlink:href="#TimesNewRomanPSMT-36" x="75"/>
      </g>
     </g>
    </g>
    <g id="ytick_30">
     <g id="line2d_51">
      <g>
       <use xlink:href="#m59fbe80cba" x="38.57" y="26.232667" style="stroke: #000000; stroke-width: 0.5"/>
      </g>
     </g>
     <g id="text_52">
      <!-- 2.8 -->
      <g transform="translate(25.57 28.315792) scale(0.06 -0.06)">
       <use xlink:href="#TimesNewRomanPSMT-32"/>
       <use xlink:href="#TimesNewRomanPSMT-2e" x="50"/>
       <use xlink:href="#TimesNewRomanPSMT-38" x="75"/>
      </g>
     </g>
    </g>
    <g id="ytick_31">
     <g id="line2d_52">
      <g>
       <use xlink:href="#m59fbe80cba" x="38.57" y="16.56" style="stroke: #000000; stroke-width: 0.5"/>
      </g>
     </g>
     <g id="text_53">
      <!-- 3.0 -->
      <g transform="translate(25.57 18.643125) scale(0.06 -0.06)">
       <use xlink:href="#TimesNewRomanPSMT-33"/>
       <use xlink:href="#TimesNewRomanPSMT-2e" x="50"/>
       <use xlink:href="#TimesNewRomanPSMT-30" x="75"/>
      </g>
     </g>
    </g>
    <g id="text_54">
     <!-- y-axis label, y -->
     <g transform="translate(16.460313 184.199375) rotate(-90) scale(0.08 -0.08)">
      <defs>
       <path id="TimesNewRomanPSMT-79" d="M 38 2863 
L 1372 2863 
L 1372 2747 
L 1306 2747 
Q 1166 2747 1095 2686 
Q 1025 2625 1025 2534 
Q 1025 2413 1128 2197 
L 1825 753 
L 2466 2334 
Q 2519 2463 2519 2588 
Q 2519 2644 2497 2672 
Q 2472 2706 2419 2726 
Q 2366 2747 2231 2747 
L 2231 2863 
L 3163 2863 
L 3163 2747 
Q 3047 2734 2984 2696 
Q 2922 2659 2847 2556 
Q 2819 2513 2741 2316 
L 1575 -541 
Q 1406 -956 1132 -1168 
Q 859 -1381 606 -1381 
Q 422 -1381 303 -1275 
Q 184 -1169 184 -1031 
Q 184 -900 270 -820 
Q 356 -741 506 -741 
Q 609 -741 788 -809 
Q 913 -856 944 -856 
Q 1038 -856 1148 -759 
Q 1259 -663 1372 -384 
L 1575 113 
L 547 2272 
Q 500 2369 397 2513 
Q 319 2622 269 2659 
Q 197 2709 38 2747 
L 38 2863 
z
" transform="scale(0.015625)"/>
      </defs>
      <use xlink:href="#TimesNewRomanPSMT-79"/>
      <use xlink:href="#TimesNewRomanPSMT-2d" x="50"/>
      <use xlink:href="#TimesNewRomanPSMT-61" x="83.300781"/>
      <use xlink:href="#TimesNewRomanPSMT-78" x="127.685547"/>
      <use xlink:href="#TimesNewRomanPSMT-69" x="177.685547"/>
      <use xlink:href="#TimesNewRomanPSMT-73" x="205.46875"/>
      <use xlink:href="#TimesNewRomanPSMT-20" x="244.384766"/>
      <use xlink:href="#TimesNewRomanPSMT-6c" x="269.384766"/>
      <use xlink:href="#TimesNewRomanPSMT-61" x="297.167969"/>
      <use xlink:href="#TimesNewRomanPSMT-62" x="341.552734"/>
      <use xlink:href="#TimesNewRomanPSMT-65" x="391.552734"/>
      <use xlink:href="#TimesNewRomanPSMT-6c" x="435.9375"/>
      <use xlink:href="#TimesNewRomanPSMT-2c" x="463.720703"/>
      <use xlink:href="#TimesNewRomanPSMT-20" x="488.720703"/>
      <use xlink:href="#TimesNewRomanPSMT-79" x="513.720703"/>
     </g>
    </g>
   </g>
   <g id="line2d_53">
    <path d="M 52.511136 161.65 
L 55.327528 156.773118 
L 58.143919 151.945952 
L 60.96031 147.217714 
L 63.776701 142.636603 
L 66.593092 138.249322 
L 69.409483 134.100596 
L 72.225875 130.232719 
L 75.042266 126.685121 
L 77.858657 123.493968 
L 80.675048 120.691791 
L 83.491439 118.307158 
L 86.307831 116.364377 
L 89.124222 114.883255 
L 91.940613 113.878891 
L 94.757004 113.361522 
L 97.573395 113.336424 
L 100.389787 113.803853 
L 103.206178 114.759042 
L 106.022569 116.192256 
L 108.83896 118.088882 
L 111.655351 120.429587 
L 114.471742 123.190507 
L 117.288134 126.343498 
L 120.104525 129.856416 
L 122.920916 133.69345 
L 125.737307 137.815483 
L 128.553698 142.180494 
L 131.37009 146.743985 
L 134.186481 151.459432 
L 137.002872 156.278766 
L 139.819263 161.152857 
L 142.635654 166.032015 
L 145.452045 170.866502 
L 148.268437 175.607032 
L 151.084828 180.205279 
L 153.901219 184.614367 
L 156.71761 188.789347 
L 159.534001 192.687659 
L 162.350393 196.269562 
L 165.166784 199.49854 
L 167.983175 202.341676 
L 170.799566 204.769987 
L 173.615957 206.758716 
L 176.432348 208.28759 
L 179.24874 209.341024 
L 182.065131 209.908277 
L 184.881522 209.983568 
L 187.697913 209.566129 
L 190.514304 208.660216 
L 193.330696 207.275062 
L 196.147087 205.42479 
L 198.963478 203.128262 
L 201.779869 200.408889 
L 204.59626 197.294394 
L 207.412652 193.816526 
L 210.229043 190.010741 
L 213.045434 185.915837 
L 215.861825 181.573557 
L 218.678216 177.02817 
L 221.494607 172.326011 
L 224.310999 167.515018 
L 227.12739 162.644234 
L 229.943781 157.763315 
L 232.760172 152.922018 
L 235.576563 148.169697 
L 238.392955 143.554799 
L 241.209346 139.124371 
L 244.025737 134.923577 
L 246.842128 130.995242 
L 249.658519 127.379413 
L 252.47491 124.112951 
L 255.291302 121.229156 
L 258.107693 118.757425 
L 260.924084 116.722957 
L 263.740475 115.146492 
L 266.556866 114.044101 
L 269.373258 113.427022 
L 272.189649 113.301546 
L 275.00604 113.668952 
L 277.822431 114.525494 
L 280.638822 115.862441 
L 283.455213 117.666163 
L 286.271605 119.918272 
L 289.087996 122.59581 
L 291.904387 125.671481 
L 294.720778 129.11393 
L 297.537169 132.888064 
L 300.353561 136.955407 
L 303.169952 141.274497 
L 305.986343 145.801301 
L 308.802734 150.489674 
L 311.619125 155.291818 
L 314.435517 160.158781 
L 317.251908 165.040945 
L 320.068299 169.888541 
L 322.88469 174.65215 
L 325.701081 179.28321 
L 328.517472 183.734511 
L 331.333864 187.960674 
" clip-path="url(#p5f507b5228)" style="fill: none; stroke: #1f77b4; stroke-width: 0.8; stroke-linecap: square"/>
   </g>
   <g id="line2d_54">
    <path d="M 52.511136 113.286667 
L 55.327528 113.533183 
L 58.143919 114.270221 
L 60.96031 115.490265 
L 63.776701 117.180879 
L 66.593092 119.324827 
L 69.409483 121.900254 
L 72.225875 124.880904 
L 75.042266 128.236392 
L 77.858657 131.93251 
L 80.675048 135.93158 
L 83.491439 140.192832 
L 86.307831 144.672827 
L 89.124222 149.325894 
L 91.940613 154.104596 
L 94.757004 158.96022 
L 97.573395 163.843264 
L 100.389787 168.703949 
L 103.206178 173.492724 
L 106.022569 178.160769 
L 108.83896 182.660498 
L 111.655351 186.946038 
L 114.471742 190.973701 
L 117.288134 194.702427 
L 120.104525 198.094205 
L 122.920916 201.114457 
L 125.737307 203.732393 
L 128.553698 205.921327 
L 131.37009 207.658942 
L 134.186481 208.927525 
L 137.002872 209.714143 
L 139.819263 210.010778 
L 142.635654 209.814405 
L 145.452045 209.127027 
L 148.268437 207.95565 
L 151.084828 206.312217 
L 153.901219 204.21348 
L 156.71761 201.680836 
L 159.534001 198.740103 
L 162.350393 195.421259 
L 165.166784 191.758139 
L 167.983175 187.788085 
L 170.799566 183.55157 
L 173.615957 179.091782 
L 176.432348 174.454187 
L 179.24874 169.68606 
L 182.065131 164.836012 
L 184.881522 159.953483 
L 187.697913 155.08825 
L 190.514304 150.28991 
L 193.330696 145.607378 
L 196.147087 141.088391 
L 198.963478 136.779017 
L 201.779869 132.723187 
L 204.59626 128.962247 
L 207.412652 125.534538 
L 210.229043 122.475003 
L 213.045434 119.814833 
L 215.861825 117.581146 
L 218.678216 115.796713 
L 221.494607 114.479725 
L 224.310999 113.643609 
L 227.12739 113.296887 
L 229.943781 113.443095 
L 232.760172 114.080742 
L 235.576563 115.203327 
L 238.392955 116.799407 
L 241.209346 118.85271 
L 244.025737 121.342304 
L 246.842128 124.24281 
L 249.658519 127.524659 
L 252.47491 131.154394 
L 255.291302 135.095012 
L 258.107693 139.306342 
L 260.924084 143.745451 
L 263.740475 148.367086 
L 266.556866 153.124132 
L 269.373258 157.968093 
L 272.189649 162.84959 
L 275.00604 167.718857 
L 277.822431 172.526256 
L 280.638822 177.222778 
L 283.455213 181.760546 
L 286.271605 186.0933 
L 289.087996 190.176869 
L 291.904387 193.969625 
L 294.720778 197.432903 
L 297.537169 200.531397 
L 300.353561 203.23352 
L 303.169952 205.511724 
L 305.986343 207.342787 
L 308.802734 208.70804 
L 311.619125 209.593566 
L 314.435517 209.990338 
L 317.251908 209.894311 
L 320.068299 209.306463 
L 322.88469 208.232788 
L 325.701081 206.68423 
L 328.517472 204.676578 
L 331.333864 202.230296 
" clip-path="url(#p5f507b5228)" style="fill: none; stroke-dasharray: 2.96,1.28; stroke-dashoffset: 0; stroke: #ff7f0e; stroke-width: 0.8"/>
   </g>
   <g id="line2d_55">
    <path d="M 52.511136 113.286667 
L 55.327528 108.656301 
L 58.143919 104.566173 
L 60.96031 101.057979 
L 63.776701 98.167482 
L 66.593092 95.924149 
L 69.409483 94.350849 
L 72.225875 93.463622 
L 75.042266 93.271512 
L 77.858657 93.776478 
L 80.675048 94.973371 
L 83.491439 96.84999 
L 86.307831 99.387205 
L 89.124222 102.559149 
L 91.940613 106.333487 
L 94.757004 110.671742 
L 97.573395 115.529688 
L 100.389787 120.857802 
L 103.206178 126.601766 
L 106.022569 132.703025 
L 108.83896 139.09938 
L 111.655351 145.725625 
L 114.471742 152.514208 
L 117.288134 159.395925 
L 120.104525 166.300621 
L 122.920916 173.157907 
L 125.737307 179.897877 
L 128.553698 186.451821 
L 131.37009 192.752926 
L 134.186481 198.736957 
L 137.002872 204.34291 
L 139.819263 209.513635 
L 142.635654 214.196421 
L 145.452045 218.343529 
L 148.268437 221.912683 
L 151.084828 224.867496 
L 153.901219 227.177847 
L 156.71761 228.820183 
L 159.534001 229.777762 
L 162.350393 230.040821 
L 165.166784 229.606679 
L 167.983175 228.479761 
L 170.799566 226.671557 
L 173.615957 224.200498 
L 176.432348 221.091777 
L 179.24874 217.377084 
L 182.065131 213.094289 
L 184.881522 208.287052 
L 187.697913 203.00438 
L 190.514304 197.300125 
L 193.330696 191.232441 
L 196.147087 184.863182 
L 198.963478 178.257279 
L 201.779869 171.482076 
L 204.59626 164.606641 
L 207.412652 157.701064 
L 210.229043 150.835745 
L 213.045434 144.08067 
L 215.861825 137.504703 
L 218.678216 131.174883 
L 221.494607 125.155737 
L 224.310999 119.508627 
L 227.12739 114.291121 
L 229.943781 109.55641 
L 232.760172 105.352759 
L 235.576563 101.723024 
L 238.392955 98.704206 
L 241.209346 96.327081 
L 244.025737 94.615881 
L 246.842128 93.588053 
L 249.658519 93.254072 
L 252.47491 93.617345 
L 255.291302 94.674168 
L 258.107693 96.413767 
L 260.924084 98.818409 
L 263.740475 101.863579 
L 266.556866 105.518233 
L 269.373258 109.745116 
L 272.189649 114.501136 
L 275.00604 119.737809 
L 277.822431 125.40175 
L 280.638822 131.435219 
L 283.455213 137.776709 
L 286.271605 144.361572 
L 289.087996 151.122679 
L 291.904387 157.991106 
L 294.720778 164.896833 
L 297.537169 171.769461 
L 300.353561 178.538927 
L 303.169952 185.136221 
L 305.986343 191.494088 
L 308.802734 197.547714 
L 311.619125 203.235384 
L 314.435517 208.499118 
L 317.251908 213.285255 
L 320.068299 217.545004 
L 322.88469 221.234937 
L 325.701081 224.317441 
L 328.517472 226.761089 
L 331.333864 228.54097 
" clip-path="url(#p5f507b5228)" style="fill: none; stroke-dasharray: 5.12,1.28,0.8,1.28; stroke-dashoffset: 0; stroke: #2ca02c; stroke-width: 0.8"/>
   </g>
   <g id="patch_3">
    <path d="M 38.57 306.74 
L 38.57 16.56 
" style="fill: none; stroke: #000000; stroke-width: 0.5; stroke-linejoin: miter; stroke-linecap: square"/>
   </g>
   <g id="patch_4">
    <path d="M 345.275 306.74 
L 345.275 16.56 
" style="fill: none; stroke: #000000; stroke-width: 0.5; stroke-linejoin: miter; stroke-linecap: square"/>
   </g>
   <g id="patch_5">
    <path d="M 38.57 306.74 
L 345.275 306.74 
" style="fill: none; stroke: #000000; stroke-width: 0.5; stroke-linejoin: miter; stroke-linecap: square"/>
   </g>
   <g id="patch_6">
    <path d="M 38.57 16.56 
L 345.275 16.56 
" style="fill: none; stroke: #000000; stroke-width: 0.5; stroke-linejoin: miter; stroke-linecap: square"/>
   </g>
   <g id="legend_1">
    <g id="patch_7">
     <path d="M 254.39625 56.93875 
L 339.675 56.93875 
Q 341.275 56.93875 341.275 55.33875 
L 341.275 22.16 
Q 341.275 20.56 339.675 20.56 
L 254.39625 20.56 
Q 252.79625 20.56 252.79625 22.16 
L 252.79625 55.33875 
Q 252.79625 56.93875 254.39625 56.93875 
z
" style="fill: #ffffff; opacity: 0.8; stroke: #cccccc; stroke-linejoin: miter"/>
    </g>
    <g id="line2d_56">
     <path d="M 255.99625 26.56 
L 263.99625 26.56 
L 271.99625 26.56 
" style="fill: none; stroke: #1f77b4; stroke-width: 0.8; stroke-linecap: square"/>
    </g>
    <g id="text_55">
     <!-- y = sin(x) -->
     <g transform="translate(278.39625 29.36) scale(0.08 -0.08)">
      <defs>
       <path id="TimesNewRomanPSMT-3d" d="M 116 2759 
L 3488 2759 
L 3488 2503 
L 116 2503 
L 116 2759 
z
M 116 1741 
L 3488 1741 
L 3488 1484 
L 116 1484 
L 116 1741 
z
" transform="scale(0.015625)"/>
       <path id="TimesNewRomanPSMT-6e" d="M 1034 2341 
Q 1538 2947 1994 2947 
Q 2228 2947 2397 2830 
Q 2566 2713 2666 2444 
Q 2734 2256 2734 1869 
L 2734 647 
Q 2734 375 2778 278 
Q 2813 200 2889 156 
Q 2966 113 3172 113 
L 3172 0 
L 1756 0 
L 1756 113 
L 1816 113 
Q 2016 113 2095 173 
Q 2175 234 2206 353 
Q 2219 400 2219 647 
L 2219 1819 
Q 2219 2209 2117 2386 
Q 2016 2563 1775 2563 
Q 1403 2563 1034 2156 
L 1034 647 
Q 1034 356 1069 288 
Q 1113 197 1189 155 
Q 1266 113 1500 113 
L 1500 0 
L 84 0 
L 84 113 
L 147 113 
Q 366 113 442 223 
Q 519 334 519 647 
L 519 1709 
Q 519 2225 495 2337 
Q 472 2450 423 2490 
Q 375 2531 294 2531 
Q 206 2531 84 2484 
L 38 2597 
L 900 2947 
L 1034 2947 
L 1034 2341 
z
" transform="scale(0.015625)"/>
       <path id="TimesNewRomanPSMT-28" d="M 1988 -1253 
L 1988 -1369 
Q 1516 -1131 1200 -813 
Q 750 -359 506 256 
Q 263 872 263 1534 
Q 263 2503 741 3301 
Q 1219 4100 1988 4444 
L 1988 4313 
Q 1603 4100 1356 3731 
Q 1109 3363 987 2797 
Q 866 2231 866 1616 
Q 866 947 969 400 
Q 1050 -31 1165 -292 
Q 1281 -553 1476 -793 
Q 1672 -1034 1988 -1253 
z
" transform="scale(0.015625)"/>
       <path id="TimesNewRomanPSMT-29" d="M 144 4313 
L 144 4444 
Q 619 4209 934 3891 
Q 1381 3434 1625 2820 
Q 1869 2206 1869 1541 
Q 1869 572 1392 -226 
Q 916 -1025 144 -1369 
L 144 -1253 
Q 528 -1038 776 -670 
Q 1025 -303 1145 264 
Q 1266 831 1266 1447 
Q 1266 2113 1163 2663 
Q 1084 3094 967 3353 
Q 850 3613 656 3853 
Q 463 4094 144 4313 
z
" transform="scale(0.015625)"/>
      </defs>
      <use xlink:href="#TimesNewRomanPSMT-79"/>
      <use xlink:href="#TimesNewRomanPSMT-20" x="50"/>
      <use xlink:href="#TimesNewRomanPSMT-3d" x="75"/>
      <use xlink:href="#TimesNewRomanPSMT-20" x="131.396484"/>
      <use xlink:href="#TimesNewRomanPSMT-73" x="156.396484"/>
      <use xlink:href="#TimesNewRomanPSMT-69" x="195.3125"/>
      <use xlink:href="#TimesNewRomanPSMT-6e" x="223.095703"/>
      <use xlink:href="#TimesNewRomanPSMT-28" x="273.095703"/>
      <use xlink:href="#TimesNewRomanPSMT-78" x="306.396484"/>
      <use xlink:href="#TimesNewRomanPSMT-29" x="356.396484"/>
     </g>
    </g>
    <g id="line2d_57">
     <path d="M 255.99625 37.88625 
L 263.99625 37.88625 
L 271.99625 37.88625 
" style="fill: none; stroke-dasharray: 2.96,1.28; stroke-dashoffset: 0; stroke: #ff7f0e; stroke-width: 0.8"/>
    </g>
    <g id="text_56">
     <!-- y = cos(x) -->
     <g transform="translate(278.39625 40.68625) scale(0.08 -0.08)">
      <defs>
       <path id="TimesNewRomanPSMT-63" d="M 2631 1088 
Q 2516 522 2178 217 
Q 1841 -88 1431 -88 
Q 944 -88 581 321 
Q 219 731 219 1428 
Q 219 2103 620 2525 
Q 1022 2947 1584 2947 
Q 2006 2947 2278 2723 
Q 2550 2500 2550 2259 
Q 2550 2141 2473 2067 
Q 2397 1994 2259 1994 
Q 2075 1994 1981 2113 
Q 1928 2178 1911 2362 
Q 1894 2547 1784 2644 
Q 1675 2738 1481 2738 
Q 1169 2738 978 2506 
Q 725 2200 725 1697 
Q 725 1184 976 792 
Q 1228 400 1656 400 
Q 1963 400 2206 609 
Q 2378 753 2541 1131 
L 2631 1088 
z
" transform="scale(0.015625)"/>
       <path id="TimesNewRomanPSMT-6f" d="M 1600 2947 
Q 2250 2947 2644 2453 
Q 2978 2031 2978 1484 
Q 2978 1100 2793 706 
Q 2609 313 2286 112 
Q 1963 -88 1566 -88 
Q 919 -88 538 428 
Q 216 863 216 1403 
Q 216 1797 411 2186 
Q 606 2575 925 2761 
Q 1244 2947 1600 2947 
z
M 1503 2744 
Q 1338 2744 1170 2645 
Q 1003 2547 900 2300 
Q 797 2053 797 1666 
Q 797 1041 1045 587 
Q 1294 134 1700 134 
Q 2003 134 2200 384 
Q 2397 634 2397 1244 
Q 2397 2006 2069 2444 
Q 1847 2744 1503 2744 
z
" transform="scale(0.015625)"/>
      </defs>
      <use xlink:href="#TimesNewRomanPSMT-79"/>
      <use xlink:href="#TimesNewRomanPSMT-20" x="50"/>
      <use xlink:href="#TimesNewRomanPSMT-3d" x="75"/>
      <use xlink:href="#TimesNewRomanPSMT-20" x="131.396484"/>
      <use xlink:href="#TimesNewRomanPSMT-63" x="156.396484"/>
      <use xlink:href="#TimesNewRomanPSMT-6f" x="200.78125"/>
      <use xlink:href="#TimesNewRomanPSMT-73" x="250.78125"/>
      <use xlink:href="#TimesNewRomanPSMT-28" x="289.697266"/>
      <use xlink:href="#TimesNewRomanPSMT-78" x="322.998047"/>
      <use xlink:href="#TimesNewRomanPSMT-29" x="372.998047"/>
     </g>
    </g>
    <g id="line2d_58">
     <path d="M 255.99625 49.2125 
L 263.99625 49.2125 
L 271.99625 49.2125 
" style="fill: none; stroke-dasharray: 5.12,1.28,0.8,1.28; stroke-dashoffset: 0; stroke: #2ca02c; stroke-width: 0.8"/>
    </g>
    <g id="text_57">
     <!-- y = sin(x) + cos(x) -->
     <g transform="translate(278.39625 52.0125) scale(0.08 -0.08)">
      <defs>
       <path id="TimesNewRomanPSMT-2b" d="M 1672 441 
L 1672 2000 
L 116 2000 
L 116 2256 
L 1672 2256 
L 1672 3809 
L 1922 3809 
L 1922 2256 
L 3484 2256 
L 3484 2000 
L 1922 2000 
L 1922 441 
L 1672 441 
z
" transform="scale(0.015625)"/>
      </defs>
      <use xlink:href="#TimesNewRomanPSMT-79"/>
      <use xlink:href="#TimesNewRomanPSMT-20" x="50"/>
      <use xlink:href="#TimesNewRomanPSMT-3d" x="75"/>
      <use xlink:href="#TimesNewRomanPSMT-20" x="131.396484"/>
      <use xlink:href="#TimesNewRomanPSMT-73" x="156.396484"/>
      <use xlink:href="#TimesNewRomanPSMT-69" x="195.3125"/>
      <use xlink:href="#TimesNewRomanPSMT-6e" x="223.095703"/>
      <use xlink:href="#TimesNewRomanPSMT-28" x="273.095703"/>
      <use xlink:href="#TimesNewRomanPSMT-78" x="306.396484"/>
      <use xlink:href="#TimesNewRomanPSMT-29" x="356.396484"/>
      <use xlink:href="#TimesNewRomanPSMT-20" x="389.697266"/>
      <use xlink:href="#TimesNewRomanPSMT-2b" x="414.697266"/>
      <use xlink:href="#TimesNewRomanPSMT-20" x="471.09375"/>
      <use xlink:href="#TimesNewRomanPSMT-63" x="496.09375"/>
      <use xlink:href="#TimesNewRomanPSMT-6f" x="540.478516"/>
      <use xlink:href="#TimesNewRomanPSMT-73" x="590.478516"/>
      <use xlink:href="#TimesNewRomanPSMT-28" x="629.394531"/>
      <use xlink:href="#TimesNewRomanPSMT-78" x="662.695312"/>
      <use xlink:href="#TimesNewRomanPSMT-29" x="712.695312"/>
     </g>
    </g>
   </g>
  </g>
  <g id="axes_2">
   <g id="patch_8">
    <path d="M 402.495 306.74 
L 709.2 306.74 
L 709.2 16.56 
L 402.495 16.56 
z
" style="fill: #ffffff"/>
   </g>
   <g id="matplotlib.axis_3">
    <g id="xtick_22">
     <g id="line2d_59">
      <defs>
       <path id="mb84884538e" d="M 0 0 
L 0 4 
" style="stroke: #000000; stroke-width: 2"/>
      </defs>
      <g>
       <use xlink:href="#mb84884538e" x="416.436136" y="306.74" style="stroke: #000000; stroke-width: 2"/>
      </g>
     </g>
     <g id="text_58">
      <!-- 0 -->
      <g transform="translate(411.987386 325.6925) scale(0.16 -0.16)">
       <defs>
        <path id="ArialMT-30" d="M 266 2259 
Q 266 3072 433 3567 
Q 600 4063 929 4331 
Q 1259 4600 1759 4600 
Q 2128 4600 2406 4451 
Q 2684 4303 2865 4023 
Q 3047 3744 3150 3342 
Q 3253 2941 3253 2259 
Q 3253 1453 3087 958 
Q 2922 463 2592 192 
Q 2263 -78 1759 -78 
Q 1097 -78 719 397 
Q 266 969 266 2259 
z
M 844 2259 
Q 844 1131 1108 757 
Q 1372 384 1759 384 
Q 2147 384 2411 759 
Q 2675 1134 2675 2259 
Q 2675 3391 2411 3762 
Q 2147 4134 1753 4134 
Q 1366 4134 1134 3806 
Q 844 3388 844 2259 
z
" transform="scale(0.015625)"/>
       </defs>
       <use xlink:href="#ArialMT-30"/>
      </g>
     </g>
    </g>
    <g id="xtick_23">
     <g id="line2d_60">
      <g>
       <use xlink:href="#mb84884538e" x="472.200682" y="306.74" style="stroke: #000000; stroke-width: 2"/>
      </g>
     </g>
     <g id="text_59">
      <!-- 2 -->
      <g transform="translate(467.751932 325.6925) scale(0.16 -0.16)">
       <defs>
        <path id="ArialMT-32" d="M 3222 541 
L 3222 0 
L 194 0 
Q 188 203 259 391 
Q 375 700 629 1000 
Q 884 1300 1366 1694 
Q 2113 2306 2375 2664 
Q 2638 3022 2638 3341 
Q 2638 3675 2398 3904 
Q 2159 4134 1775 4134 
Q 1369 4134 1125 3890 
Q 881 3647 878 3216 
L 300 3275 
Q 359 3922 746 4261 
Q 1134 4600 1788 4600 
Q 2447 4600 2831 4234 
Q 3216 3869 3216 3328 
Q 3216 3053 3103 2787 
Q 2991 2522 2730 2228 
Q 2469 1934 1863 1422 
Q 1356 997 1212 845 
Q 1069 694 975 541 
L 3222 541 
z
" transform="scale(0.015625)"/>
       </defs>
       <use xlink:href="#ArialMT-32"/>
      </g>
     </g>
    </g>
    <g id="xtick_24">
     <g id="line2d_61">
      <g>
       <use xlink:href="#mb84884538e" x="527.965227" y="306.74" style="stroke: #000000; stroke-width: 2"/>
      </g>
     </g>
     <g id="text_60">
      <!-- 4 -->
      <g transform="translate(523.516477 325.6925) scale(0.16 -0.16)">
       <defs>
        <path id="ArialMT-34" d="M 2069 0 
L 2069 1097 
L 81 1097 
L 81 1613 
L 2172 4581 
L 2631 4581 
L 2631 1613 
L 3250 1613 
L 3250 1097 
L 2631 1097 
L 2631 0 
L 2069 0 
z
M 2069 1613 
L 2069 3678 
L 634 1613 
L 2069 1613 
z
" transform="scale(0.015625)"/>
       </defs>
       <use xlink:href="#ArialMT-34"/>
      </g>
     </g>
    </g>
    <g id="xtick_25">
     <g id="line2d_62">
      <g>
       <use xlink:href="#mb84884538e" x="583.729773" y="306.74" style="stroke: #000000; stroke-width: 2"/>
      </g>
     </g>
     <g id="text_61">
      <!-- 6 -->
      <g transform="translate(579.281023 325.6925) scale(0.16 -0.16)">
       <defs>
        <path id="ArialMT-36" d="M 3184 3459 
L 2625 3416 
Q 2550 3747 2413 3897 
Q 2184 4138 1850 4138 
Q 1581 4138 1378 3988 
Q 1113 3794 959 3422 
Q 806 3050 800 2363 
Q 1003 2672 1297 2822 
Q 1591 2972 1913 2972 
Q 2475 2972 2870 2558 
Q 3266 2144 3266 1488 
Q 3266 1056 3080 686 
Q 2894 316 2569 119 
Q 2244 -78 1831 -78 
Q 1128 -78 684 439 
Q 241 956 241 2144 
Q 241 3472 731 4075 
Q 1159 4600 1884 4600 
Q 2425 4600 2770 4297 
Q 3116 3994 3184 3459 
z
M 888 1484 
Q 888 1194 1011 928 
Q 1134 663 1356 523 
Q 1578 384 1822 384 
Q 2178 384 2434 671 
Q 2691 959 2691 1453 
Q 2691 1928 2437 2201 
Q 2184 2475 1800 2475 
Q 1419 2475 1153 2201 
Q 888 1928 888 1484 
z
" transform="scale(0.015625)"/>
       </defs>
       <use xlink:href="#ArialMT-36"/>
      </g>
     </g>
    </g>
    <g id="xtick_26">
     <g id="line2d_63">
      <g>
       <use xlink:href="#mb84884538e" x="639.494318" y="306.74" style="stroke: #000000; stroke-width: 2"/>
      </g>
     </g>
     <g id="text_62">
      <!-- 8 -->
      <g transform="translate(635.045568 325.6925) scale(0.16 -0.16)">
       <defs>
        <path id="ArialMT-38" d="M 1131 2484 
Q 781 2613 612 2850 
Q 444 3088 444 3419 
Q 444 3919 803 4259 
Q 1163 4600 1759 4600 
Q 2359 4600 2725 4251 
Q 3091 3903 3091 3403 
Q 3091 3084 2923 2848 
Q 2756 2613 2416 2484 
Q 2838 2347 3058 2040 
Q 3278 1734 3278 1309 
Q 3278 722 2862 322 
Q 2447 -78 1769 -78 
Q 1091 -78 675 323 
Q 259 725 259 1325 
Q 259 1772 486 2073 
Q 713 2375 1131 2484 
z
M 1019 3438 
Q 1019 3113 1228 2906 
Q 1438 2700 1772 2700 
Q 2097 2700 2305 2904 
Q 2513 3109 2513 3406 
Q 2513 3716 2298 3927 
Q 2084 4138 1766 4138 
Q 1444 4138 1231 3931 
Q 1019 3725 1019 3438 
z
M 838 1322 
Q 838 1081 952 856 
Q 1066 631 1291 507 
Q 1516 384 1775 384 
Q 2178 384 2440 643 
Q 2703 903 2703 1303 
Q 2703 1709 2433 1975 
Q 2163 2241 1756 2241 
Q 1359 2241 1098 1978 
Q 838 1716 838 1322 
z
" transform="scale(0.015625)"/>
       </defs>
       <use xlink:href="#ArialMT-38"/>
      </g>
     </g>
    </g>
    <g id="xtick_27">
     <g id="line2d_64">
      <g>
       <use xlink:href="#mb84884538e" x="695.258864" y="306.74" style="stroke: #000000; stroke-width: 2"/>
      </g>
     </g>
     <g id="text_63">
      <!-- 10 -->
      <g transform="translate(686.361364 325.6925) scale(0.16 -0.16)">
       <defs>
        <path id="ArialMT-31" d="M 2384 0 
L 1822 0 
L 1822 3584 
Q 1619 3391 1289 3197 
Q 959 3003 697 2906 
L 697 3450 
Q 1169 3672 1522 3987 
Q 1875 4303 2022 4600 
L 2384 4600 
L 2384 0 
z
" transform="scale(0.015625)"/>
       </defs>
       <use xlink:href="#ArialMT-31"/>
       <use xlink:href="#ArialMT-30" x="55.615234"/>
      </g>
     </g>
    </g>
    <g id="text_64">
     <!-- x-axis label, x -->
     <g transform="translate(501.331406 345.756562) scale(0.18 -0.18)">
      <defs>
       <path id="ArialMT-78" d="M 47 0 
L 1259 1725 
L 138 3319 
L 841 3319 
L 1350 2541 
Q 1494 2319 1581 2169 
Q 1719 2375 1834 2534 
L 2394 3319 
L 3066 3319 
L 1919 1756 
L 3153 0 
L 2463 0 
L 1781 1031 
L 1600 1309 
L 728 0 
L 47 0 
z
" transform="scale(0.015625)"/>
       <path id="ArialMT-2d" d="M 203 1375 
L 203 1941 
L 1931 1941 
L 1931 1375 
L 203 1375 
z
" transform="scale(0.015625)"/>
       <path id="ArialMT-61" d="M 2588 409 
Q 2275 144 1986 34 
Q 1697 -75 1366 -75 
Q 819 -75 525 192 
Q 231 459 231 875 
Q 231 1119 342 1320 
Q 453 1522 633 1644 
Q 813 1766 1038 1828 
Q 1203 1872 1538 1913 
Q 2219 1994 2541 2106 
Q 2544 2222 2544 2253 
Q 2544 2597 2384 2738 
Q 2169 2928 1744 2928 
Q 1347 2928 1158 2789 
Q 969 2650 878 2297 
L 328 2372 
Q 403 2725 575 2942 
Q 747 3159 1072 3276 
Q 1397 3394 1825 3394 
Q 2250 3394 2515 3294 
Q 2781 3194 2906 3042 
Q 3031 2891 3081 2659 
Q 3109 2516 3109 2141 
L 3109 1391 
Q 3109 606 3145 398 
Q 3181 191 3288 0 
L 2700 0 
Q 2613 175 2588 409 
z
M 2541 1666 
Q 2234 1541 1622 1453 
Q 1275 1403 1131 1340 
Q 988 1278 909 1158 
Q 831 1038 831 891 
Q 831 666 1001 516 
Q 1172 366 1500 366 
Q 1825 366 2078 508 
Q 2331 650 2450 897 
Q 2541 1088 2541 1459 
L 2541 1666 
z
" transform="scale(0.015625)"/>
       <path id="ArialMT-69" d="M 425 3934 
L 425 4581 
L 988 4581 
L 988 3934 
L 425 3934 
z
M 425 0 
L 425 3319 
L 988 3319 
L 988 0 
L 425 0 
z
" transform="scale(0.015625)"/>
       <path id="ArialMT-73" d="M 197 991 
L 753 1078 
Q 800 744 1014 566 
Q 1228 388 1613 388 
Q 2000 388 2187 545 
Q 2375 703 2375 916 
Q 2375 1106 2209 1216 
Q 2094 1291 1634 1406 
Q 1016 1563 777 1677 
Q 538 1791 414 1992 
Q 291 2194 291 2438 
Q 291 2659 392 2848 
Q 494 3038 669 3163 
Q 800 3259 1026 3326 
Q 1253 3394 1513 3394 
Q 1903 3394 2198 3281 
Q 2494 3169 2634 2976 
Q 2775 2784 2828 2463 
L 2278 2388 
Q 2241 2644 2061 2787 
Q 1881 2931 1553 2931 
Q 1166 2931 1000 2803 
Q 834 2675 834 2503 
Q 834 2394 903 2306 
Q 972 2216 1119 2156 
Q 1203 2125 1616 2013 
Q 2213 1853 2448 1751 
Q 2684 1650 2818 1456 
Q 2953 1263 2953 975 
Q 2953 694 2789 445 
Q 2625 197 2315 61 
Q 2006 -75 1616 -75 
Q 969 -75 630 194 
Q 291 463 197 991 
z
" transform="scale(0.015625)"/>
       <path id="ArialMT-20" transform="scale(0.015625)"/>
       <path id="ArialMT-6c" d="M 409 0 
L 409 4581 
L 972 4581 
L 972 0 
L 409 0 
z
" transform="scale(0.015625)"/>
       <path id="ArialMT-62" d="M 941 0 
L 419 0 
L 419 4581 
L 981 4581 
L 981 2947 
Q 1338 3394 1891 3394 
Q 2197 3394 2470 3270 
Q 2744 3147 2920 2923 
Q 3097 2700 3197 2384 
Q 3297 2069 3297 1709 
Q 3297 856 2875 390 
Q 2453 -75 1863 -75 
Q 1275 -75 941 416 
L 941 0 
z
M 934 1684 
Q 934 1088 1097 822 
Q 1363 388 1816 388 
Q 2184 388 2453 708 
Q 2722 1028 2722 1663 
Q 2722 2313 2464 2622 
Q 2206 2931 1841 2931 
Q 1472 2931 1203 2611 
Q 934 2291 934 1684 
z
" transform="scale(0.015625)"/>
       <path id="ArialMT-65" d="M 2694 1069 
L 3275 997 
Q 3138 488 2766 206 
Q 2394 -75 1816 -75 
Q 1088 -75 661 373 
Q 234 822 234 1631 
Q 234 2469 665 2931 
Q 1097 3394 1784 3394 
Q 2450 3394 2872 2941 
Q 3294 2488 3294 1666 
Q 3294 1616 3291 1516 
L 816 1516 
Q 847 969 1125 678 
Q 1403 388 1819 388 
Q 2128 388 2347 550 
Q 2566 713 2694 1069 
z
M 847 1978 
L 2700 1978 
Q 2663 2397 2488 2606 
Q 2219 2931 1791 2931 
Q 1403 2931 1139 2672 
Q 875 2413 847 1978 
z
" transform="scale(0.015625)"/>
       <path id="ArialMT-2c" d="M 569 0 
L 569 641 
L 1209 641 
L 1209 0 
Q 1209 -353 1084 -570 
Q 959 -788 688 -906 
L 531 -666 
Q 709 -588 793 -436 
Q 878 -284 888 0 
L 569 0 
z
" transform="scale(0.015625)"/>
      </defs>
      <use xlink:href="#ArialMT-78"/>
      <use xlink:href="#ArialMT-2d" x="50"/>
      <use xlink:href="#ArialMT-61" x="83.300781"/>
      <use xlink:href="#ArialMT-78" x="138.916016"/>
      <use xlink:href="#ArialMT-69" x="188.916016"/>
      <use xlink:href="#ArialMT-73" x="211.132812"/>
      <use xlink:href="#ArialMT-20" x="261.132812"/>
      <use xlink:href="#ArialMT-6c" x="288.916016"/>
      <use xlink:href="#ArialMT-61" x="311.132812"/>
      <use xlink:href="#ArialMT-62" x="366.748047"/>
      <use xlink:href="#ArialMT-65" x="422.363281"/>
      <use xlink:href="#ArialMT-6c" x="477.978516"/>
      <use xlink:href="#ArialMT-2c" x="500.195312"/>
      <use xlink:href="#ArialMT-20" x="527.978516"/>
      <use xlink:href="#ArialMT-78" x="555.761719"/>
     </g>
    </g>
   </g>
   <g id="matplotlib.axis_4">
    <g id="ytick_32">
     <g id="line2d_65">
      <defs>
       <path id="mf97391fc15" d="M 0 0 
L -4 0 
" style="stroke: #000000; stroke-width: 2"/>
      </defs>
      <g>
       <use xlink:href="#mf97391fc15" x="402.495" y="306.74" style="stroke: #000000; stroke-width: 2"/>
      </g>
     </g>
     <g id="text_65">
      <!-- −3 -->
      <g transform="translate(376.7525 312.46625) scale(0.16 -0.16)">
       <defs>
        <path id="ArialMT-2212" d="M 3381 1997 
L 356 1997 
L 356 2522 
L 3381 2522 
L 3381 1997 
z
" transform="scale(0.015625)"/>
        <path id="ArialMT-33" d="M 269 1209 
L 831 1284 
Q 928 806 1161 595 
Q 1394 384 1728 384 
Q 2125 384 2398 659 
Q 2672 934 2672 1341 
Q 2672 1728 2419 1979 
Q 2166 2231 1775 2231 
Q 1616 2231 1378 2169 
L 1441 2663 
Q 1497 2656 1531 2656 
Q 1891 2656 2178 2843 
Q 2466 3031 2466 3422 
Q 2466 3731 2256 3934 
Q 2047 4138 1716 4138 
Q 1388 4138 1169 3931 
Q 950 3725 888 3313 
L 325 3413 
Q 428 3978 793 4289 
Q 1159 4600 1703 4600 
Q 2078 4600 2393 4439 
Q 2709 4278 2876 4000 
Q 3044 3722 3044 3409 
Q 3044 3113 2884 2869 
Q 2725 2625 2413 2481 
Q 2819 2388 3044 2092 
Q 3269 1797 3269 1353 
Q 3269 753 2831 336 
Q 2394 -81 1725 -81 
Q 1122 -81 723 278 
Q 325 638 269 1209 
z
" transform="scale(0.015625)"/>
       </defs>
       <use xlink:href="#ArialMT-2212"/>
       <use xlink:href="#ArialMT-33" x="58.398438"/>
      </g>
     </g>
    </g>
    <g id="ytick_33">
     <g id="line2d_66">
      <g>
       <use xlink:href="#mf97391fc15" x="402.495" y="258.376667" style="stroke: #000000; stroke-width: 2"/>
      </g>
     </g>
     <g id="text_66">
      <!-- −2 -->
      <g transform="translate(376.7525 264.102917) scale(0.16 -0.16)">
       <use xlink:href="#ArialMT-2212"/>
       <use xlink:href="#ArialMT-32" x="58.398438"/>
      </g>
     </g>
    </g>
    <g id="ytick_34">
     <g id="line2d_67">
      <g>
       <use xlink:href="#mf97391fc15" x="402.495" y="210.013333" style="stroke: #000000; stroke-width: 2"/>
      </g>
     </g>
     <g id="text_67">
      <!-- −1 -->
      <g transform="translate(376.7525 215.739583) scale(0.16 -0.16)">
       <use xlink:href="#ArialMT-2212"/>
       <use xlink:href="#ArialMT-31" x="58.398438"/>
      </g>
     </g>
    </g>
    <g id="ytick_35">
     <g id="line2d_68">
      <g>
       <use xlink:href="#mf97391fc15" x="402.495" y="161.65" style="stroke: #000000; stroke-width: 2"/>
      </g>
     </g>
     <g id="text_68">
      <!-- 0 -->
      <g transform="translate(386.0975 167.37625) scale(0.16 -0.16)">
       <use xlink:href="#ArialMT-30"/>
      </g>
     </g>
    </g>
    <g id="ytick_36">
     <g id="line2d_69">
      <g>
       <use xlink:href="#mf97391fc15" x="402.495" y="113.286667" style="stroke: #000000; stroke-width: 2"/>
      </g>
     </g>
     <g id="text_69">
      <!-- 1 -->
      <g transform="translate(386.0975 119.012917) scale(0.16 -0.16)">
       <use xlink:href="#ArialMT-31"/>
      </g>
     </g>
    </g>
    <g id="ytick_37">
     <g id="line2d_70">
      <g>
       <use xlink:href="#mf97391fc15" x="402.495" y="64.923333" style="stroke: #000000; stroke-width: 2"/>
      </g>
     </g>
     <g id="text_70">
      <!-- 2 -->
      <g transform="translate(386.0975 70.649583) scale(0.16 -0.16)">
       <use xlink:href="#ArialMT-32"/>
      </g>
     </g>
    </g>
    <g id="ytick_38">
     <g id="line2d_71">
      <g>
       <use xlink:href="#mf97391fc15" x="402.495" y="16.56" style="stroke: #000000; stroke-width: 2"/>
      </g>
     </g>
     <g id="text_71">
      <!-- 3 -->
      <g transform="translate(386.0975 22.28625) scale(0.16 -0.16)">
       <use xlink:href="#ArialMT-33"/>
      </g>
     </g>
    </g>
    <g id="text_72">
     <!-- y-axis label, y -->
     <g transform="translate(368.964063 216.166094) rotate(-90) scale(0.18 -0.18)">
      <defs>
       <path id="ArialMT-79" d="M 397 -1278 
L 334 -750 
Q 519 -800 656 -800 
Q 844 -800 956 -737 
Q 1069 -675 1141 -563 
Q 1194 -478 1313 -144 
Q 1328 -97 1363 -6 
L 103 3319 
L 709 3319 
L 1400 1397 
Q 1534 1031 1641 628 
Q 1738 1016 1872 1384 
L 2581 3319 
L 3144 3319 
L 1881 -56 
Q 1678 -603 1566 -809 
Q 1416 -1088 1222 -1217 
Q 1028 -1347 759 -1347 
Q 597 -1347 397 -1278 
z
" transform="scale(0.015625)"/>
      </defs>
      <use xlink:href="#ArialMT-79"/>
      <use xlink:href="#ArialMT-2d" x="50"/>
      <use xlink:href="#ArialMT-61" x="83.300781"/>
      <use xlink:href="#ArialMT-78" x="138.916016"/>
      <use xlink:href="#ArialMT-69" x="188.916016"/>
      <use xlink:href="#ArialMT-73" x="211.132812"/>
      <use xlink:href="#ArialMT-20" x="261.132812"/>
      <use xlink:href="#ArialMT-6c" x="288.916016"/>
      <use xlink:href="#ArialMT-61" x="311.132812"/>
      <use xlink:href="#ArialMT-62" x="366.748047"/>
      <use xlink:href="#ArialMT-65" x="422.363281"/>
      <use xlink:href="#ArialMT-6c" x="477.978516"/>
      <use xlink:href="#ArialMT-2c" x="500.195312"/>
      <use xlink:href="#ArialMT-20" x="527.978516"/>
      <use xlink:href="#ArialMT-79" x="555.761719"/>
     </g>
    </g>
   </g>
   <g id="line2d_72">
    <path d="M 416.436136 161.65 
L 419.252528 156.773118 
L 422.068919 151.945952 
L 424.88531 147.217714 
L 427.701701 142.636603 
L 430.518092 138.249322 
L 433.334483 134.100596 
L 436.150875 130.232719 
L 438.967266 126.685121 
L 441.783657 123.493968 
L 444.600048 120.691791 
L 447.416439 118.307158 
L 450.232831 116.364377 
L 453.049222 114.883255 
L 455.865613 113.878891 
L 458.682004 113.361522 
L 461.498395 113.336424 
L 464.314787 113.803853 
L 467.131178 114.759042 
L 469.947569 116.192256 
L 472.76396 118.088882 
L 475.580351 120.429587 
L 478.396742 123.190507 
L 481.213134 126.343498 
L 484.029525 129.856416 
L 486.845916 133.69345 
L 489.662307 137.815483 
L 492.478698 142.180494 
L 495.29509 146.743985 
L 498.111481 151.459432 
L 500.927872 156.278766 
L 503.744263 161.152857 
L 506.560654 166.032015 
L 509.377045 170.866502 
L 512.193437 175.607032 
L 515.009828 180.205279 
L 517.826219 184.614367 
L 520.64261 188.789347 
L 523.459001 192.687659 
L 526.275393 196.269562 
L 529.091784 199.49854 
L 531.908175 202.341676 
L 534.724566 204.769987 
L 537.540957 206.758716 
L 540.357348 208.28759 
L 543.17374 209.341024 
L 545.990131 209.908277 
L 548.806522 209.983568 
L 551.622913 209.566129 
L 554.439304 208.660216 
L 557.255696 207.275062 
L 560.072087 205.42479 
L 562.888478 203.128262 
L 565.704869 200.408889 
L 568.52126 197.294394 
L 571.337652 193.816526 
L 574.154043 190.010741 
L 576.970434 185.915837 
L 579.786825 181.573557 
L 582.603216 177.02817 
L 585.419607 172.326011 
L 588.235999 167.515018 
L 591.05239 162.644234 
L 593.868781 157.763315 
L 596.685172 152.922018 
L 599.501563 148.169697 
L 602.317955 143.554799 
L 605.134346 139.124371 
L 607.950737 134.923577 
L 610.767128 130.995242 
L 613.583519 127.379413 
L 616.39991 124.112951 
L 619.216302 121.229156 
L 622.032693 118.757425 
L 624.849084 116.722957 
L 627.665475 115.146492 
L 630.481866 114.044101 
L 633.298258 113.427022 
L 636.114649 113.301546 
L 638.93104 113.668952 
L 641.747431 114.525494 
L 644.563822 115.862441 
L 647.380213 117.666163 
L 650.196605 119.918272 
L 653.012996 122.59581 
L 655.829387 125.671481 
L 658.645778 129.11393 
L 661.462169 132.888064 
L 664.278561 136.955407 
L 667.094952 141.274497 
L 669.911343 145.801301 
L 672.727734 150.489674 
L 675.544125 155.291818 
L 678.360517 160.158781 
L 681.176908 165.040945 
L 683.993299 169.888541 
L 686.80969 174.65215 
L 689.626081 179.28321 
L 692.442472 183.734511 
L 695.258864 187.960674 
" clip-path="url(#p3dc3ae6e50)" style="fill: none; stroke: #1f77b4; stroke-width: 2; stroke-linecap: square"/>
   </g>
   <g id="line2d_73">
    <path d="M 416.436136 113.286667 
L 419.252528 113.533183 
L 422.068919 114.270221 
L 424.88531 115.490265 
L 427.701701 117.180879 
L 430.518092 119.324827 
L 433.334483 121.900254 
L 436.150875 124.880904 
L 438.967266 128.236392 
L 441.783657 131.93251 
L 444.600048 135.93158 
L 447.416439 140.192832 
L 450.232831 144.672827 
L 453.049222 149.325894 
L 455.865613 154.104596 
L 458.682004 158.96022 
L 461.498395 163.843264 
L 464.314787 168.703949 
L 467.131178 173.492724 
L 469.947569 178.160769 
L 472.76396 182.660498 
L 475.580351 186.946038 
L 478.396742 190.973701 
L 481.213134 194.702427 
L 484.029525 198.094205 
L 486.845916 201.114457 
L 489.662307 203.732393 
L 492.478698 205.921327 
L 495.29509 207.658942 
L 498.111481 208.927525 
L 500.927872 209.714143 
L 503.744263 210.010778 
L 506.560654 209.814405 
L 509.377045 209.127027 
L 512.193437 207.95565 
L 515.009828 206.312217 
L 517.826219 204.21348 
L 520.64261 201.680836 
L 523.459001 198.740103 
L 526.275393 195.421259 
L 529.091784 191.758139 
L 531.908175 187.788085 
L 534.724566 183.55157 
L 537.540957 179.091782 
L 540.357348 174.454187 
L 543.17374 169.68606 
L 545.990131 164.836012 
L 548.806522 159.953483 
L 551.622913 155.08825 
L 554.439304 150.28991 
L 557.255696 145.607378 
L 560.072087 141.088391 
L 562.888478 136.779017 
L 565.704869 132.723187 
L 568.52126 128.962247 
L 571.337652 125.534538 
L 574.154043 122.475003 
L 576.970434 119.814833 
L 579.786825 117.581146 
L 582.603216 115.796713 
L 585.419607 114.479725 
L 588.235999 113.643609 
L 591.05239 113.296887 
L 593.868781 113.443095 
L 596.685172 114.080742 
L 599.501563 115.203327 
L 602.317955 116.799407 
L 605.134346 118.85271 
L 607.950737 121.342304 
L 610.767128 124.24281 
L 613.583519 127.524659 
L 616.39991 131.154394 
L 619.216302 135.095012 
L 622.032693 139.306342 
L 624.849084 143.745451 
L 627.665475 148.367086 
L 630.481866 153.124132 
L 633.298258 157.968093 
L 636.114649 162.84959 
L 638.93104 167.718857 
L 641.747431 172.526256 
L 644.563822 177.222778 
L 647.380213 181.760546 
L 650.196605 186.0933 
L 653.012996 190.176869 
L 655.829387 193.969625 
L 658.645778 197.432903 
L 661.462169 200.531397 
L 664.278561 203.23352 
L 667.094952 205.511724 
L 669.911343 207.342787 
L 672.727734 208.70804 
L 675.544125 209.593566 
L 678.360517 209.990338 
L 681.176908 209.894311 
L 683.993299 209.306463 
L 686.80969 208.232788 
L 689.626081 206.68423 
L 692.442472 204.676578 
L 695.258864 202.230296 
" clip-path="url(#p3dc3ae6e50)" style="fill: none; stroke-dasharray: 7.4,3.2; stroke-dashoffset: 0; stroke: #ff7f0e; stroke-width: 2"/>
   </g>
   <g id="line2d_74">
    <path d="M 416.436136 113.286667 
L 419.252528 108.656301 
L 422.068919 104.566173 
L 424.88531 101.057979 
L 427.701701 98.167482 
L 430.518092 95.924149 
L 433.334483 94.350849 
L 436.150875 93.463622 
L 438.967266 93.271512 
L 441.783657 93.776478 
L 444.600048 94.973371 
L 447.416439 96.84999 
L 450.232831 99.387205 
L 453.049222 102.559149 
L 455.865613 106.333487 
L 458.682004 110.671742 
L 461.498395 115.529688 
L 464.314787 120.857802 
L 467.131178 126.601766 
L 469.947569 132.703025 
L 472.76396 139.09938 
L 475.580351 145.725625 
L 478.396742 152.514208 
L 481.213134 159.395925 
L 484.029525 166.300621 
L 486.845916 173.157907 
L 489.662307 179.897877 
L 492.478698 186.451821 
L 495.29509 192.752926 
L 498.111481 198.736957 
L 500.927872 204.34291 
L 503.744263 209.513635 
L 506.560654 214.196421 
L 509.377045 218.343529 
L 512.193437 221.912683 
L 515.009828 224.867496 
L 517.826219 227.177847 
L 520.64261 228.820183 
L 523.459001 229.777762 
L 526.275393 230.040821 
L 529.091784 229.606679 
L 531.908175 228.479761 
L 534.724566 226.671557 
L 537.540957 224.200498 
L 540.357348 221.091777 
L 543.17374 217.377084 
L 545.990131 213.094289 
L 548.806522 208.287052 
L 551.622913 203.00438 
L 554.439304 197.300125 
L 557.255696 191.232441 
L 560.072087 184.863182 
L 562.888478 178.257279 
L 565.704869 171.482076 
L 568.52126 164.606641 
L 571.337652 157.701064 
L 574.154043 150.835745 
L 576.970434 144.08067 
L 579.786825 137.504703 
L 582.603216 131.174883 
L 585.419607 125.155737 
L 588.235999 119.508627 
L 591.05239 114.291121 
L 593.868781 109.55641 
L 596.685172 105.352759 
L 599.501563 101.723024 
L 602.317955 98.704206 
L 605.134346 96.327081 
L 607.950737 94.615881 
L 610.767128 93.588053 
L 613.583519 93.254072 
L 616.39991 93.617345 
L 619.216302 94.674168 
L 622.032693 96.413767 
L 624.849084 98.818409 
L 627.665475 101.863579 
L 630.481866 105.518233 
L 633.298258 109.745116 
L 636.114649 114.501136 
L 638.93104 119.737809 
L 641.747431 125.40175 
L 644.563822 131.435219 
L 647.380213 137.776709 
L 650.196605 144.361572 
L 653.012996 151.122679 
L 655.829387 157.991106 
L 658.645778 164.896833 
L 661.462169 171.769461 
L 664.278561 178.538927 
L 667.094952 185.136221 
L 669.911343 191.494088 
L 672.727734 197.547714 
L 675.544125 203.235384 
L 678.360517 208.499118 
L 681.176908 213.285255 
L 683.993299 217.545004 
L 686.80969 221.234937 
L 689.626081 224.317441 
L 692.442472 226.761089 
L 695.258864 228.54097 
" clip-path="url(#p3dc3ae6e50)" style="fill: none; stroke-dasharray: 12.8,3.2,2,3.2; stroke-dashoffset: 0; stroke: #2ca02c; stroke-width: 2"/>
   </g>
   <g id="patch_9">
    <path d="M 402.495 306.74 
L 402.495 16.56 
" style="fill: none; stroke: #000000; stroke-width: 2; stroke-linejoin: miter; stroke-linecap: square"/>
   </g>
   <g id="patch_10">
    <path d="M 709.2 306.74 
L 709.2 16.56 
" style="fill: none; stroke: #000000; stroke-width: 2; stroke-linejoin: miter; stroke-linecap: square"/>
   </g>
   <g id="patch_11">
    <path d="M 402.495 306.74 
L 709.2 306.74 
" style="fill: none; stroke: #000000; stroke-width: 2; stroke-linejoin: miter; stroke-linecap: square"/>
   </g>
   <g id="patch_12">
    <path d="M 402.495 16.56 
L 709.2 16.56 
" style="fill: none; stroke: #000000; stroke-width: 2; stroke-linejoin: miter; stroke-linecap: square"/>
   </g>
   <g id="legend_2">
    <g id="patch_13">
     <path d="M 543.36125 88.174375 
L 699.4 88.174375 
Q 702.2 88.174375 702.2 85.374375 
L 702.2 26.36 
Q 702.2 23.56 699.4 23.56 
L 543.36125 23.56 
Q 540.56125 23.56 540.56125 26.36 
L 540.56125 85.374375 
Q 540.56125 88.174375 543.36125 88.174375 
z
" style="fill: #ffffff; opacity: 0.8; stroke: #cccccc; stroke-linejoin: miter"/>
    </g>
    <g id="line2d_75">
     <path d="M 546.16125 34.451563 
L 560.16125 34.451563 
L 574.16125 34.451563 
" style="fill: none; stroke: #1f77b4; stroke-width: 2; stroke-linecap: square"/>
    </g>
    <g id="text_73">
     <!-- y = sin(x) -->
     <g transform="translate(585.36125 39.351562) scale(0.14 -0.14)">
      <defs>
       <path id="ArialMT-3d" d="M 3381 2694 
L 356 2694 
L 356 3219 
L 3381 3219 
L 3381 2694 
z
M 3381 1303 
L 356 1303 
L 356 1828 
L 3381 1828 
L 3381 1303 
z
" transform="scale(0.015625)"/>
       <path id="ArialMT-6e" d="M 422 0 
L 422 3319 
L 928 3319 
L 928 2847 
Q 1294 3394 1984 3394 
Q 2284 3394 2536 3286 
Q 2788 3178 2913 3003 
Q 3038 2828 3088 2588 
Q 3119 2431 3119 2041 
L 3119 0 
L 2556 0 
L 2556 2019 
Q 2556 2363 2490 2533 
Q 2425 2703 2258 2804 
Q 2091 2906 1866 2906 
Q 1506 2906 1245 2678 
Q 984 2450 984 1813 
L 984 0 
L 422 0 
z
" transform="scale(0.015625)"/>
       <path id="ArialMT-28" d="M 1497 -1347 
Q 1031 -759 709 28 
Q 388 816 388 1659 
Q 388 2403 628 3084 
Q 909 3875 1497 4659 
L 1900 4659 
Q 1522 4009 1400 3731 
Q 1209 3300 1100 2831 
Q 966 2247 966 1656 
Q 966 153 1900 -1347 
L 1497 -1347 
z
" transform="scale(0.015625)"/>
       <path id="ArialMT-29" d="M 791 -1347 
L 388 -1347 
Q 1322 153 1322 1656 
Q 1322 2244 1188 2822 
Q 1081 3291 891 3722 
Q 769 4003 388 4659 
L 791 4659 
Q 1378 3875 1659 3084 
Q 1900 2403 1900 1659 
Q 1900 816 1576 28 
Q 1253 -759 791 -1347 
z
" transform="scale(0.015625)"/>
      </defs>
      <use xlink:href="#ArialMT-79"/>
      <use xlink:href="#ArialMT-20" x="50"/>
      <use xlink:href="#ArialMT-3d" x="77.783203"/>
      <use xlink:href="#ArialMT-20" x="136.181641"/>
      <use xlink:href="#ArialMT-73" x="163.964844"/>
      <use xlink:href="#ArialMT-69" x="213.964844"/>
      <use xlink:href="#ArialMT-6e" x="236.181641"/>
      <use xlink:href="#ArialMT-28" x="291.796875"/>
      <use xlink:href="#ArialMT-78" x="325.097656"/>
      <use xlink:href="#ArialMT-29" x="375.097656"/>
     </g>
    </g>
    <g id="line2d_76">
     <path d="M 546.16125 54.589688 
L 560.16125 54.589688 
L 574.16125 54.589688 
" style="fill: none; stroke-dasharray: 7.4,3.2; stroke-dashoffset: 0; stroke: #ff7f0e; stroke-width: 2"/>
    </g>
    <g id="text_74">
     <!-- y = cos(x) -->
     <g transform="translate(585.36125 59.489688) scale(0.14 -0.14)">
      <defs>
       <path id="ArialMT-63" d="M 2588 1216 
L 3141 1144 
Q 3050 572 2676 248 
Q 2303 -75 1759 -75 
Q 1078 -75 664 370 
Q 250 816 250 1647 
Q 250 2184 428 2587 
Q 606 2991 970 3192 
Q 1334 3394 1763 3394 
Q 2303 3394 2647 3120 
Q 2991 2847 3088 2344 
L 2541 2259 
Q 2463 2594 2264 2762 
Q 2066 2931 1784 2931 
Q 1359 2931 1093 2626 
Q 828 2322 828 1663 
Q 828 994 1084 691 
Q 1341 388 1753 388 
Q 2084 388 2306 591 
Q 2528 794 2588 1216 
z
" transform="scale(0.015625)"/>
       <path id="ArialMT-6f" d="M 213 1659 
Q 213 2581 725 3025 
Q 1153 3394 1769 3394 
Q 2453 3394 2887 2945 
Q 3322 2497 3322 1706 
Q 3322 1066 3130 698 
Q 2938 331 2570 128 
Q 2203 -75 1769 -75 
Q 1072 -75 642 372 
Q 213 819 213 1659 
z
M 791 1659 
Q 791 1022 1069 705 
Q 1347 388 1769 388 
Q 2188 388 2466 706 
Q 2744 1025 2744 1678 
Q 2744 2294 2464 2611 
Q 2184 2928 1769 2928 
Q 1347 2928 1069 2612 
Q 791 2297 791 1659 
z
" transform="scale(0.015625)"/>
      </defs>
      <use xlink:href="#ArialMT-79"/>
      <use xlink:href="#ArialMT-20" x="50"/>
      <use xlink:href="#ArialMT-3d" x="77.783203"/>
      <use xlink:href="#ArialMT-20" x="136.181641"/>
      <use xlink:href="#ArialMT-63" x="163.964844"/>
      <use xlink:href="#ArialMT-6f" x="213.964844"/>
      <use xlink:href="#ArialMT-73" x="269.580078"/>
      <use xlink:href="#ArialMT-28" x="319.580078"/>
      <use xlink:href="#ArialMT-78" x="352.880859"/>
      <use xlink:href="#ArialMT-29" x="402.880859"/>
     </g>
    </g>
    <g id="line2d_77">
     <path d="M 546.16125 74.727812 
L 560.16125 74.727812 
L 574.16125 74.727812 
" style="fill: none; stroke-dasharray: 12.8,3.2,2,3.2; stroke-dashoffset: 0; stroke: #2ca02c; stroke-width: 2"/>
    </g>
    <g id="text_75">
     <!-- y = sin(x) + cos(x) -->
     <g transform="translate(585.36125 79.627813) scale(0.14 -0.14)">
      <defs>
       <path id="ArialMT-2b" d="M 1603 741 
L 1603 1997 
L 356 1997 
L 356 2522 
L 1603 2522 
L 1603 3769 
L 2134 3769 
L 2134 2522 
L 3381 2522 
L 3381 1997 
L 2134 1997 
L 2134 741 
L 1603 741 
z
" transform="scale(0.015625)"/>
      </defs>
      <use xlink:href="#ArialMT-79"/>
      <use xlink:href="#ArialMT-20" x="50"/>
      <use xlink:href="#ArialMT-3d" x="77.783203"/>
      <use xlink:href="#ArialMT-20" x="136.181641"/>
      <use xlink:href="#ArialMT-73" x="163.964844"/>
      <use xlink:href="#ArialMT-69" x="213.964844"/>
      <use xlink:href="#ArialMT-6e" x="236.181641"/>
      <use xlink:href="#ArialMT-28" x="291.796875"/>
      <use xlink:href="#ArialMT-78" x="325.097656"/>
      <use xlink:href="#ArialMT-29" x="375.097656"/>
      <use xlink:href="#ArialMT-20" x="408.398438"/>
      <use xlink:href="#ArialMT-2b" x="436.181641"/>
      <use xlink:href="#ArialMT-20" x="494.580078"/>
      <use xlink:href="#ArialMT-63" x="522.363281"/>
      <use xlink:href="#ArialMT-6f" x="572.363281"/>
      <use xlink:href="#ArialMT-73" x="627.978516"/>
      <use xlink:href="#ArialMT-28" x="677.978516"/>
      <use xlink:href="#ArialMT-78" x="711.279297"/>
      <use xlink:href="#ArialMT-29" x="761.279297"/>
     </g>
    </g>
   </g>
  </g>
 </g>
 <defs>
  <clipPath id="p5f507b5228">
   <rect x="38.57" y="16.56" width="306.705" height="290.18"/>
  </clipPath>
  <clipPath id="p3dc3ae6e50">
   <rect x="402.495" y="16.56" width="306.705" height="290.18"/>
  </clipPath>
 </defs>
</svg>
