<?xml version="1.0" encoding="utf-8" standalone="no"?>
<!DOCTYPE svg PUBLIC "-//W3C//DTD SVG 1.1//EN"
  "http://www.w3.org/Graphics/SVG/1.1/DTD/svg11.dtd">
<svg xmlns:xlink="http://www.w3.org/1999/xlink" width="720pt" height="360pt" viewBox="0 0 720 360" xmlns="http://www.w3.org/2000/svg" version="1.1">
 <metadata>
  <rdf:RDF xmlns:dc="http://purl.org/dc/elements/1.1/" xmlns:cc="http://creativecommons.org/ns#" xmlns:rdf="http://www.w3.org/1999/02/22-rdf-syntax-ns#">
   <cc:Work>
    <dc:type rdf:resource="http://purl.org/dc/dcmitype/StillImage"/>
    <dc:date>2023-10-12T07:38:10.661009</dc:date>
    <dc:format>image/svg+xml</dc:format>
    <dc:creator>
     <cc:Agent>
      <dc:title>Matplotlib v3.7.2, https://matplotlib.org/</dc:title>
     </cc:Agent>
    </dc:creator>
   </cc:Work>
  </rdf:RDF>
 </metadata>
 <defs>
  <style type="text/css">*{stroke-linejoin: round; stroke-linecap: butt}</style>
 </defs>
 <g id="figure_1">
  <g id="patch_1">
   <path d="M 0 360 
L 720 360 
L 720 0 
L 0 0 
z
" style="fill: #ffffff"/>
  </g>
  <g id="axes_1">
   <g id="patch_2">
    <path d="M 91.33 324.92 
L 704.88 324.92 
L 704.88 15.12 
L 91.33 15.12 
z
" style="fill: #ffffff"/>
   </g>
   <g id="matplotlib.axis_1">
    <g id="xtick_1">
     <g id="line2d_1">
      <path d="M 118.40437 324.92 
L 118.40437 15.12 
" clip-path="url(#p0b622f327b)" style="fill: none; stroke: #b0b0b0; stroke-width: 0.8; stroke-linecap: square"/>
     </g>
     <g id="line2d_2">
      <defs>
       <path id="mf94d9455e3" d="M 0 0 
L 0 3.5 
" style="stroke: #000000; stroke-width: 0.8"/>
      </defs>
      <g>
       <use xlink:href="#mf94d9455e3" x="118.40437" y="324.92" style="stroke: #000000; stroke-width: 0.8"/>
      </g>
     </g>
     <g id="text_1">
      <!-- 2020-01 -->
      <g transform="translate(89.445151 342.406875) scale(0.14 -0.14)">
       <defs>
        <path id="IPAexGothic-32" d="M 3659 63 
L 447 63 
L 447 594 
Q 825 1475 1894 2203 
L 2072 2322 
Q 2619 2697 2791 2906 
Q 2988 3153 2988 3444 
Q 2988 3772 2756 4003 
Q 2500 4259 2084 4259 
Q 1250 4259 991 3328 
L 497 3506 
Q 853 4725 2116 4725 
Q 2806 4725 3216 4316 
Q 3575 3947 3575 3425 
Q 3575 3038 3344 2722 
Q 3131 2416 2366 1938 
L 2231 1856 
Q 1256 1253 978 569 
L 3659 569 
L 3659 63 
z
" transform="scale(0.015625)"/>
        <path id="IPAexGothic-30" d="M 2038 4725 
Q 2881 4725 3334 3944 
Q 3694 3325 3694 2344 
Q 3694 1372 3334 741 
Q 2888 -31 2016 -31 
Q 1147 -31 700 741 
Q 341 1372 341 2350 
Q 341 3713 1000 4334 
Q 1419 4725 2038 4725 
z
M 2016 4266 
Q 1516 4266 1228 3759 
Q 934 3247 934 2344 
Q 934 1456 1222 947 
Q 1513 447 2016 447 
Q 2619 447 2909 1153 
Q 3100 1622 3100 2375 
Q 3100 3256 2806 3759 
Q 2509 4266 2016 4266 
z
" transform="scale(0.015625)"/>
        <path id="IPAexGothic-2d" d="M 1969 1703 
L 319 1703 
L 319 2203 
L 1969 2203 
L 1969 1703 
z
" transform="scale(0.015625)"/>
        <path id="IPAexGothic-31" d="M 2463 63 
L 1900 63 
L 1900 4103 
Q 1372 3922 788 3797 
L 684 4231 
Q 1519 4441 2106 4731 
L 2463 4731 
L 2463 63 
z
" transform="scale(0.015625)"/>
       </defs>
       <use xlink:href="#IPAexGothic-32"/>
       <use xlink:href="#IPAexGothic-30" x="62.988281"/>
       <use xlink:href="#IPAexGothic-32" x="125.976562"/>
       <use xlink:href="#IPAexGothic-30" x="188.964844"/>
       <use xlink:href="#IPAexGothic-2d" x="251.953125"/>
       <use xlink:href="#IPAexGothic-30" x="287.744141"/>
       <use xlink:href="#IPAexGothic-31" x="350.732422"/>
      </g>
     </g>
    </g>
    <g id="xtick_2">
     <g id="line2d_3">
      <path d="M 192.502644 324.92 
L 192.502644 15.12 
" clip-path="url(#p0b622f327b)" style="fill: none; stroke: #b0b0b0; stroke-width: 0.8; stroke-linecap: square"/>
     </g>
     <g id="line2d_4">
      <g>
       <use xlink:href="#mf94d9455e3" x="192.502644" y="324.92" style="stroke: #000000; stroke-width: 0.8"/>
      </g>
     </g>
     <g id="text_2">
      <!-- 2020-07 -->
      <g transform="translate(163.543426 342.406875) scale(0.14 -0.14)">
       <defs>
        <path id="IPAexGothic-37" d="M 3597 4263 
Q 2238 2106 1778 63 
L 1131 63 
Q 1581 1834 2950 4128 
L 428 4128 
L 428 4634 
L 3597 4634 
L 3597 4263 
z
" transform="scale(0.015625)"/>
       </defs>
       <use xlink:href="#IPAexGothic-32"/>
       <use xlink:href="#IPAexGothic-30" x="62.988281"/>
       <use xlink:href="#IPAexGothic-32" x="125.976562"/>
       <use xlink:href="#IPAexGothic-30" x="188.964844"/>
       <use xlink:href="#IPAexGothic-2d" x="251.953125"/>
       <use xlink:href="#IPAexGothic-30" x="287.744141"/>
       <use xlink:href="#IPAexGothic-37" x="350.732422"/>
      </g>
     </g>
    </g>
    <g id="xtick_3">
     <g id="line2d_5">
      <path d="M 267.415186 324.92 
L 267.415186 15.12 
" clip-path="url(#p0b622f327b)" style="fill: none; stroke: #b0b0b0; stroke-width: 0.8; stroke-linecap: square"/>
     </g>
     <g id="line2d_6">
      <g>
       <use xlink:href="#mf94d9455e3" x="267.415186" y="324.92" style="stroke: #000000; stroke-width: 0.8"/>
      </g>
     </g>
     <g id="text_3">
      <!-- 2021-01 -->
      <g transform="translate(238.455967 342.406875) scale(0.14 -0.14)">
       <use xlink:href="#IPAexGothic-32"/>
       <use xlink:href="#IPAexGothic-30" x="62.988281"/>
       <use xlink:href="#IPAexGothic-32" x="125.976562"/>
       <use xlink:href="#IPAexGothic-31" x="188.964844"/>
       <use xlink:href="#IPAexGothic-2d" x="251.953125"/>
       <use xlink:href="#IPAexGothic-30" x="287.744141"/>
       <use xlink:href="#IPAexGothic-31" x="350.732422"/>
      </g>
     </g>
    </g>
    <g id="xtick_4">
     <g id="line2d_7">
      <path d="M 341.106327 324.92 
L 341.106327 15.12 
" clip-path="url(#p0b622f327b)" style="fill: none; stroke: #b0b0b0; stroke-width: 0.8; stroke-linecap: square"/>
     </g>
     <g id="line2d_8">
      <g>
       <use xlink:href="#mf94d9455e3" x="341.106327" y="324.92" style="stroke: #000000; stroke-width: 0.8"/>
      </g>
     </g>
     <g id="text_4">
      <!-- 2021-07 -->
      <g transform="translate(312.147108 342.406875) scale(0.14 -0.14)">
       <use xlink:href="#IPAexGothic-32"/>
       <use xlink:href="#IPAexGothic-30" x="62.988281"/>
       <use xlink:href="#IPAexGothic-32" x="125.976562"/>
       <use xlink:href="#IPAexGothic-31" x="188.964844"/>
       <use xlink:href="#IPAexGothic-2d" x="251.953125"/>
       <use xlink:href="#IPAexGothic-30" x="287.744141"/>
       <use xlink:href="#IPAexGothic-37" x="350.732422"/>
      </g>
     </g>
    </g>
    <g id="xtick_5">
     <g id="line2d_9">
      <path d="M 416.018869 324.92 
L 416.018869 15.12 
" clip-path="url(#p0b622f327b)" style="fill: none; stroke: #b0b0b0; stroke-width: 0.8; stroke-linecap: square"/>
     </g>
     <g id="line2d_10">
      <g>
       <use xlink:href="#mf94d9455e3" x="416.018869" y="324.92" style="stroke: #000000; stroke-width: 0.8"/>
      </g>
     </g>
     <g id="text_5">
      <!-- 2022-01 -->
      <g transform="translate(387.05965 342.406875) scale(0.14 -0.14)">
       <use xlink:href="#IPAexGothic-32"/>
       <use xlink:href="#IPAexGothic-30" x="62.988281"/>
       <use xlink:href="#IPAexGothic-32" x="125.976562"/>
       <use xlink:href="#IPAexGothic-32" x="188.964844"/>
       <use xlink:href="#IPAexGothic-2d" x="251.953125"/>
       <use xlink:href="#IPAexGothic-30" x="287.744141"/>
       <use xlink:href="#IPAexGothic-31" x="350.732422"/>
      </g>
     </g>
    </g>
    <g id="xtick_6">
     <g id="line2d_11">
      <path d="M 489.71001 324.92 
L 489.71001 15.12 
" clip-path="url(#p0b622f327b)" style="fill: none; stroke: #b0b0b0; stroke-width: 0.8; stroke-linecap: square"/>
     </g>
     <g id="line2d_12">
      <g>
       <use xlink:href="#mf94d9455e3" x="489.71001" y="324.92" style="stroke: #000000; stroke-width: 0.8"/>
      </g>
     </g>
     <g id="text_6">
      <!-- 2022-07 -->
      <g transform="translate(460.750791 342.406875) scale(0.14 -0.14)">
       <use xlink:href="#IPAexGothic-32"/>
       <use xlink:href="#IPAexGothic-30" x="62.988281"/>
       <use xlink:href="#IPAexGothic-32" x="125.976562"/>
       <use xlink:href="#IPAexGothic-32" x="188.964844"/>
       <use xlink:href="#IPAexGothic-2d" x="251.953125"/>
       <use xlink:href="#IPAexGothic-30" x="287.744141"/>
       <use xlink:href="#IPAexGothic-37" x="350.732422"/>
      </g>
     </g>
    </g>
    <g id="xtick_7">
     <g id="line2d_13">
      <path d="M 564.622551 324.92 
L 564.622551 15.12 
" clip-path="url(#p0b622f327b)" style="fill: none; stroke: #b0b0b0; stroke-width: 0.8; stroke-linecap: square"/>
     </g>
     <g id="line2d_14">
      <g>
       <use xlink:href="#mf94d9455e3" x="564.622551" y="324.92" style="stroke: #000000; stroke-width: 0.8"/>
      </g>
     </g>
     <g id="text_7">
      <!-- 2023-01 -->
      <g transform="translate(535.663333 342.406875) scale(0.14 -0.14)">
       <defs>
        <path id="IPAexGothic-33" d="M 2381 2419 
Q 3506 2216 3506 1278 
Q 3506 716 3128 356 
Q 2709 -31 1944 -31 
Q 797 -31 288 881 
L 756 1131 
Q 1109 441 1938 441 
Q 2425 441 2694 691 
Q 2950 928 2950 1291 
Q 2950 1719 2566 1978 
Q 2216 2213 1644 2213 
L 1363 2213 
L 1363 2669 
L 1656 2669 
Q 2231 2669 2534 2888 
Q 2859 3119 2859 3509 
Q 2859 3934 2494 4138 
Q 2259 4278 1931 4278 
Q 1238 4278 903 3578 
L 434 3803 
Q 897 4725 1938 4725 
Q 2597 4725 3006 4394 
Q 3416 4069 3416 3534 
Q 3416 3028 3019 2706 
Q 2763 2500 2381 2444 
L 2381 2419 
z
" transform="scale(0.015625)"/>
       </defs>
       <use xlink:href="#IPAexGothic-32"/>
       <use xlink:href="#IPAexGothic-30" x="62.988281"/>
       <use xlink:href="#IPAexGothic-32" x="125.976562"/>
       <use xlink:href="#IPAexGothic-33" x="188.964844"/>
       <use xlink:href="#IPAexGothic-2d" x="251.953125"/>
       <use xlink:href="#IPAexGothic-30" x="287.744141"/>
       <use xlink:href="#IPAexGothic-31" x="350.732422"/>
      </g>
     </g>
    </g>
    <g id="xtick_8">
     <g id="line2d_15">
      <path d="M 638.313693 324.92 
L 638.313693 15.12 
" clip-path="url(#p0b622f327b)" style="fill: none; stroke: #b0b0b0; stroke-width: 0.8; stroke-linecap: square"/>
     </g>
     <g id="line2d_16">
      <g>
       <use xlink:href="#mf94d9455e3" x="638.313693" y="324.92" style="stroke: #000000; stroke-width: 0.8"/>
      </g>
     </g>
     <g id="text_8">
      <!-- 2023-07 -->
      <g transform="translate(609.354474 342.406875) scale(0.14 -0.14)">
       <use xlink:href="#IPAexGothic-32"/>
       <use xlink:href="#IPAexGothic-30" x="62.988281"/>
       <use xlink:href="#IPAexGothic-32" x="125.976562"/>
       <use xlink:href="#IPAexGothic-33" x="188.964844"/>
       <use xlink:href="#IPAexGothic-2d" x="251.953125"/>
       <use xlink:href="#IPAexGothic-30" x="287.744141"/>
       <use xlink:href="#IPAexGothic-37" x="350.732422"/>
      </g>
     </g>
    </g>
   </g>
   <g id="matplotlib.axis_2">
    <g id="ytick_1">
     <g id="line2d_17">
      <path d="M 91.33 310.838182 
L 704.88 310.838182 
" clip-path="url(#p0b622f327b)" style="fill: none; stroke: #b0b0b0; stroke-width: 0.8; stroke-linecap: square"/>
     </g>
     <g id="line2d_18">
      <defs>
       <path id="m802ceb034b" d="M 0 0 
L -3.5 0 
" style="stroke: #000000; stroke-width: 0.8"/>
      </defs>
      <g>
       <use xlink:href="#m802ceb034b" x="91.33" y="310.838182" style="stroke: #000000; stroke-width: 0.8"/>
      </g>
     </g>
     <g id="text_9">
      <!-- 0 -->
      <g transform="translate(75.512187 316.081619) scale(0.14 -0.14)">
       <use xlink:href="#IPAexGothic-30"/>
      </g>
     </g>
    </g>
    <g id="ytick_2">
     <g id="line2d_19">
      <path d="M 91.33 270.408308 
L 704.88 270.408308 
" clip-path="url(#p0b622f327b)" style="fill: none; stroke: #b0b0b0; stroke-width: 0.8; stroke-linecap: square"/>
     </g>
     <g id="line2d_20">
      <g>
       <use xlink:href="#m802ceb034b" x="91.33" y="270.408308" style="stroke: #000000; stroke-width: 0.8"/>
      </g>
     </g>
     <g id="text_10">
      <!-- 1,000,000 -->
      <g transform="translate(15.207187 275.651745) scale(0.14 -0.14)">
       <defs>
        <path id="IPAexGothic-2c" d="M 1150 728 
Q 1028 -159 563 -1006 
L 153 -897 
Q 494 -100 569 728 
L 1150 728 
z
" transform="scale(0.015625)"/>
       </defs>
       <use xlink:href="#IPAexGothic-31"/>
       <use xlink:href="#IPAexGothic-2c" x="62.988281"/>
       <use xlink:href="#IPAexGothic-30" x="89.404297"/>
       <use xlink:href="#IPAexGothic-30" x="152.392578"/>
       <use xlink:href="#IPAexGothic-30" x="215.380859"/>
       <use xlink:href="#IPAexGothic-2c" x="278.369141"/>
       <use xlink:href="#IPAexGothic-30" x="304.785156"/>
       <use xlink:href="#IPAexGothic-30" x="367.773438"/>
       <use xlink:href="#IPAexGothic-30" x="430.761719"/>
      </g>
     </g>
    </g>
    <g id="ytick_3">
     <g id="line2d_21">
      <path d="M 91.33 229.978433 
L 704.88 229.978433 
" clip-path="url(#p0b622f327b)" style="fill: none; stroke: #b0b0b0; stroke-width: 0.8; stroke-linecap: square"/>
     </g>
     <g id="line2d_22">
      <g>
       <use xlink:href="#m802ceb034b" x="91.33" y="229.978433" style="stroke: #000000; stroke-width: 0.8"/>
      </g>
     </g>
     <g id="text_11">
      <!-- 2,000,000 -->
      <g transform="translate(15.207187 235.221871) scale(0.14 -0.14)">
       <use xlink:href="#IPAexGothic-32"/>
       <use xlink:href="#IPAexGothic-2c" x="62.988281"/>
       <use xlink:href="#IPAexGothic-30" x="89.404297"/>
       <use xlink:href="#IPAexGothic-30" x="152.392578"/>
       <use xlink:href="#IPAexGothic-30" x="215.380859"/>
       <use xlink:href="#IPAexGothic-2c" x="278.369141"/>
       <use xlink:href="#IPAexGothic-30" x="304.785156"/>
       <use xlink:href="#IPAexGothic-30" x="367.773438"/>
       <use xlink:href="#IPAexGothic-30" x="430.761719"/>
      </g>
     </g>
    </g>
    <g id="ytick_4">
     <g id="line2d_23">
      <path d="M 91.33 189.548559 
L 704.88 189.548559 
" clip-path="url(#p0b622f327b)" style="fill: none; stroke: #b0b0b0; stroke-width: 0.8; stroke-linecap: square"/>
     </g>
     <g id="line2d_24">
      <g>
       <use xlink:href="#m802ceb034b" x="91.33" y="189.548559" style="stroke: #000000; stroke-width: 0.8"/>
      </g>
     </g>
     <g id="text_12">
      <!-- 3,000,000 -->
      <g transform="translate(15.207187 194.791997) scale(0.14 -0.14)">
       <use xlink:href="#IPAexGothic-33"/>
       <use xlink:href="#IPAexGothic-2c" x="62.988281"/>
       <use xlink:href="#IPAexGothic-30" x="89.404297"/>
       <use xlink:href="#IPAexGothic-30" x="152.392578"/>
       <use xlink:href="#IPAexGothic-30" x="215.380859"/>
       <use xlink:href="#IPAexGothic-2c" x="278.369141"/>
       <use xlink:href="#IPAexGothic-30" x="304.785156"/>
       <use xlink:href="#IPAexGothic-30" x="367.773438"/>
       <use xlink:href="#IPAexGothic-30" x="430.761719"/>
      </g>
     </g>
    </g>
    <g id="ytick_5">
     <g id="line2d_25">
      <path d="M 91.33 149.118685 
L 704.88 149.118685 
" clip-path="url(#p0b622f327b)" style="fill: none; stroke: #b0b0b0; stroke-width: 0.8; stroke-linecap: square"/>
     </g>
     <g id="line2d_26">
      <g>
       <use xlink:href="#m802ceb034b" x="91.33" y="149.118685" style="stroke: #000000; stroke-width: 0.8"/>
      </g>
     </g>
     <g id="text_13">
      <!-- 4,000,000 -->
      <g transform="translate(15.207187 154.362122) scale(0.14 -0.14)">
       <defs>
        <path id="IPAexGothic-34" d="M 3813 1159 
L 3059 1159 
L 3059 63 
L 2547 63 
L 2547 1159 
L 197 1159 
L 197 1672 
L 2456 4678 
L 3059 4678 
L 3059 1634 
L 3813 1634 
L 3813 1159 
z
M 2578 4109 
L 2559 4109 
Q 2278 3656 2003 3284 
L 759 1634 
L 2547 1634 
L 2547 3144 
Q 2547 3481 2578 4109 
z
" transform="scale(0.015625)"/>
       </defs>
       <use xlink:href="#IPAexGothic-34"/>
       <use xlink:href="#IPAexGothic-2c" x="62.988281"/>
       <use xlink:href="#IPAexGothic-30" x="89.404297"/>
       <use xlink:href="#IPAexGothic-30" x="152.392578"/>
       <use xlink:href="#IPAexGothic-30" x="215.380859"/>
       <use xlink:href="#IPAexGothic-2c" x="278.369141"/>
       <use xlink:href="#IPAexGothic-30" x="304.785156"/>
       <use xlink:href="#IPAexGothic-30" x="367.773438"/>
       <use xlink:href="#IPAexGothic-30" x="430.761719"/>
      </g>
     </g>
    </g>
    <g id="ytick_6">
     <g id="line2d_27">
      <path d="M 91.33 108.688811 
L 704.88 108.688811 
" clip-path="url(#p0b622f327b)" style="fill: none; stroke: #b0b0b0; stroke-width: 0.8; stroke-linecap: square"/>
     </g>
     <g id="line2d_28">
      <g>
       <use xlink:href="#m802ceb034b" x="91.33" y="108.688811" style="stroke: #000000; stroke-width: 0.8"/>
      </g>
     </g>
     <g id="text_14">
      <!-- 5,000,000 -->
      <g transform="translate(15.207187 113.932248) scale(0.14 -0.14)">
       <defs>
        <path id="IPAexGothic-35" d="M 1178 2603 
Q 1634 2963 2172 2963 
Q 2816 2963 3241 2528 
Q 3638 2113 3638 1497 
Q 3638 938 3297 513 
Q 2869 -31 2031 -31 
Q 959 -31 469 784 
L 938 1028 
Q 1309 434 2013 434 
Q 2466 434 2769 716 
Q 3081 1013 3081 1503 
Q 3081 1966 2806 2241 
Q 2519 2528 2056 2528 
Q 1406 2528 1072 2028 
L 591 2091 
L 884 4634 
L 3406 4634 
L 3406 4153 
L 1341 4153 
L 1134 2603 
L 1178 2603 
z
" transform="scale(0.015625)"/>
       </defs>
       <use xlink:href="#IPAexGothic-35"/>
       <use xlink:href="#IPAexGothic-2c" x="62.988281"/>
       <use xlink:href="#IPAexGothic-30" x="89.404297"/>
       <use xlink:href="#IPAexGothic-30" x="152.392578"/>
       <use xlink:href="#IPAexGothic-30" x="215.380859"/>
       <use xlink:href="#IPAexGothic-2c" x="278.369141"/>
       <use xlink:href="#IPAexGothic-30" x="304.785156"/>
       <use xlink:href="#IPAexGothic-30" x="367.773438"/>
       <use xlink:href="#IPAexGothic-30" x="430.761719"/>
      </g>
     </g>
    </g>
    <g id="ytick_7">
     <g id="line2d_29">
      <path d="M 91.33 68.258936 
L 704.88 68.258936 
" clip-path="url(#p0b622f327b)" style="fill: none; stroke: #b0b0b0; stroke-width: 0.8; stroke-linecap: square"/>
     </g>
     <g id="line2d_30">
      <g>
       <use xlink:href="#m802ceb034b" x="91.33" y="68.258936" style="stroke: #000000; stroke-width: 0.8"/>
      </g>
     </g>
     <g id="text_15">
      <!-- 6,000,000 -->
      <g transform="translate(15.207187 73.502374) scale(0.14 -0.14)">
       <defs>
        <path id="IPAexGothic-36" d="M 1056 2328 
Q 1509 2981 2234 2981 
Q 2906 2981 3316 2513 
Q 3675 2106 3675 1522 
Q 3675 884 3272 434 
Q 2853 -31 2178 -31 
Q 1375 -31 922 581 
Q 481 1178 481 2228 
Q 481 3425 1013 4109 
Q 1494 4725 2272 4725 
Q 3191 4725 3609 4025 
L 3150 3775 
Q 2894 4266 2300 4266 
Q 1119 4266 1031 2328 
L 1056 2328 
z
M 2141 2547 
Q 1684 2547 1384 2206 
Q 1116 1900 1116 1541 
Q 1116 1156 1353 844 
Q 1672 428 2159 428 
Q 2669 428 2941 844 
Q 3125 1128 3125 1503 
Q 3125 1944 2881 2228 
Q 2600 2547 2141 2547 
z
" transform="scale(0.015625)"/>
       </defs>
       <use xlink:href="#IPAexGothic-36"/>
       <use xlink:href="#IPAexGothic-2c" x="62.988281"/>
       <use xlink:href="#IPAexGothic-30" x="89.404297"/>
       <use xlink:href="#IPAexGothic-30" x="152.392578"/>
       <use xlink:href="#IPAexGothic-30" x="215.380859"/>
       <use xlink:href="#IPAexGothic-2c" x="278.369141"/>
       <use xlink:href="#IPAexGothic-30" x="304.785156"/>
       <use xlink:href="#IPAexGothic-30" x="367.773438"/>
       <use xlink:href="#IPAexGothic-30" x="430.761719"/>
      </g>
     </g>
    </g>
    <g id="ytick_8">
     <g id="line2d_31">
      <path d="M 91.33 27.829062 
L 704.88 27.829062 
" clip-path="url(#p0b622f327b)" style="fill: none; stroke: #b0b0b0; stroke-width: 0.8; stroke-linecap: square"/>
     </g>
     <g id="line2d_32">
      <g>
       <use xlink:href="#m802ceb034b" x="91.33" y="27.829062" style="stroke: #000000; stroke-width: 0.8"/>
      </g>
     </g>
     <g id="text_16">
      <!-- 7,000,000 -->
      <g transform="translate(15.207187 33.0725) scale(0.14 -0.14)">
       <use xlink:href="#IPAexGothic-37"/>
       <use xlink:href="#IPAexGothic-2c" x="62.988281"/>
       <use xlink:href="#IPAexGothic-30" x="89.404297"/>
       <use xlink:href="#IPAexGothic-30" x="152.392578"/>
       <use xlink:href="#IPAexGothic-30" x="215.380859"/>
       <use xlink:href="#IPAexGothic-2c" x="278.369141"/>
       <use xlink:href="#IPAexGothic-30" x="304.785156"/>
       <use xlink:href="#IPAexGothic-30" x="367.773438"/>
       <use xlink:href="#IPAexGothic-30" x="430.761719"/>
      </g>
     </g>
    </g>
   </g>
   <g id="line2d_33">
    <path d="M 119.218636 310.838182 
L 258.458251 310.727687 
L 262.936719 310.731326 
L 264.158119 310.715841 
L 265.379519 310.685963 
L 266.600919 310.697648 
L 267.008052 310.688268 
L 267.415186 310.526548 
L 267.822319 310.719237 
L 269.043719 310.662029 
L 270.265119 310.520605 
L 285.329054 310.785219 
L 286.957588 310.775152 
L 292.657455 310.790475 
L 306.907123 310.70351 
L 310.978457 310.667446 
L 311.792724 310.669225 
L 313.421257 310.630291 
L 315.049791 310.61885 
L 317.085458 310.645574 
L 349.248995 310.639954 
L 352.913195 310.391957 
L 353.320328 310.350274 
L 354.134595 310.479286 
L 355.355995 310.222394 
L 356.577395 310.251342 
L 357.391662 310.398871 
L 358.613062 310.009774 
L 359.020196 310.025016 
L 359.427329 310.184673 
L 359.834463 310.215602 
L 361.055863 309.814174 
L 362.277263 309.911772 
L 362.684396 310.110727 
L 363.905796 309.784984 
L 364.31293 309.925275 
L 364.720063 309.911246 
L 365.941463 310.157909 
L 366.348597 309.986324 
L 366.75573 310.132438 
L 367.97713 310.257043 
L 368.384263 310.468451 
L 369.605664 310.40441 
L 371.234197 310.640156 
L 372.455597 310.594794 
L 374.898397 310.723159 
L 376.119798 310.737592 
L 385.890999 310.824153 
L 389.555199 310.827225 
L 389.962332 310.662595 
L 390.369466 310.826578 
L 416.833135 310.806525 
L 418.054536 310.668619 
L 419.275936 310.508921 
L 420.090202 310.562086 
L 421.311603 309.979411 
L 422.940136 309.630865 
L 423.347269 309.227415 
L 424.56867 308.647691 
L 424.975803 308.880931 
L 425.382936 308.930862 
L 425.79007 308.374668 
L 426.197203 308.018764 
L 427.825737 307.399944 
L 428.23287 308.364278 
L 429.047137 307.062517 
L 429.45427 306.672368 
L 429.861403 306.823536 
L 430.268537 306.756826 
L 430.67567 307.083662 
L 431.082804 307.939036 
L 431.489937 306.959138 
L 432.304204 306.791273 
L 432.711337 306.86906 
L 433.11847 308.108923 
L 433.525604 307.594331 
L 433.932737 308.26761 
L 434.339871 307.607997 
L 434.747004 307.178389 
L 435.154137 306.972965 
L 435.561271 307.08067 
L 435.968404 307.718896 
L 436.375537 307.892421 
L 436.782671 308.578031 
L 437.596938 307.692333 
L 438.004071 308.183678 
L 438.411204 308.202316 
L 438.818338 308.021796 
L 439.225471 308.037726 
L 439.632605 308.765261 
L 440.446871 307.944616 
L 440.854005 307.969359 
L 441.261138 308.237207 
L 441.668271 308.270076 
L 442.075405 308.597679 
L 442.482538 309.19774 
L 442.889672 308.840299 
L 443.296805 308.301329 
L 443.703938 308.298175 
L 444.111072 308.575322 
L 444.925338 308.735747 
L 445.332472 309.388933 
L 446.146739 308.496403 
L 446.553872 308.608596 
L 447.368139 308.989202 
L 447.775272 309.134022 
L 448.182405 309.718234 
L 448.589539 309.972174 
L 449.403806 308.854571 
L 450.218072 308.936078 
L 450.625206 309.076854 
L 451.032339 309.507392 
L 451.846606 308.7049 
L 452.253739 308.895648 
L 452.660873 308.673405 
L 453.068006 308.922736 
L 453.475139 308.887643 
L 453.882273 309.470277 
L 454.696539 308.649228 
L 455.103673 308.61276 
L 455.510806 308.731624 
L 455.91794 308.729279 
L 456.325073 308.902561 
L 456.732206 309.498498 
L 457.13934 308.762876 
L 457.546473 308.545646 
L 457.953607 310.838182 
L 458.36074 306.527993 
L 458.767873 308.937614 
L 459.175007 309.22507 
L 459.58214 309.694744 
L 460.396407 308.91938 
L 460.80354 308.921442 
L 461.210674 309.10746 
L 461.617807 309.070547 
L 462.02494 309.283653 
L 462.432074 309.686133 
L 463.24634 308.987666 
L 464.060607 309.322991 
L 464.467741 309.820077 
L 466.096274 309.757896 
L 466.503407 309.974276 
L 466.910541 309.88343 
L 467.317674 309.435427 
L 467.724808 309.182902 
L 468.131941 309.477151 
L 468.946208 308.988919 
L 469.760474 309.284098 
L 470.167608 309.244598 
L 470.574741 309.429403 
L 470.981875 309.773502 
L 471.796141 309.15925 
L 472.203275 309.269018 
L 472.610408 309.261376 
L 473.424675 309.574263 
L 473.831808 309.911691 
L 474.646075 309.428433 
L 476.681742 310.082709 
L 477.903142 309.990731 
L 478.310275 310.059058 
L 478.717409 310.838182 
L 479.124542 309.51382 
L 479.531676 310.379262 
L 480.345942 310.099326 
L 482.788743 310.270951 
L 483.195876 310.168865 
L 483.603009 310.199309 
L 484.010143 310.478154 
L 484.824409 310.04422 
L 485.231543 310.425514 
L 486.04581 310.144405 
L 487.674343 310.281422 
L 488.081476 310.353508 
L 488.48861 310.122209 
L 488.895743 310.838182 
L 489.302877 308.96074 
L 489.71001 309.903241 
L 490.117143 309.895074 
L 490.524277 310.838182 
L 490.93141 309.942498 
L 491.338543 309.998292 
L 492.15281 309.025104 
L 493.37421 308.746421 
L 493.781344 308.779573 
L 494.188477 308.977073 
L 495.002744 307.098135 
L 496.224144 306.599837 
L 496.631277 306.649566 
L 497.038411 307.61863 
L 497.445544 307.548726 
L 498.259811 303.527409 
L 498.666944 302.901919 
L 499.074078 303.071239 
L 499.888344 304.611536 
L 501.109745 301.537087 
L 501.924011 302.228236 
L 502.331145 302.881097 
L 502.738278 304.058981 
L 503.959678 300.593575 
L 504.366812 301.264024 
L 505.588212 303.843894 
L 505.995345 302.884332 
L 506.402478 301.627124 
L 506.809612 301.126724 
L 507.216745 303.060929 
L 507.623879 304.10212 
L 508.031012 303.966235 
L 508.438145 304.378256 
L 508.845279 303.630101 
L 509.252412 302.40924 
L 509.659545 300.275796 
L 510.066679 300.495816 
L 510.473812 301.022213 
L 510.880946 302.029523 
L 511.288079 303.338561 
L 511.695212 302.98577 
L 512.102346 301.239725 
L 512.509479 301.654981 
L 512.916612 302.888537 
L 513.323746 310.838182 
L 513.730879 297.654404 
L 514.138013 305.747778 
L 514.545146 305.194899 
L 514.952279 304.072647 
L 515.766546 305.362966 
L 516.173679 306.102631 
L 516.580813 306.592641 
L 516.987946 307.430146 
L 517.39508 306.765721 
L 517.802213 305.724328 
L 518.209346 305.959913 
L 518.61648 310.838182 
L 519.023613 310.838182 
L 519.430747 299.736179 
L 519.83788 308.222612 
L 520.245013 307.65631 
L 520.652147 306.81355 
L 521.05928 307.26503 
L 521.466413 310.838182 
L 521.873547 310.838182 
L 522.28068 302.301212 
L 522.687814 309.167215 
L 523.094947 308.47263 
L 523.50208 309.161231 
L 523.909214 307.682307 
L 524.316347 308.248527 
L 524.72348 309.183872 
L 525.130614 309.070183 
L 525.537747 308.785112 
L 525.944881 310.838182 
L 526.352014 308.059922 
L 526.759147 309.133133 
L 527.166281 307.924643 
L 527.573414 309.645824 
L 527.980547 310.838182 
L 528.387681 310.224982 
L 528.794814 309.232186 
L 529.201948 309.172754 
L 529.609081 309.486207 
L 530.016214 308.564891 
L 530.423348 309.916542 
L 530.830481 310.838182 
L 531.644748 308.99842 
L 532.051881 308.990941 
L 532.459015 309.358246 
L 532.866148 309.417557 
L 533.273281 309.638951 
L 533.680415 310.216694 
L 534.087548 309.139885 
L 534.494681 309.077259 
L 535.308948 309.560881 
L 535.716082 309.456572 
L 536.123215 309.58999 
L 536.530348 310.156858 
L 536.937482 308.909556 
L 537.344615 308.804802 
L 537.751749 309.11033 
L 538.158882 309.248722 
L 538.566015 309.040548 
L 538.973149 309.196284 
L 539.380282 309.934938 
L 539.787415 308.19892 
L 540.194549 307.928525 
L 540.601682 308.110257 
L 541.008816 309.460979 
L 541.415949 307.839498 
L 541.823082 308.153759 
L 542.230216 309.559708 
L 542.637349 307.454848 
L 543.044482 310.838182 
L 543.451616 307.304207 
L 543.858749 307.661324 
L 544.265883 304.629002 
L 544.673016 308.052806 
L 545.080149 309.319838 
L 545.487283 306.680818 
L 545.894416 306.483804 
L 546.301549 307.078001 
L 546.708683 310.838182 
L 547.115816 303.792791 
L 547.52295 307.695891 
L 547.930083 309.122985 
L 548.337216 305.936626 
L 548.74435 305.446413 
L 549.558616 310.838182 
L 549.96575 301.006971 
L 550.372883 306.85681 
L 550.780017 308.852388 
L 551.18715 305.376268 
L 551.594283 305.242849 
L 552.001417 306.05933 
L 552.40855 306.393807 
L 552.815683 306.407431 
L 553.222817 307.21704 
L 553.62995 308.912871 
L 554.037084 305.28809 
L 554.444217 304.798646 
L 554.85135 305.458381 
L 555.258484 305.699949 
L 555.665617 305.349382 
L 556.07275 306.019992 
L 556.479884 308.317945 
L 556.887017 303.682337 
L 557.294151 303.131965 
L 557.701284 304.026112 
L 558.108417 304.628072 
L 558.515551 304.434777 
L 558.922684 305.330137 
L 559.329818 307.970855 
L 559.736951 303.274965 
L 560.144084 302.471502 
L 560.551218 303.383924 
L 560.958351 303.830229 
L 561.365484 303.656947 
L 561.772618 304.787245 
L 562.179751 310.838182 
L 562.586885 299.45317 
L 562.994018 302.096475 
L 563.401151 310.838182 
L 563.808285 303.073099 
L 564.622551 306.493385 
L 565.029685 307.323855 
L 565.436818 307.754838 
L 566.251085 306.621184 
L 566.658218 301.664482 
L 567.065352 300.91095 
L 567.472485 301.189431 
L 567.879618 303.134754 
L 568.286752 306.984891 
L 568.693885 307.644949 
L 569.101019 302.797771 
L 569.508152 303.339572 
L 569.915285 305.013167 
L 570.322419 305.498568 
L 570.729552 306.460395 
L 571.136685 308.639686 
L 571.543819 305.711714 
L 571.950952 305.780081 
L 572.358086 306.941065 
L 572.765219 307.498108 
L 573.172352 307.646082 
L 573.579486 308.232476 
L 573.986619 309.52134 
L 574.393752 307.045819 
L 574.800886 307.62991 
L 575.208019 308.417039 
L 575.615153 308.658567 
L 576.022286 308.623352 
L 576.429419 309.029794 
L 576.836553 309.971931 
L 577.243686 308.933207 
L 577.65082 308.592828 
L 578.057953 309.006749 
L 578.465086 309.22406 
L 578.87222 309.278357 
L 579.279353 309.525869 
L 579.686486 310.206991 
L 580.09362 309.028743 
L 580.500753 309.156946 
L 580.907887 309.505249 
L 581.31502 309.681281 
L 581.722153 309.731576 
L 582.129287 310.282675 
L 582.53642 310.457211 
L 582.943553 309.541596 
L 583.350687 309.674933 
L 583.75782 309.975125 
L 584.97922 310.262501 
L 585.386354 310.554364 
L 585.793487 310.053438 
L 586.607754 310.223931 
L 587.014887 310.574902 
L 587.422021 310.23796 
L 587.829154 310.336892 
L 588.236287 310.611855 
L 588.643421 310.250978 
L 590.271954 310.416458 
L 591.086221 310.659684 
L 591.493354 310.352457 
L 593.121888 310.47027 
L 593.936155 310.698941 
L 594.343288 310.433438 
L 594.750421 310.451996 
L 595.157555 310.838182 
L 595.564688 310.241033 
L 595.971821 310.552504 
L 596.786088 310.732862 
L 597.193222 310.487129 
L 597.600355 310.657865 
L 598.007488 310.495134 
L 599.228889 310.582503 
L 599.636022 310.721461 
L 600.043155 310.496752 
L 600.450289 310.501522 
L 600.857422 310.838182 
L 601.264555 310.838182 
L 601.671689 309.972376 
L 602.078822 310.583878 
L 602.485956 310.7082 
L 602.893089 310.449408 
L 604.928756 310.551979 
L 605.335889 310.696354 
L 605.743023 310.436309 
L 607.371556 310.490647 
L 608.185823 310.696718 
L 608.592956 310.36871 
L 609.407223 310.41193 
L 610.628623 310.486684 
L 611.035756 310.672621 
L 611.44289 310.330746 
L 612.257157 310.362565 
L 613.071423 310.310693 
L 613.478557 310.566412 
L 613.88569 310.634981 
L 614.292823 310.14206 
L 614.699957 310.165793 
L 615.10709 310.541305 
L 615.921357 310.586344 
L 616.32849 310.254536 
L 616.735624 310.46178 
L 617.142757 310.838182 
L 676.991364 310.838182 
L 676.991364 310.838182 
" clip-path="url(#p0b622f327b)" style="fill: none; stroke: #1f77b4; stroke-width: 1.5; stroke-linecap: square"/>
   </g>
   <g id="line2d_34">
    <path d="M 119.218636 310.838182 
L 149.75364 310.742403 
L 151.789307 310.469866 
L 154.63924 310.002375 
L 155.046374 309.780496 
L 155.453507 310.210063 
L 156.267774 309.678896 
L 157.489174 309.539008 
L 157.896307 309.747222 
L 159.931974 309.496759 
L 160.339107 309.563226 
L 161.153374 309.81757 
L 161.967641 309.819026 
L 162.374774 309.564883 
L 164.410441 309.789956 
L 165.224708 309.495465 
L 166.038975 309.479617 
L 166.446108 309.784458 
L 167.260375 309.870493 
L 168.481775 309.500681 
L 169.296042 309.789956 
L 169.703175 309.935625 
L 170.517442 309.809646 
L 171.331709 309.672467 
L 172.553109 310.031606 
L 172.960242 309.871827 
L 173.367376 310.13729 
L 173.774509 309.43757 
L 174.181642 309.761615 
L 174.588776 309.78373 
L 174.995909 310.03294 
L 175.403042 309.918645 
L 176.217309 309.887837 
L 176.624443 309.779283 
L 177.031576 309.788501 
L 177.438709 309.970355 
L 179.067243 310.049476 
L 179.474376 309.860507 
L 180.695776 309.970314 
L 181.10291 310.144526 
L 181.510043 309.990206 
L 182.32431 309.99441 
L 182.731443 309.848014 
L 183.138577 309.896772 
L 183.54571 310.092048 
L 184.359977 310.086954 
L 185.581377 309.692682 
L 185.98851 309.769459 
L 186.395644 309.99813 
L 186.802777 310.00569 
L 187.20991 309.836451 
L 188.024177 309.685122 
L 188.431311 309.499751 
L 188.838444 309.485115 
L 189.245577 309.732627 
L 189.652711 309.677925 
L 190.059844 309.306415 
L 190.466977 309.329339 
L 190.874111 308.937129 
L 191.688378 309.073297 
L 192.095511 309.318706 
L 192.502644 309.280944 
L 193.316911 308.438992 
L 193.724044 308.596264 
L 194.131178 308.397592 
L 194.945445 309.204289 
L 195.352578 308.78584 
L 196.166845 308.219337 
L 196.573978 308.333834 
L 196.981111 308.065541 
L 197.388245 308.078358 
L 197.795378 308.465757 
L 198.202512 308.562505 
L 199.016778 307.911504 
L 199.423912 308.041203 
L 199.831045 307.727022 
L 200.645312 308.411904 
L 201.052445 308.472266 
L 201.459579 308.277515 
L 201.866712 307.910412 
L 202.680979 307.880656 
L 203.088112 308.347863 
L 203.902379 308.654686 
L 205.123779 308.16411 
L 205.530912 308.081511 
L 205.938046 308.557452 
L 206.752313 309.005536 
L 207.566579 308.590604 
L 207.973713 308.688728 
L 208.380846 308.311072 
L 208.787979 308.748806 
L 209.602246 309.084455 
L 210.00938 308.454517 
L 210.823646 308.755154 
L 211.23078 308.563557 
L 211.637913 308.770719 
L 212.045046 309.160544 
L 212.859313 309.155288 
L 213.266447 308.955201 
L 214.080713 308.93066 
L 215.302113 309.394188 
L 216.11638 308.961023 
L 216.930647 308.956333 
L 217.744914 309.357033 
L 219.373447 309.007841 
L 219.780581 308.779614 
L 221.001981 309.832448 
L 221.409114 309.703962 
L 222.223381 309.278276 
L 222.630514 309.055952 
L 223.037648 309.205987 
L 223.444781 309.508524 
L 224.259048 309.349756 
L 224.666181 309.062906 
L 225.073315 309.03784 
L 225.480448 308.892413 
L 226.294715 309.445373 
L 227.108981 308.835771 
L 227.516115 309.154641 
L 228.330382 308.832254 
L 229.144648 309.400859 
L 231.180315 308.778886 
L 231.587449 308.908585 
L 231.994582 309.391843 
L 232.401715 309.156218 
L 232.808849 309.154116 
L 233.215982 308.711813 
L 234.030249 308.461148 
L 234.437382 308.646236 
L 234.844516 309.042166 
L 235.251649 308.851296 
L 235.658782 308.796594 
L 236.880182 308.045327 
L 237.287316 308.632813 
L 237.694449 308.861687 
L 238.101583 308.357324 
L 238.508716 308.463291 
L 239.322983 307.809863 
L 239.730116 307.509186 
L 240.13725 307.758194 
L 240.544383 308.185578 
L 241.35865 307.807518 
L 242.172916 307.153807 
L 242.58005 306.895541 
L 242.987183 307.086977 
L 243.394317 305.114039 
L 243.80145 307.313182 
L 245.429983 305.447384 
L 245.837117 305.58998 
L 246.24425 306.324267 
L 246.651384 305.805188 
L 247.058517 304.937401 
L 247.872784 304.276413 
L 248.279917 303.682539 
L 248.68705 304.19802 
L 249.094184 305.276487 
L 249.908451 304.072162 
L 250.315584 303.928555 
L 250.722717 303.209833 
L 251.129851 303.020297 
L 251.944117 304.782474 
L 252.351251 304.352785 
L 253.165518 302.990743 
L 253.572651 304.974678 
L 253.979784 304.206308 
L 254.386918 304.993033 
L 254.794051 305.134659 
L 255.201184 304.696682 
L 255.608318 303.046617 
L 256.015451 302.344916 
L 256.829718 301.789733 
L 257.236851 302.52681 
L 257.643985 303.685773 
L 258.051118 303.435836 
L 258.458251 301.661328 
L 258.865385 301.893032 
L 259.272518 302.395009 
L 259.679652 300.898942 
L 260.493918 303.509256 
L 260.901052 302.824819 
L 261.308185 302.806787 
L 261.715319 301.124258 
L 262.122452 300.872016 
L 262.529585 301.301785 
L 262.936719 302.659663 
L 263.343852 303.300881 
L 263.750985 303.417157 
L 264.158119 302.84281 
L 264.565252 301.692944 
L 264.972386 302.649111 
L 265.379519 304.315145 
L 265.786652 304.890179 
L 266.193786 304.598154 
L 266.600919 303.691231 
L 267.415186 301.30409 
L 267.822319 301.559849 
L 268.636586 301.728603 
L 269.043719 302.531541 
L 269.450853 303.790689 
L 269.857986 301.036323 
L 271.079386 299.028413 
L 271.893653 301.762322 
L 272.300786 302.585555 
L 272.70792 302.033526 
L 273.115053 301.685748 
L 273.522186 301.798749 
L 273.92932 301.243445 
L 275.15072 304.603693 
L 275.557853 304.764281 
L 275.964987 303.226611 
L 276.779253 303.179995 
L 277.59352 305.115171 
L 278.000654 305.356255 
L 278.81492 304.411247 
L 279.222054 304.497888 
L 279.629187 304.19806 
L 280.443454 306.312543 
L 280.850587 305.62099 
L 281.257721 305.932825 
L 281.664854 306.444708 
L 282.071987 305.880671 
L 282.479121 305.791442 
L 283.700521 307.57444 
L 284.514788 306.862348 
L 284.921921 306.813469 
L 285.329054 306.899059 
L 285.736188 307.392708 
L 286.143321 308.112683 
L 286.550455 308.490581 
L 286.957588 308.538894 
L 287.771855 308.065986 
L 288.178988 307.863513 
L 288.993255 308.548719 
L 289.400388 308.581346 
L 289.807522 308.001541 
L 290.621788 307.927312 
L 291.028922 307.875723 
L 291.436055 308.076902 
L 291.843188 308.712783 
L 292.250322 308.771649 
L 292.657455 308.664631 
L 293.064589 308.168072 
L 293.878855 308.246869 
L 294.285989 308.504974 
L 294.693122 309.069051 
L 295.100255 309.111705 
L 295.914522 308.341435 
L 296.321656 308.421931 
L 296.728789 308.241694 
L 297.135922 308.724751 
L 297.950189 309.078189 
L 298.764456 308.429046 
L 299.171589 308.287097 
L 299.985856 308.474813 
L 300.392989 309.009619 
L 300.800123 308.88833 
L 301.61439 308.088101 
L 302.021523 308.195402 
L 302.428656 307.812653 
L 303.242923 308.685048 
L 304.871457 307.859107 
L 305.27859 307.990059 
L 305.685723 308.263001 
L 306.092857 308.989647 
L 307.314257 307.821022 
L 308.128524 307.748733 
L 308.535657 308.084463 
L 308.94279 308.685736 
L 309.349924 308.394802 
L 309.757057 307.918902 
L 310.571324 307.947527 
L 310.978457 307.964669 
L 311.385591 307.71651 
L 311.792724 308.843493 
L 312.199857 309.411775 
L 312.606991 308.520822 
L 313.014124 308.289119 
L 313.828391 308.314589 
L 315.049791 309.61724 
L 315.456924 308.804034 
L 316.271191 308.588542 
L 316.678324 308.601965 
L 317.085458 308.883317 
L 317.492591 309.358731 
L 317.899725 309.505896 
L 318.306858 309.11781 
L 318.713991 309.037395 
L 319.121125 309.11215 
L 319.528258 309.033352 
L 320.749658 309.85238 
L 321.156792 309.501045 
L 321.971058 309.2034 
L 323.599592 310.051699 
L 324.006725 309.720741 
L 325.228125 309.711563 
L 326.042392 310.190091 
L 326.449526 310.241396 
L 326.856659 309.844779 
L 327.670926 309.949937 
L 328.078059 309.83633 
L 328.485192 310.206344 
L 329.299459 310.457818 
L 329.706593 310.476941 
L 330.113726 310.189363 
L 330.927993 310.08651 
L 332.149393 310.438007 
L 332.96366 310.044139 
L 333.777926 310.273336 
L 334.999326 310.503625 
L 335.40646 310.328119 
L 337.034993 310.338873 
L 337.84926 310.491779 
L 338.256393 310.30095 
L 339.884927 310.300707 
L 340.699194 310.416175 
L 341.106327 310.210953 
L 341.513461 310.367619 
L 341.920594 310.086752 
L 342.734861 310.304952 
L 343.549127 310.46837 
L 343.956261 310.031121 
L 344.363394 309.923011 
L 344.770528 303.417764 
L 345.177661 309.723166 
L 345.991928 310.162113 
L 346.399061 309.670082 
L 347.213328 309.289758 
L 348.027595 309.129696 
L 348.434728 309.538806 
L 348.841861 309.706428 
L 349.248995 309.010954 
L 349.656128 308.774641 
L 350.470395 307.939036 
L 350.877528 308.022686 
L 351.284662 308.663257 
L 351.691795 309.091369 
L 352.098928 307.957755 
L 352.506062 307.369096 
L 352.913195 307.233899 
L 353.320328 306.820787 
L 353.727462 306.612492 
L 354.541729 308.364359 
L 354.948862 306.697799 
L 355.355995 306.379454 
L 355.763129 305.71034 
L 356.170262 305.669061 
L 356.577395 305.423732 
L 356.984529 305.976409 
L 357.391662 306.924974 
L 357.798796 307.076182 
L 358.205929 305.362885 
L 359.020196 304.726762 
L 359.834463 305.184145 
L 360.241596 306.36211 
L 360.648729 306.433145 
L 361.055863 304.755588 
L 361.462996 304.039413 
L 361.870129 303.787939 
L 362.277263 304.067836 
L 362.684396 305.104255 
L 363.09153 305.805431 
L 363.498663 305.953242 
L 363.905796 304.271804 
L 364.31293 303.685975 
L 364.720063 303.307269 
L 365.127196 303.473031 
L 365.941463 306.161577 
L 366.348597 305.234601 
L 366.75573 303.69014 
L 367.162863 302.848147 
L 367.569997 303.422656 
L 367.97713 303.475417 
L 368.384263 305.106762 
L 368.791397 305.861992 
L 369.19853 306.148155 
L 369.605664 306.201846 
L 370.012797 303.91493 
L 370.41993 303.410648 
L 370.827064 303.880564 
L 371.234197 304.630458 
L 371.64133 306.235726 
L 372.048464 306.028199 
L 372.455597 304.282599 
L 372.862731 304.242937 
L 373.269864 304.072849 
L 373.676997 304.43037 
L 374.491264 307.011737 
L 374.898397 306.860772 
L 375.305531 305.461777 
L 375.712664 305.471925 
L 376.119798 305.248509 
L 376.526931 305.471884 
L 376.934064 306.950203 
L 377.341198 307.796319 
L 377.748331 306.499288 
L 378.155464 306.170472 
L 378.562598 306.116094 
L 378.969731 305.823179 
L 379.376865 305.959347 
L 379.783998 307.524226 
L 380.191131 308.143975 
L 380.598265 307.126072 
L 381.005398 306.722461 
L 381.412532 306.058441 
L 382.226798 306.4515 
L 382.633932 307.984277 
L 383.041065 308.475096 
L 383.448198 307.686228 
L 383.855332 307.214129 
L 384.262465 306.9443 
L 384.669599 306.921699 
L 385.076732 307.101774 
L 385.483865 308.291019 
L 385.890999 308.9119 
L 386.298132 307.914212 
L 386.705265 307.579736 
L 387.112399 307.743922 
L 387.519532 307.297697 
L 387.926666 307.568456 
L 388.333799 309.378097 
L 388.740932 309.703841 
L 389.148066 307.423475 
L 389.555199 306.722946 
L 389.962332 307.434027 
L 390.369466 306.669013 
L 390.776599 307.26224 
L 391.183733 309.425158 
L 391.590866 309.813406 
L 391.997999 306.073642 
L 392.405133 307.822396 
L 392.812266 307.653682 
L 393.219399 307.245987 
L 393.626533 307.205234 
L 394.033666 309.383232 
L 394.4408 309.56367 
L 394.847933 306.132508 
L 395.255066 307.487233 
L 395.6622 307.047922 
L 396.069333 307.860643 
L 396.476466 305.865348 
L 396.8836 308.037362 
L 397.290733 309.480021 
L 397.697867 305.437155 
L 398.105 306.919921 
L 398.512133 306.560297 
L 398.919267 305.830133 
L 399.3264 306.236373 
L 399.733534 308.970564 
L 400.140667 309.271484 
L 400.5478 304.960568 
L 400.954934 306.752096 
L 401.362067 306.530985 
L 401.7692 307.898 
L 402.176334 307.533161 
L 402.583467 308.743914 
L 402.990601 308.552398 
L 403.804867 305.9587 
L 404.619134 305.021576 
L 405.026267 304.710347 
L 405.433401 308.115149 
L 405.840534 308.601844 
L 406.247668 303.397346 
L 406.654801 305.762292 
L 407.061934 305.594104 
L 407.469068 305.281864 
L 407.876201 305.356982 
L 408.283334 308.252004 
L 408.690468 308.488842 
L 409.097601 303.331041 
L 409.504735 305.766578 
L 410.319001 304.261535 
L 410.726135 304.500273 
L 411.133268 307.297172 
L 411.540401 306.705723 
L 411.947535 300.077407 
L 412.354668 302.618061 
L 413.168935 299.565848 
L 413.576068 301.076389 
L 413.983202 306.155432 
L 414.390335 302.295996 
L 414.797468 292.058707 
L 415.204602 295.09018 
L 415.611735 291.661929 
L 416.018869 287.200977 
L 416.426002 291.756696 
L 416.833135 298.589668 
L 417.240269 295.035842 
L 417.647402 274.354627 
L 418.054536 281.222733 
L 418.461669 282.424471 
L 418.868802 278.557515 
L 419.275936 276.35348 
L 419.683069 292.695559 
L 420.090202 291.16739 
L 420.497336 259.673367 
L 420.904469 278.351201 
L 421.311603 276.235061 
L 421.718736 274.762484 
L 422.125869 274.5157 
L 422.533003 291.999599 
L 422.940136 293.908698 
L 423.347269 271.683264 
L 423.754403 276.218364 
L 424.161536 279.28404 
L 424.56867 279.444789 
L 424.975803 279.445193 
L 425.382936 297.554381 
L 425.79007 298.104914 
L 426.197203 269.957595 
L 426.604336 290.896874 
L 427.01147 288.794804 
L 427.418603 287.679141 
L 427.825737 289.680177 
L 428.23287 301.855796 
L 428.640003 304.44161 
L 429.047137 287.52951 
L 429.45427 298.852422 
L 429.861403 298.571556 
L 430.268537 296.685704 
L 430.67567 299.441405 
L 431.082804 306.602667 
L 431.489937 306.933545 
L 431.89707 298.492596 
L 432.304204 302.836261 
L 432.711337 302.897997 
L 433.11847 304.135313 
L 433.525604 304.559058 
L 433.932737 308.093479 
L 434.339871 308.901429 
L 434.747004 303.791538 
L 435.154137 306.468521 
L 435.561271 306.564178 
L 435.968404 306.77599 
L 436.375537 306.64148 
L 436.782671 309.188764 
L 437.189804 309.577821 
L 437.596938 308.88085 
L 438.004071 306.187857 
L 438.411204 307.860036 
L 439.225471 307.84063 
L 439.632605 309.80067 
L 440.039738 310.103611 
L 440.446871 307.755929 
L 441.261138 308.704131 
L 441.668271 308.751111 
L 442.075405 309.050534 
L 442.482538 310.260358 
L 442.889672 310.476698 
L 443.296805 308.52248 
L 443.703938 309.577902 
L 444.111072 308.97396 
L 444.518205 309.23724 
L 444.925338 309.344621 
L 445.332472 310.346595 
L 445.739605 310.469219 
L 446.146739 308.373213 
L 446.553872 309.847852 
L 446.961005 309.308801 
L 447.775272 309.584694 
L 448.182405 310.438694 
L 448.589539 310.432347 
L 448.996672 309.268371 
L 449.403806 309.836693 
L 449.810939 309.012369 
L 450.625206 309.677278 
L 451.032339 310.332364 
L 451.439472 310.443869 
L 451.846606 309.527162 
L 452.253739 309.864711 
L 452.660873 308.887885 
L 453.068006 309.21844 
L 453.882273 310.366082 
L 454.289406 310.411728 
L 454.696539 309.749405 
L 455.510806 309.129777 
L 455.91794 309.471409 
L 456.325073 309.115829 
L 456.732206 310.270021 
L 457.13934 310.138179 
L 457.546473 309.440481 
L 457.953607 309.674246 
L 458.767873 308.302905 
L 459.175007 309.044915 
L 459.58214 310.158273 
L 459.989273 310.079434 
L 460.80354 308.678499 
L 461.210674 308.517184 
L 461.617807 308.836539 
L 462.02494 308.056647 
L 462.432074 309.889778 
L 462.839207 309.98499 
L 463.24634 308.822429 
L 464.060607 307.719219 
L 464.467741 308.334966 
L 464.874874 307.57727 
L 465.282007 309.789471 
L 465.689141 309.755712 
L 466.096274 308.246627 
L 466.503407 307.904348 
L 466.910541 306.773484 
L 467.317674 307.603388 
L 467.724808 306.967749 
L 468.131941 309.725633 
L 468.539074 309.554412 
L 468.946208 306.755492 
L 469.353341 306.785127 
L 469.760474 305.671446 
L 470.167608 306.847551 
L 470.574741 306.069357 
L 470.981875 309.661713 
L 471.389008 308.96923 
L 471.796141 305.849337 
L 472.203275 305.597904 
L 472.610408 304.91844 
L 473.017541 306.401812 
L 473.424675 304.773296 
L 473.831808 309.366292 
L 474.238942 309.023729 
L 474.646075 306.3556 
L 475.460342 304.615377 
L 475.867475 306.262571 
L 476.274608 304.849305 
L 476.681742 309.380644 
L 477.088875 309.404336 
L 477.496009 308.593313 
L 477.903142 304.531849 
L 478.310275 305.139551 
L 478.717409 306.327865 
L 479.124542 305.174199 
L 479.531676 308.918935 
L 479.938809 309.086962 
L 480.753076 304.680429 
L 481.160209 304.99368 
L 481.567342 306.55403 
L 481.974476 304.864142 
L 482.381609 309.313693 
L 482.788743 309.272697 
L 483.603009 305.258455 
L 484.010143 305.049635 
L 484.417276 306.893277 
L 484.824409 305.755702 
L 485.231543 309.38865 
L 485.638676 309.402234 
L 486.04581 308.725963 
L 486.452943 303.298334 
L 486.860076 305.412574 
L 487.26721 306.719631 
L 487.674343 304.229353 
L 488.081476 309.058782 
L 488.48861 309.052071 
L 489.302877 304.57992 
L 489.71001 304.815788 
L 490.117143 306.275428 
L 490.524277 303.866293 
L 490.93141 308.890351 
L 491.745677 308.988636 
L 492.15281 303.977677 
L 492.967077 305.962541 
L 493.37421 304.061609 
L 493.781344 308.591211 
L 494.188477 308.528181 
L 495.002744 303.393627 
L 495.409877 304.531081 
L 495.817011 305.219117 
L 496.224144 303.449986 
L 496.631277 308.510351 
L 497.038411 308.571279 
L 497.445544 306.726989 
L 497.852678 303.586073 
L 498.259811 304.414522 
L 498.666944 304.836569 
L 499.074078 302.483065 
L 499.481211 308.684927 
L 499.888344 308.630751 
L 500.702611 304.018471 
L 501.109745 304.335805 
L 501.516878 304.982561 
L 501.924011 300.351602 
L 502.331145 309.305364 
L 502.738278 309.304111 
L 503.145411 306.02549 
L 503.552545 304.314862 
L 503.959678 304.780372 
L 504.366812 305.525575 
L 504.773945 304.750696 
L 505.181078 309.494252 
L 505.588212 309.511799 
L 505.995345 306.850705 
L 506.402478 305.288454 
L 506.809612 305.244385 
L 507.216745 305.779515 
L 507.623879 305.331835 
L 508.031012 309.601472 
L 508.438145 309.985192 
L 508.845279 306.821838 
L 509.252412 305.718709 
L 510.066679 306.216845 
L 510.473812 305.46303 
L 510.880946 309.680917 
L 511.288079 309.71031 
L 511.695212 307.535061 
L 512.102346 306.148882 
L 512.509479 305.558525 
L 512.916612 306.387136 
L 513.323746 306.170917 
L 513.730879 309.6586 
L 514.138013 309.743624 
L 514.952279 306.139745 
L 515.359413 305.948916 
L 515.766546 306.64997 
L 516.173679 306.587789 
L 516.580813 309.830993 
L 517.39508 309.930693 
L 517.802213 306.027269 
L 518.209346 307.131167 
L 519.023613 307.525317 
L 519.430747 309.943428 
L 519.83788 310.020851 
L 520.245013 308.496686 
L 520.652147 308.493936 
L 521.05928 307.21894 
L 521.466413 306.893722 
L 522.28068 310.127748 
L 522.687814 310.021984 
L 523.094947 309.027166 
L 523.50208 308.833103 
L 523.909214 307.442921 
L 524.316347 306.827619 
L 525.130614 310.196519 
L 525.537747 310.219807 
L 525.944881 309.31632 
L 526.352014 309.20534 
L 526.759147 307.677576 
L 527.166281 307.314637 
L 527.980547 310.344856 
L 528.387681 310.277985 
L 528.794814 309.529548 
L 529.201948 309.315795 
L 529.609081 308.242867 
L 530.016214 307.660434 
L 530.830481 310.37999 
L 531.237614 310.303699 
L 532.051881 309.29554 
L 532.866148 307.887246 
L 533.273281 309.475735 
L 533.680415 310.593581 
L 534.087548 310.387348 
L 534.494681 309.469226 
L 534.901815 309.261457 
L 535.308948 310.838182 
L 535.716082 303.007966 
L 536.123215 310.838182 
L 537.751749 310.838182 
L 538.158882 300.522257 
L 538.566015 310.838182 
L 540.601682 310.838182 
L 541.008816 300.031115 
L 541.415949 310.838182 
L 543.451616 310.838182 
L 543.858749 299.400692 
L 544.265883 310.838182 
L 546.301549 310.838182 
L 546.708683 299.720613 
L 547.115816 310.838182 
L 549.151483 310.838182 
L 549.558616 298.702306 
L 549.96575 310.838182 
L 552.001417 310.838182 
L 552.40855 298.604142 
L 552.815683 310.838182 
L 554.85135 310.838182 
L 555.258484 292.150564 
L 555.665617 310.838182 
L 557.701284 310.838182 
L 558.108417 292.805892 
L 558.515551 310.838182 
L 560.551218 310.838182 
L 560.958351 290.299442 
L 561.365484 310.838182 
L 563.401151 310.838182 
L 563.808285 294.981464 
L 564.215418 310.838182 
L 566.251085 310.838182 
L 566.658218 291.766844 
L 567.065352 310.838182 
L 569.101019 310.838182 
L 569.508152 292.721879 
L 569.915285 310.838182 
L 571.950952 310.838182 
L 572.358086 298.38477 
L 572.765219 310.838182 
L 574.800886 310.838182 
L 575.208019 298.916746 
L 575.615153 310.838182 
L 577.65082 310.838182 
L 578.057953 299.299415 
L 578.465086 310.838182 
L 580.500753 310.838182 
L 580.907887 299.589459 
L 581.31502 310.838182 
L 583.350687 310.838182 
L 583.75782 300.553954 
L 584.164954 310.838182 
L 586.607754 310.838182 
L 587.014887 300.036613 
L 587.422021 310.838182 
L 589.457687 310.838182 
L 589.864821 301.627124 
L 590.271954 310.838182 
L 592.307621 310.838182 
L 592.714754 303.941128 
L 593.121888 310.838182 
L 595.157555 310.838182 
L 595.564688 305.719234 
L 595.971821 310.838182 
L 598.007488 310.838182 
L 598.414622 304.653705 
L 598.821755 310.838182 
L 600.857422 310.838182 
L 601.264555 303.70805 
L 601.671689 310.838182 
L 604.114489 310.838182 
L 604.521622 306.654822 
L 604.928756 310.838182 
L 606.964423 310.838182 
L 607.371556 306.63117 
L 607.778689 310.838182 
L 609.814356 310.838182 
L 610.22149 306.857173 
L 610.628623 310.838182 
L 612.66429 310.838182 
L 613.071423 307.341645 
L 613.478557 310.838182 
L 615.514224 310.838182 
L 615.921357 307.718411 
L 616.32849 310.838182 
L 618.364157 310.838182 
L 618.771291 307.067692 
L 619.178424 310.838182 
L 676.991364 310.838182 
L 676.991364 310.838182 
" clip-path="url(#p0b622f327b)" style="fill: none; stroke: #ff7f0e; stroke-width: 1.5; stroke-linecap: square"/>
   </g>
   <g id="line2d_35">
    <path d="M 119.218636 310.838182 
L 131.432638 310.733468 
L 135.096838 310.738199 
L 135.503971 310.756433 
L 135.911105 310.225588 
L 136.318238 310.674441 
L 137.539638 310.75526 
L 149.75364 310.836807 
L 170.924575 310.838141 
L 260.086785 310.833573 
L 364.31293 310.836362 
L 434.339871 310.766823 
L 435.154137 310.584646 
L 435.561271 310.683214 
L 436.375537 310.584242 
L 437.596938 310.477709 
L 438.004071 310.470149 
L 438.411204 309.295257 
L 438.818338 309.879832 
L 439.225471 309.774027 
L 439.632605 309.434376 
L 440.039738 309.509454 
L 440.446871 308.589594 
L 440.854005 308.525916 
L 441.261138 308.700735 
L 441.668271 309.304353 
L 442.482538 309.807058 
L 442.889672 309.671173 
L 445.739605 310.274306 
L 446.146739 310.196924 
L 446.553872 310.386176 
L 450.218072 310.626289 
L 457.13934 310.722229 
L 458.36074 310.609753 
L 460.80354 310.615494 
L 462.02494 310.511913 
L 462.839207 310.500148 
L 463.24634 310.408048 
L 463.653474 310.13543 
L 464.060607 310.275115 
L 465.689141 309.883147 
L 466.096274 309.67178 
L 466.503407 309.599896 
L 467.317674 309.022597 
L 467.724808 309.026236 
L 468.131941 309.189775 
L 468.539074 308.76793 
L 469.353341 308.174621 
L 470.167608 308.236681 
L 470.574741 308.048804 
L 470.981875 308.331085 
L 471.389008 308.171225 
L 471.796141 307.412276 
L 472.203275 307.172971 
L 472.610408 307.358666 
L 473.017541 307.407101 
L 473.424675 307.613738 
L 473.831808 308.150525 
L 474.238942 307.498149 
L 474.646075 307.215382 
L 475.053208 307.518081 
L 475.460342 307.00733 
L 475.867475 307.561624 
L 476.274608 307.736119 
L 476.681742 308.404263 
L 477.088875 307.571084 
L 477.496009 307.26317 
L 477.903142 307.719664 
L 478.310275 307.733733 
L 479.531676 308.685129 
L 479.938809 307.475548 
L 480.345942 307.586447 
L 481.160209 308.062145 
L 481.567342 307.602983 
L 481.974476 308.772215 
L 482.381609 309.00028 
L 482.788743 308.14349 
L 483.195876 308.029518 
L 484.417276 308.646155 
L 484.824409 308.769466 
L 485.231543 309.375348 
L 485.638676 308.536145 
L 487.26721 309.175705 
L 487.674343 309.203804 
L 488.081476 309.652091 
L 488.48861 309.018352 
L 490.117143 309.392207 
L 490.524277 310.838182 
L 490.93141 309.490775 
L 491.338543 309.880964 
L 491.745677 309.337667 
L 493.781344 309.651363 
L 494.188477 310.009369 
L 494.59561 309.517378 
L 496.631277 309.788339 
L 497.038411 310.04426 
L 497.445544 309.677076 
L 498.259811 309.740996 
L 499.481211 309.883309 
L 499.888344 310.074219 
L 500.295478 309.745039 
L 501.109745 309.783407 
L 502.331145 309.91254 
L 502.738278 310.095606 
L 503.145411 309.816155 
L 503.959678 309.822786 
L 504.773945 309.950625 
L 505.181078 309.866126 
L 505.588212 310.134257 
L 505.995345 309.797234 
L 506.809612 309.82412 
L 508.031012 309.884805 
L 508.438145 310.10628 
L 508.845279 309.7978 
L 509.252412 309.711401 
L 510.473812 309.829173 
L 510.880946 309.817287 
L 511.288079 310.041996 
L 511.695212 309.658923 
L 512.102346 309.543334 
L 513.323746 309.699838 
L 513.730879 309.616836 
L 514.138013 309.887392 
L 514.545146 309.435103 
L 514.952279 309.293882 
L 516.580813 309.31062 
L 516.987946 309.738974 
L 517.39508 309.236067 
L 517.802213 309.036344 
L 518.209346 309.284987 
L 519.430747 309.436235 
L 519.83788 309.714636 
L 520.245013 308.844544 
L 520.652147 308.73223 
L 521.873547 309.15355 
L 522.28068 309.157795 
L 522.687814 309.618574 
L 523.094947 308.965793 
L 523.50208 308.868236 
L 524.316347 309.15549 
L 525.130614 309.203845 
L 525.537747 309.620272 
L 525.944881 308.934582 
L 526.352014 308.816324 
L 527.166281 309.024579 
L 527.980547 309.035252 
L 528.387681 309.428796 
L 528.794814 308.779331 
L 529.201948 308.55442 
L 529.609081 308.891403 
L 530.016214 308.7106 
L 530.423348 308.970766 
L 530.830481 308.960214 
L 531.237614 309.45924 
L 532.051881 308.636816 
L 532.459015 308.599903 
L 533.273281 309.009013 
L 533.680415 309.076733 
L 534.087548 309.593831 
L 534.494681 308.954554 
L 534.901815 308.961023 
L 535.716082 309.26267 
L 536.530348 309.33225 
L 536.937482 309.694785 
L 537.344615 309.177646 
L 537.751749 309.125006 
L 538.158882 309.310135 
L 539.380282 309.473431 
L 539.787415 309.838755 
L 540.194549 309.375631 
L 540.601682 309.538038 
L 541.008816 309.408137 
L 541.415949 309.65953 
L 542.230216 309.775483 
L 542.637349 310.069125 
L 543.044482 309.722075 
L 543.451616 309.714393 
L 544.673016 309.927175 
L 545.894416 309.954344 
L 546.301549 309.739621 
L 547.52295 310.00092 
L 547.930083 310.006054 
L 548.337216 310.187867 
L 548.74435 309.909952 
L 549.151483 309.857393 
L 549.96575 310.037347 
L 551.18715 310.178932 
L 551.594283 309.88153 
L 552.001417 309.85052 
L 553.222817 310.043047 
L 554.037084 310.117358 
L 554.444217 309.890789 
L 554.85135 309.841222 
L 555.258484 309.925154 
L 555.665617 292.100108 
L 556.07275 288.762541 
L 556.887017 274.608891 
L 557.294151 269.187851 
L 557.701284 261.516363 
L 558.515551 217.830509 
L 559.329818 146.335129 
L 560.144084 72.08716 
L 560.958351 29.201818 
L 561.772618 81.606293 
L 562.179751 118.057545 
L 562.586885 130.420636 
L 562.994018 134.694438 
L 563.808285 192.410064 
L 564.215418 212.62302 
L 564.622551 223.287936 
L 565.029685 245.882697 
L 565.436818 258.988202 
L 565.843952 255.675338 
L 566.251085 260.27743 
L 566.658218 270.736234 
L 567.472485 282.434255 
L 567.879618 289.505399 
L 568.286752 294.354882 
L 568.693885 294.403074 
L 569.101019 298.313088 
L 569.508152 299.638945 
L 570.729552 305.11691 
L 571.136685 306.16562 
L 571.543819 305.396159 
L 571.950952 306.48538 
L 572.358086 307.068177 
L 573.172352 307.708667 
L 573.579486 309.032301 
L 573.986619 309.774593 
L 574.393752 310.218958 
L 574.800886 310.044624 
L 575.208019 310.15524 
L 575.615153 309.8354 
L 576.022286 309.709016 
L 576.429419 309.714029 
L 576.836553 310.838182 
L 577.243686 308.603582 
L 577.65082 310.838182 
L 578.057953 309.513901 
L 578.465086 308.697824 
L 578.87222 309.85986 
L 579.279353 309.892527 
L 579.686486 310.154189 
L 580.09362 309.881085 
L 580.500753 309.845386 
L 581.31502 310.044584 
L 581.722153 310.077453 
L 582.129287 310.316677 
L 582.943553 310.001364 
L 583.75782 310.153178 
L 584.164954 310.838182 
L 584.572087 309.593831 
L 584.97922 310.190576 
L 585.386354 310.345706 
L 585.793487 310.135389 
L 586.607754 310.250857 
L 587.014887 310.838182 
L 587.422021 310.799693 
L 587.829154 309.215084 
L 588.236287 310.521333 
L 589.457687 310.264967 
L 589.864821 310.838182 
L 590.271954 310.83426 
L 590.679088 309.401183 
L 591.086221 310.550038 
L 591.493354 310.390259 
L 592.307621 310.44868 
L 592.714754 310.838182 
L 593.121888 310.118813 
L 593.529021 310.46934 
L 593.936155 310.571466 
L 594.343288 310.428465 
L 595.157555 310.470513 
L 595.564688 310.838182 
L 595.971821 310.024733 
L 596.378955 310.64141 
L 596.786088 310.612624 
L 597.600355 310.826215 
L 604.114489 310.838182 
L 607.778689 310.804908 
L 609.814356 310.838182 
L 612.257157 310.822455 
L 614.699957 310.820595 
L 650.527694 310.811134 
L 652.156228 310.838182 
L 654.599028 310.838182 
L 676.991364 310.838182 
L 676.991364 310.838182 
" clip-path="url(#p0b622f327b)" style="fill: none; stroke: #2ca02c; stroke-width: 1.5; stroke-linecap: square"/>
   </g>
   <g id="patch_3">
    <path d="M 91.33 324.92 
L 91.33 15.12 
" style="fill: none; stroke: #000000; stroke-width: 0.8; stroke-linejoin: miter; stroke-linecap: square"/>
   </g>
   <g id="patch_4">
    <path d="M 704.88 324.92 
L 704.88 15.12 
" style="fill: none; stroke: #000000; stroke-width: 0.8; stroke-linejoin: miter; stroke-linecap: square"/>
   </g>
   <g id="patch_5">
    <path d="M 91.33 324.92 
L 704.88 324.92 
" style="fill: none; stroke: #000000; stroke-width: 0.8; stroke-linejoin: miter; stroke-linecap: square"/>
   </g>
   <g id="patch_6">
    <path d="M 91.33 15.12 
L 704.88 15.12 
" style="fill: none; stroke: #000000; stroke-width: 0.8; stroke-linejoin: miter; stroke-linecap: square"/>
   </g>
   <g id="legend_1">
    <g id="patch_7">
     <path d="M 101.13 86.760625 
L 307.625625 86.760625 
Q 310.425625 86.760625 310.425625 83.960625 
L 310.425625 24.92 
Q 310.425625 22.12 307.625625 22.12 
L 101.13 22.12 
Q 98.33 22.12 98.33 24.92 
L 98.33 83.960625 
Q 98.33 86.760625 101.13 86.760625 
z
" style="fill: #ffffff; opacity: 0.8; stroke: #cccccc; stroke-linejoin: miter"/>
    </g>
    <g id="line2d_36">
     <path d="M 103.93 33.306875 
L 117.93 33.306875 
L 131.93 33.306875 
" style="fill: none; stroke: #1f77b4; stroke-width: 1.5; stroke-linecap: square"/>
    </g>
    <g id="text_17">
     <!-- Japan -->
     <g transform="translate(143.13 38.206875) scale(0.14 -0.14)">
      <defs>
       <path id="IPAexGothic-4a" d="M 1819 4634 
L 1819 1234 
Q 1819 -31 763 -31 
Q 303 -31 -125 209 
L 84 644 
Q 378 447 694 447 
Q 1250 447 1250 1203 
L 1250 4634 
L 1819 4634 
z
" transform="scale(0.015625)"/>
       <path id="IPAexGothic-61" d="M 3156 63 
L 2672 63 
Q 2559 303 2531 556 
L 2509 556 
Q 2147 -25 1428 -25 
Q 934 -25 622 288 
Q 347 563 347 959 
Q 347 1947 2050 1997 
L 2478 2009 
L 2478 2175 
Q 2478 2509 2288 2700 
Q 2088 2900 1775 2900 
Q 1238 2900 969 2378 
L 494 2597 
Q 938 3328 1788 3328 
Q 2375 3328 2691 3000 
Q 2984 2706 2984 2169 
L 2984 997 
Q 2984 400 3156 63 
z
M 2491 1625 
L 2141 1619 
Q 903 1591 903 953 
Q 903 728 1050 581 
Q 1231 403 1525 403 
Q 1934 403 2234 703 
Q 2491 969 2491 1344 
L 2491 1625 
z
" transform="scale(0.015625)"/>
       <path id="IPAexGothic-70" d="M 1075 2688 
Q 1525 3341 2206 3341 
Q 2769 3341 3172 2938 
Q 3641 2469 3641 1644 
Q 3641 841 3178 372 
Q 2775 -31 2200 -31 
Q 1569 -31 1106 497 
L 1106 -1216 
L 563 -1216 
L 563 3250 
L 1075 3250 
L 1075 2688 
z
M 1106 1950 
L 1106 1291 
Q 1106 897 1516 600 
Q 1791 403 2106 403 
Q 2469 403 2725 659 
Q 3066 997 3066 1631 
Q 3066 2200 2784 2559 
Q 2503 2900 2100 2900 
Q 1656 2900 1338 2484 
Q 1106 2184 1106 1950 
z
" transform="scale(0.015625)"/>
       <path id="IPAexGothic-6e" d="M 3328 63 
L 2778 63 
L 2778 2041 
Q 2778 2853 2106 2853 
Q 1428 2853 1113 2041 
L 1113 63 
L 563 63 
L 563 3250 
L 1075 3250 
L 1075 2675 
Q 1525 3316 2222 3316 
Q 3328 3316 3328 2072 
L 3328 63 
z
" transform="scale(0.015625)"/>
      </defs>
      <use xlink:href="#IPAexGothic-4a"/>
      <use xlink:href="#IPAexGothic-61" x="37.988281"/>
      <use xlink:href="#IPAexGothic-70" x="92.96875"/>
      <use xlink:href="#IPAexGothic-61" x="155.078125"/>
      <use xlink:href="#IPAexGothic-6e" x="210.058594"/>
     </g>
    </g>
    <g id="line2d_37">
     <path d="M 103.93 53.45375 
L 117.93 53.45375 
L 131.93 53.45375 
" style="fill: none; stroke: #ff7f0e; stroke-width: 1.5; stroke-linecap: square"/>
    </g>
    <g id="text_18">
     <!-- United States of America -->
     <g transform="translate(143.13 58.35375) scale(0.14 -0.14)">
      <defs>
       <path id="IPAexGothic-55" d="M 4219 4634 
L 4219 1631 
Q 4219 994 3906 594 
Q 3400 -63 2388 -63 
Q 1372 -63 856 594 
Q 550 988 550 1631 
L 550 4634 
L 1113 4634 
L 1113 1700 
Q 1113 1134 1388 831 
Q 1753 428 2388 428 
Q 3031 428 3388 831 
Q 3663 1144 3663 1700 
L 3663 4634 
L 4219 4634 
z
" transform="scale(0.015625)"/>
       <path id="IPAexGothic-69" d="M 1178 3928 
L 550 3928 
L 550 4569 
L 1178 4569 
L 1178 3928 
z
M 1138 63 
L 588 63 
L 588 3250 
L 1138 3250 
L 1138 63 
z
" transform="scale(0.015625)"/>
       <path id="IPAexGothic-74" d="M 2125 241 
Q 1769 -6 1397 -6 
Q 653 -6 653 831 
L 653 2859 
L 219 2859 
L 219 3250 
L 653 3250 
L 653 3966 
L 1178 4228 
L 1178 3250 
L 2063 3250 
L 2063 2859 
L 1178 2859 
L 1178 906 
Q 1178 416 1513 416 
Q 1738 416 1941 588 
L 2125 241 
z
" transform="scale(0.015625)"/>
       <path id="IPAexGothic-65" d="M 863 1594 
Q 891 1041 1209 722 
Q 1534 397 1997 397 
Q 2606 397 2963 966 
L 3322 728 
Q 2869 -31 1931 -31 
Q 1222 -31 766 422 
Q 306 884 306 1641 
Q 306 2444 788 2925 
Q 1216 3353 1856 3353 
Q 2459 3353 2866 2956 
Q 3322 2494 3322 1722 
L 3322 1594 
L 863 1594 
z
M 2756 1997 
Q 2709 2431 2450 2681 
Q 2194 2938 1844 2938 
Q 1438 2938 1150 2591 
Q 953 2356 894 1997 
L 2756 1997 
z
" transform="scale(0.015625)"/>
       <path id="IPAexGothic-64" d="M 3391 63 
L 2891 63 
L 2891 619 
Q 2441 -31 1753 -31 
Q 1181 -31 788 372 
Q 313 844 313 1663 
Q 313 2466 772 2938 
Q 1169 3341 1753 3341 
Q 2384 3341 2847 2809 
L 2847 4794 
L 3391 4794 
L 3391 63 
z
M 2847 1303 
L 2847 2097 
Q 2847 2413 2456 2706 
Q 2181 2906 1853 2906 
Q 1484 2906 1228 2650 
Q 888 2309 888 1678 
Q 888 1109 1169 750 
Q 1441 409 1847 409 
Q 2322 409 2656 875 
Q 2847 1134 2847 1303 
z
" transform="scale(0.015625)"/>
       <path id="IPAexGothic-20" transform="scale(0.015625)"/>
       <path id="IPAexGothic-53" d="M 2919 3641 
Q 2563 4259 1853 4259 
Q 1453 4259 1213 4009 
Q 1028 3803 1028 3534 
Q 1028 3238 1266 3047 
Q 1444 2913 1984 2688 
L 2200 2597 
Q 2925 2306 3191 1953 
Q 3422 1644 3422 1259 
Q 3422 644 2969 288 
Q 2559 -31 1931 -31 
Q 881 -31 313 766 
L 753 1100 
Q 1203 459 1938 459 
Q 2288 459 2534 625 
Q 2841 847 2841 1216 
Q 2841 1503 2616 1728 
Q 2375 1959 1728 2206 
L 1541 2278 
Q 453 2694 453 3481 
Q 453 4006 806 4347 
Q 1203 4725 1863 4725 
Q 2841 4725 3359 3956 
L 2919 3641 
z
" transform="scale(0.015625)"/>
       <path id="IPAexGothic-73" d="M 2234 2547 
Q 1938 2931 1484 2931 
Q 891 2931 891 2475 
Q 891 2153 1531 1944 
L 1741 1875 
Q 2650 1578 2650 894 
Q 2650 434 2272 172 
Q 1972 -31 1497 -31 
Q 766 -31 256 503 
L 603 819 
Q 997 397 1516 397 
Q 2131 397 2131 875 
Q 2131 1238 1453 1478 
L 1234 1553 
Q 378 1853 378 2431 
Q 378 2797 628 3047 
Q 928 3347 1453 3347 
Q 2156 3347 2606 2859 
L 2234 2547 
z
" transform="scale(0.015625)"/>
       <path id="IPAexGothic-6f" d="M 1919 3341 
Q 2594 3341 3056 2888 
Q 3531 2413 3531 1638 
Q 3531 888 3066 422 
Q 2609 -31 1919 -31 
Q 1228 -31 781 416 
Q 313 881 313 1656 
Q 313 2413 788 2888 
Q 1241 3341 1919 3341 
z
M 1919 2919 
Q 1519 2919 1241 2631 
Q 888 2278 888 1650 
Q 888 1031 1234 684 
Q 1516 403 1919 403 
Q 2331 403 2609 691 
Q 2956 1038 2956 1672 
Q 2956 2269 2603 2631 
Q 2316 2919 1919 2919 
z
" transform="scale(0.015625)"/>
       <path id="IPAexGothic-66" d="M 2456 4622 
L 2228 4244 
Q 1991 4422 1741 4422 
Q 1184 4422 1184 3672 
L 1184 3250 
L 2053 3250 
L 2053 2859 
L 1184 2859 
L 1184 63 
L 641 63 
L 641 2859 
L 122 2859 
L 122 3250 
L 641 3250 
L 641 3659 
Q 641 4188 891 4484 
Q 1200 4844 1709 4844 
Q 2116 4844 2456 4622 
z
" transform="scale(0.015625)"/>
       <path id="IPAexGothic-41" d="M 4056 63 
L 3444 63 
L 2938 1409 
L 1100 1409 
L 603 63 
L -6 63 
L 1806 4666 
L 2259 4666 
L 4056 63 
z
M 2778 1863 
L 2316 3078 
Q 2125 3588 2028 4000 
L 2009 4000 
Q 1897 3563 1716 3078 
L 1263 1863 
L 2778 1863 
z
" transform="scale(0.015625)"/>
       <path id="IPAexGothic-6d" d="M 5022 63 
L 4472 63 
L 4472 2059 
Q 4472 2869 3847 2869 
Q 3550 2869 3303 2594 
Q 3128 2397 3059 2103 
L 3059 63 
L 2509 63 
L 2509 2066 
Q 2509 2869 1919 2869 
Q 1606 2869 1369 2594 
Q 1113 2306 1113 2041 
L 1113 63 
L 563 63 
L 563 3250 
L 1075 3250 
L 1075 2700 
Q 1391 3316 2028 3316 
Q 2725 3316 2956 2647 
Q 3303 3316 3953 3316 
Q 4478 3316 4772 2944 
Q 5022 2638 5022 2072 
L 5022 63 
z
" transform="scale(0.015625)"/>
       <path id="IPAexGothic-72" d="M 2309 3316 
L 2213 2769 
Q 2106 2791 2022 2791 
Q 1653 2791 1413 2444 
Q 1113 2006 1113 1675 
L 1113 63 
L 563 63 
L 563 3250 
L 1081 3250 
L 1056 2303 
L 1069 2303 
Q 1422 3341 2097 3341 
Q 2206 3341 2309 3316 
z
" transform="scale(0.015625)"/>
       <path id="IPAexGothic-63" d="M 3269 784 
Q 2834 -31 1900 -31 
Q 1228 -31 788 409 
Q 313 891 313 1663 
Q 313 2428 788 2913 
Q 1222 3347 1881 3347 
Q 2813 3347 3206 2541 
L 2763 2309 
Q 2484 2900 1900 2900 
Q 1516 2900 1234 2619 
Q 881 2266 881 1650 
Q 881 1069 1222 728 
Q 1522 428 1956 428 
Q 2547 428 2847 1016 
L 3269 784 
z
" transform="scale(0.015625)"/>
      </defs>
      <use xlink:href="#IPAexGothic-55"/>
      <use xlink:href="#IPAexGothic-6e" x="74.707031"/>
      <use xlink:href="#IPAexGothic-69" x="135.107422"/>
      <use xlink:href="#IPAexGothic-74" x="162.109375"/>
      <use xlink:href="#IPAexGothic-65" x="196.728516"/>
      <use xlink:href="#IPAexGothic-64" x="253.613281"/>
      <use xlink:href="#IPAexGothic-20" x="316.015625"/>
      <use xlink:href="#IPAexGothic-53" x="343.017578"/>
      <use xlink:href="#IPAexGothic-74" x="401.513672"/>
      <use xlink:href="#IPAexGothic-61" x="436.132812"/>
      <use xlink:href="#IPAexGothic-74" x="491.113281"/>
      <use xlink:href="#IPAexGothic-65" x="525.732422"/>
      <use xlink:href="#IPAexGothic-73" x="582.617188"/>
      <use xlink:href="#IPAexGothic-20" x="628.808594"/>
      <use xlink:href="#IPAexGothic-6f" x="655.810547"/>
      <use xlink:href="#IPAexGothic-66" x="716.210938"/>
      <use xlink:href="#IPAexGothic-20" x="746.826172"/>
      <use xlink:href="#IPAexGothic-41" x="773.828125"/>
      <use xlink:href="#IPAexGothic-6d" x="837.548828"/>
      <use xlink:href="#IPAexGothic-65" x="924.658203"/>
      <use xlink:href="#IPAexGothic-72" x="981.542969"/>
      <use xlink:href="#IPAexGothic-69" x="1018.554688"/>
      <use xlink:href="#IPAexGothic-63" x="1045.556641"/>
      <use xlink:href="#IPAexGothic-61" x="1099.951172"/>
     </g>
    </g>
    <g id="line2d_38">
     <path d="M 103.93 73.600625 
L 117.93 73.600625 
L 131.93 73.600625 
" style="fill: none; stroke: #2ca02c; stroke-width: 1.5; stroke-linecap: square"/>
    </g>
    <g id="text_19">
     <!-- China -->
     <g transform="translate(143.13 78.500625) scale(0.14 -0.14)">
      <defs>
       <path id="IPAexGothic-43" d="M 4353 1088 
Q 4181 694 3859 428 
Q 3313 -31 2559 -31 
Q 1588 -31 959 653 
Q 378 1294 378 2331 
Q 378 3406 1013 4078 
Q 1619 4725 2534 4725 
Q 3813 4725 4322 3628 
L 3809 3391 
Q 3425 4238 2541 4238 
Q 1891 4238 1453 3744 
Q 994 3216 994 2322 
Q 994 1550 1384 1056 
Q 1841 472 2563 472 
Q 3456 472 3878 1319 
L 4353 1088 
z
" transform="scale(0.015625)"/>
       <path id="IPAexGothic-68" d="M 3347 63 
L 2797 63 
L 2797 2041 
Q 2797 2853 2131 2853 
Q 1447 2853 1131 2041 
L 1131 63 
L 581 63 
L 581 4794 
L 1131 4794 
L 1131 2706 
Q 1566 3316 2247 3316 
Q 3347 3316 3347 2072 
L 3347 63 
z
" transform="scale(0.015625)"/>
      </defs>
      <use xlink:href="#IPAexGothic-43"/>
      <use xlink:href="#IPAexGothic-68" x="72.509766"/>
      <use xlink:href="#IPAexGothic-69" x="133.203125"/>
      <use xlink:href="#IPAexGothic-6e" x="160.205078"/>
      <use xlink:href="#IPAexGothic-61" x="220.605469"/>
     </g>
    </g>
   </g>
  </g>
 </g>
 <defs>
  <clipPath id="p0b622f327b">
   <rect x="91.33" y="15.12" width="613.55" height="309.8"/>
  </clipPath>
 </defs>
</svg>
